<svg width="1019" height="1019" viewBox="0 0 1019 1019" fill="none" xmlns="http://www.w3.org/2000/svg">
<path d="M646.472 855.872C646.472 848.544 695.035 842.604 754.939 842.604C814.844 842.604 863.406 848.544 863.406 855.872C863.406 863.2 814.845 869.14 754.939 869.14C695.034 869.14 646.472 863.2 646.472 855.872ZM466.435 820.194C466.435 815.24 499.267 811.224 539.765 811.224C580.264 811.224 613.095 815.24 613.095 820.194C613.095 825.147 580.264 829.163 539.765 829.163C499.267 829.163 466.435 825.147 466.435 820.194Z" fill="#DFE6F4"/>
<path d="M840.677 528.05C844.592 523.662 852.857 516.559 862.237 518.114M839.772 532.4C845.177 506.075 856.759 454.716 902.373 408.627L839.772 532.4ZM878.829 436.721C881.678 435.777 890.649 434.707 900.847 438.305L878.829 436.721ZM883.295 430.612C882.839 424.737 881.484 414.442 879.362 409.322L883.295 430.612ZM865.713 457.801C865.359 452.895 862.67 440.804 860.11 437.54L865.713 457.801ZM860.061 468.878C863.803 466.603 871.433 460.529 883.873 464.137L860.061 468.878ZM852.025 487.93C851.327 481.572 850.843 471.887 844.069 468.959L852.025 487.93ZM848.919 496.836C853.279 493.235 858.569 488.894 869.477 489.874L848.919 496.836ZM845.245 509.072C843.057 501.649 838.95 494.79 834.434 492.84L845.245 509.072Z" stroke="#7DA7FB" stroke-width="0.72" stroke-linecap="round" stroke-linejoin="round"/>
<path d="M912.147 405.381C912.331 404.141 912.144 402.875 911.608 401.741C911.073 400.608 910.213 399.659 909.138 399.015C908.063 398.37 906.821 398.058 905.569 398.119C904.317 398.18 903.112 398.611 902.105 399.358C901.097 400.104 900.334 401.132 899.912 402.312C899.489 403.492 899.425 404.771 899.729 405.987C900.033 407.203 900.691 408.302 901.62 409.144C902.548 409.986 903.705 410.534 904.945 410.719C906.608 410.966 908.301 410.542 909.651 409.541C911.002 408.54 911.9 407.044 912.147 405.381ZM884.184 409.1C884.325 408.15 884.182 407.179 883.771 406.311C883.361 405.443 882.702 404.715 881.879 404.221C881.055 403.727 880.103 403.489 879.144 403.535C878.185 403.582 877.261 403.913 876.489 404.485C875.718 405.057 875.133 405.844 874.809 406.749C874.485 407.653 874.437 408.633 874.67 409.565C874.903 410.496 875.408 411.338 876.119 411.983C876.831 412.628 877.718 413.048 878.668 413.189C879.941 413.378 881.238 413.053 882.273 412.287C883.307 411.52 883.995 410.374 884.184 409.1ZM908.409 439.865C908.55 438.915 908.406 437.945 907.996 437.077C907.586 436.208 906.927 435.481 906.104 434.987C905.28 434.493 904.329 434.254 903.37 434.301C902.41 434.348 901.487 434.678 900.715 435.25C899.944 435.821 899.359 436.609 899.035 437.513C898.711 438.417 898.662 439.397 898.895 440.329C899.128 441.26 899.632 442.102 900.343 442.747C901.055 443.392 901.941 443.812 902.891 443.954C903.522 444.048 904.165 444.016 904.783 443.862C905.402 443.707 905.984 443.432 906.497 443.052C907.009 442.673 907.442 442.196 907.77 441.649C908.098 441.102 908.315 440.496 908.409 439.865ZM862.838 436.183C862.979 435.233 862.835 434.263 862.425 433.395C862.015 432.527 861.356 431.8 860.533 431.306C859.709 430.812 858.758 430.573 857.799 430.62C856.84 430.667 855.916 430.997 855.145 431.569C854.374 432.141 853.789 432.929 853.465 433.833C853.142 434.737 853.093 435.716 853.326 436.648C853.56 437.579 854.064 438.421 854.775 439.066C855.486 439.711 856.373 440.13 857.323 440.271C858.596 440.46 859.893 440.136 860.927 439.369C861.961 438.602 862.649 437.456 862.838 436.183ZM875.877 489.703C876.018 488.753 875.874 487.783 875.463 486.915C875.053 486.047 874.394 485.32 873.57 484.827C872.747 484.333 871.795 484.095 870.836 484.142C869.877 484.189 868.954 484.519 868.182 485.091C867.411 485.663 866.827 486.451 866.503 487.355C866.179 488.259 866.131 489.239 866.364 490.171C866.598 491.102 867.102 491.943 867.813 492.588C868.525 493.233 869.411 493.653 870.361 493.794C871.635 493.983 872.932 493.658 873.966 492.891C875.001 492.124 875.688 490.977 875.877 489.703ZM837.072 492.109C837.214 491.159 837.07 490.189 836.66 489.32C836.25 488.452 835.592 487.724 834.768 487.23C833.944 486.736 832.993 486.497 832.034 486.543C831.074 486.59 830.15 486.92 829.378 487.492C828.607 488.063 828.022 488.851 827.698 489.755C827.374 490.66 827.325 491.64 827.558 492.571C827.791 493.503 828.295 494.345 829.006 494.99C829.718 495.636 830.605 496.056 831.555 496.197C832.828 496.386 834.125 496.062 835.16 495.295C836.194 494.529 836.882 493.383 837.072 492.109ZM889.756 465.609C889.915 464.543 889.754 463.455 889.293 462.481C888.833 461.507 888.095 460.692 887.171 460.138C886.247 459.584 885.18 459.316 884.104 459.369C883.028 459.421 881.992 459.791 881.127 460.433C880.262 461.074 879.606 461.958 879.243 462.972C878.88 463.986 878.826 465.085 879.087 466.13C879.349 467.175 879.914 468.118 880.712 468.842C881.51 469.565 882.505 470.036 883.57 470.194C884.277 470.299 884.998 470.264 885.692 470.09C886.386 469.917 887.038 469.608 887.613 469.183C888.187 468.757 888.672 468.222 889.04 467.609C889.408 466.996 889.651 466.316 889.756 465.609ZM848.242 468.35C848.4 467.285 848.239 466.196 847.778 465.222C847.318 464.249 846.579 463.433 845.655 462.879C844.731 462.326 843.664 462.058 842.588 462.111C841.512 462.164 840.476 462.535 839.611 463.177C838.746 463.818 838.09 464.702 837.727 465.717C837.365 466.731 837.311 467.83 837.573 468.875C837.835 469.92 838.4 470.863 839.199 471.587C839.997 472.31 840.992 472.78 842.057 472.938C843.486 473.15 844.94 472.785 846.1 471.925C847.26 471.064 848.03 469.779 848.242 468.35ZM870.255 519.68C870.413 518.614 870.252 517.526 869.792 516.552C869.332 515.579 868.593 514.763 867.669 514.209C866.746 513.655 865.679 513.387 864.603 513.44C863.527 513.492 862.491 513.862 861.626 514.504C860.76 515.145 860.105 516.028 859.742 517.042C859.378 518.056 859.324 519.155 859.585 520.2C859.847 521.245 860.412 522.189 861.21 522.913C862.007 523.636 863.002 524.107 864.067 524.265C865.496 524.477 866.95 524.112 868.11 523.253C869.27 522.393 870.041 521.108 870.255 519.68Z" fill="#9CBDFF"/>
<path d="M836.984 617.925C872.039 622.916 892.407 596.784 892.512 555.082C859.972 556.896 825.732 580.884 836.984 617.925Z" fill="#5279C7"/>
<path d="M834.511 659.448C886.951 683.984 931.272 652.833 951.337 587.664C899.582 574.975 834.589 596.151 834.511 659.448Z" fill="#19366F"/>
<path d="M822.851 762.586C826.48 767.326 882.662 767.9 883.477 757.161C884.111 748.8 875.254 747.94 872.013 747.881C866.908 747.786 854.619 748.364 855.286 744.595C856.492 737.782 887.765 740.292 895.421 740.433C903.076 740.573 917.982 738.768 922.678 731.718C927.372 724.667 928.467 721.266 915.057 721.764C901.645 722.259 875.355 726.532 881.532 718.915C887.712 711.298 908.89 712.73 921.326 709.092C933.764 705.455 956.208 694.309 948.664 688.186C941.917 682.71 907.091 698.57 907.212 691.881C907.311 686.53 918.37 685.844 934.242 679.594C950.114 673.344 965.034 667.283 962.189 657.508C959.904 649.661 950.586 655.809 941.985 659.069C933.382 662.33 921.235 666.419 922.648 661.388C924.067 656.36 967.666 644.479 966.804 630.981C966.232 622.049 957.735 627.542 947.513 630.773C937.292 634.005 933.456 634.38 933.501 632.15C933.539 629.92 946.62 623.322 953.902 619.887C961.18 616.455 970.448 609.041 967.483 602.147C964.518 595.254 953.42 601.965 949.896 605.391C946.373 608.822 941.556 610.591 940.543 609.532C939.532 608.473 950.358 596.33 943.228 591.739C936.098 587.146 926.88 599.764 926.724 608.235C926.567 616.705 926.06 628.148 922.972 628.089C919.878 628.032 920.059 618.223 920.202 610.496C920.345 602.763 918.634 599.66 916.574 599.622C909.704 599.495 903.726 609.446 903.625 615.092C903.52 620.743 907.056 652.476 902.492 652.393C897.93 652.309 897.858 640.266 897.973 634.022C898.087 627.78 898.357 613.213 890.703 613.072C883.046 612.932 878.561 632.473 879.08 644.38C879.595 656.282 881.892 675.506 878.359 675.442C874.827 675.376 870.392 660.277 870.533 652.697C870.673 645.115 874.749 631.66 865.326 631.484C855.905 631.313 853.778 642.851 853.501 657.735C853.387 663.953 853.258 679.35 858.33 687.793C864.11 697.409 865.411 703.147 863.24 704.599C858.918 707.495 854.963 698.35 853.623 691.191C852.281 684.028 849.455 661.524 838.781 665.491C828.103 669.456 834.996 686.982 837.068 694.304C839.143 701.628 848.695 726.784 843.205 728.913C837.718 731.044 836.219 716.442 835.272 711.965C834.323 707.488 829.403 698.847 826.329 701.837C823.254 704.83 816.379 754.133 822.851 762.586Z" fill="#7DA7FB"/>
<path d="M160.249 367.485C145.675 367.668 140.719 354.838 138.426 346.992C142.887 347.274 160.879 349.476 160.249 367.485Z" fill="#E9EEF7"/>
<path d="M234.542 472.085C224.438 443.467 198.712 400.508 158.682 365.885" stroke="#E9EEF7" stroke-width="0.72" stroke-linecap="round" stroke-linejoin="round"/>
<path d="M232.774 451.027C234.377 421.637 255.661 417.806 271.779 414.242C270.608 423.2 268.977 454.734 232.774 451.027ZM220.301 425.728C215.676 402.554 231.461 395.326 243.28 389.336C244.159 396.534 249.19 421.377 220.301 425.728ZM201.526 401.422C193 382.988 204.733 373.773 213.406 366.39C215.587 372.225 224.789 391.972 201.526 401.422ZM181.524 379.462C173.242 369.938 178.653 362.405 182.55 356.498C184.863 359.604 193.774 369.796 181.524 379.462ZM218.049 455.4C199.006 437.739 183.154 448.364 170.746 455.989C176.984 460.953 197.355 479.955 218.049 455.4ZM203.967 428.141C190.111 410.533 175.179 417.459 163.58 422.29C168.227 427.356 183.037 446.286 203.967 428.141ZM182.554 398.562C170.128 389.62 161.632 396.991 154.932 402.355C158.94 404.803 172.24 414.432 182.554 398.562ZM166.724 379.649C160.561 373.198 154.909 376.513 150.496 378.871C152.531 380.7 159.119 387.637 166.724 379.649Z" fill="#E9EEF7"/>
<path d="M200.975 554.62C174.275 573.733 146.331 560.957 128.391 526.695C155.937 514.259 194.371 519.334 200.975 554.62ZM171.417 740.255C169.483 773.034 141.975 786.723 104.056 779.12C111.712 749.884 139.831 723.196 171.417 740.255Z" fill="#3E64AF"/>
<path d="M215.204 554.099C167.096 547.518 150.05 505.402 165.576 450.368C207.805 464.983 243.952 509.479 215.204 554.099Z" fill="#3E7EFF"/>
<path d="M215.204 554.099C207.46 535.206 182.965 492.06 171.056 463.357" stroke="#0658FC" stroke-width="0.72" stroke-linecap="round" stroke-linejoin="round"/>
<path d="M183.07 734.245C133.951 768.701 83.1211 744.863 50.9502 681.953C101.492 659.716 171.629 669.663 183.07 734.245Z" fill="#7DA7FB"/>
<path d="M183.07 734.245C160.181 723.633 101.735 705.119 66.8291 689.119" stroke="#527BCC" stroke-width="0.72" stroke-linecap="round" stroke-linejoin="round"/>
<path d="M388.294 263.267H260.259V468.672H388.294V263.267Z" fill="#F6F8FB"/>
<path d="M734.369 279.238H641.182V508.604H734.369V279.238Z" fill="#F6F8FB"/>
<path d="M641.182 163.12C566.404 163.12 513.146 211.292 513.146 275.943V388.808H641.182V163.12Z" fill="#F6F8FB"/>
<path d="M327.446 468.672H218.003V771.604H327.446V468.672Z" fill="#CEDCF8"/>
<path d="M218.005 547.479H163.283V771.604H218.005V547.479Z" fill="#CEDCF8"/>
<path d="M847.614 508.603H698.874V771.604H847.614V508.603Z" fill="#CEDCF8"/>
<path d="M698.875 388.809H557.133V771.604H698.875V388.809Z" fill="#CEDCF8"/>
<path d="M750.732 532.595H738.71V544.618H750.732V532.595Z" fill="#DDE6F8"/>
<path d="M787.071 532.595H775.049V544.618H787.071V532.595Z" fill="#DDE6F8"/>
<path d="M750.732 572.527H738.71V584.547H750.732V572.527Z" fill="#DDE6F8"/>
<path d="M787.071 572.527H775.049V584.547H787.071V572.527Z" fill="#DDE6F8"/>
<path d="M750.732 612.459H738.71V624.479H750.732V612.459Z" fill="#DDE6F8"/>
<path d="M787.071 612.459H775.049V624.479H787.071V612.459Z" fill="#DDE6F8"/>
<path d="M750.732 652.39H738.71V664.41H750.732V652.39Z" fill="#DDE6F8"/>
<path d="M787.071 652.39H775.049V664.41H787.071V652.39Z" fill="#DDE6F8"/>
<path d="M750.732 692.323H738.71V704.343H750.732V692.323Z" fill="#DDE6F8"/>
<path d="M787.071 692.323H775.049V704.343H787.071V692.323Z" fill="#DDE6F8"/>
<path d="M787.071 732.254H775.049V744.275H787.071V732.254Z" fill="#DDE6F8"/>
<path d="M823.411 532.595H811.389V544.618H823.411V532.595Z" fill="#DDE6F8"/>
<path d="M823.411 612.459H811.389V624.479H823.411V612.459Z" fill="#DDE6F8"/>
<path d="M823.411 652.39H811.389V664.41H823.411V652.39Z" fill="#7DA7FB"/>
<path d="M823.411 692.323H811.389V704.343H823.411V692.323Z" fill="#DDE6F8"/>
<path d="M823.411 732.254H811.389V744.275H823.411V732.254Z" fill="#DDE6F8"/>
<path d="M642.585 412.8H630.562V424.822H642.585V412.8Z" fill="#DDE6F8"/>
<path d="M606.245 412.8H594.223V424.822H606.245V412.8Z" fill="#3E7EFF"/>
<path d="M642.585 452.732H630.562V464.752H642.585V452.732Z" fill="#DDE6F8"/>
<path d="M642.585 492.664H630.562V504.684H642.585V492.664Z" fill="#7DA7FB"/>
<path d="M642.585 572.527H630.562V584.547H642.585V572.527Z" fill="#DDE6F8"/>
<path d="M606.245 572.527H594.223V584.547H606.245V572.527Z" fill="#DDE6F8"/>
<path d="M642.585 612.459H630.562V624.479H642.585V612.459Z" fill="#DDE6F8"/>
<path d="M606.245 612.459H594.223V624.479H606.245V612.459Z" fill="#DDE6F8"/>
<path d="M642.585 652.39H630.562V664.41H642.585V652.39Z" fill="#DDE6F8"/>
<path d="M678.923 492.664H666.9V504.684H678.923V492.664Z" fill="#DDE6F8"/>
<path d="M678.923 532.596H666.9V544.616H678.923V532.596Z" fill="#DDE6F8"/>
<path d="M678.923 572.527H666.9V584.547H678.923V572.527Z" fill="#DDE6F8"/>
<path d="M678.923 612.459H666.9V624.479H678.923V612.459Z" fill="#7DA7FB"/>
<path d="M606.245 732.254H594.223V744.275H606.245V732.254Z" fill="#DDE6F8"/>
<path d="M642.585 692.323H630.562V704.343H642.585V692.323Z" fill="#DDE6F8"/>
<path d="M606.245 692.323H594.223V704.343H606.245V692.323Z" fill="#7DA7FB"/>
<path d="M678.923 732.254H666.9V744.275H678.923V732.254Z" fill="#DDE6F8"/>
<path d="M678.923 692.323H666.9V704.343H678.923V692.323Z" fill="#3E7EFF"/>
<path d="M196.654 572.526H184.633V584.548H196.654V572.526Z" fill="#DDE6F8"/>
<path d="M254.015 492.663H241.994V504.684H254.015V492.663Z" fill="#DDE6F8"/>
<path d="M254.015 532.596H241.994V544.616H254.015V532.596Z" fill="#7DA7FB"/>
<path d="M290.355 532.596H278.334V544.616H290.355V532.596Z" fill="#DDE6F8"/>
<path d="M290.355 572.527H278.334V584.547H290.355V572.527Z" fill="#DDE6F8"/>
<path d="M254.015 612.459H241.994V624.479H254.015V612.459Z" fill="#3E7EFF"/>
<path d="M254.015 652.39H241.994V664.41H254.015V652.39Z" fill="#DDE6F8"/>
<path d="M290.355 652.39H278.334V664.41H290.355V652.39Z" fill="#7DA7FB"/>
<path d="M254.015 692.323H241.994V704.343H254.015V692.323Z" fill="#DDE6F8"/>
<path d="M290.355 692.323H278.334V704.343H290.355V692.323Z" fill="#DDE6F8"/>
<path d="M290.355 732.254H278.334V744.275H290.355V732.254Z" fill="#DDE6F8"/>
<path d="M196.654 612.458H184.633V624.48H196.654V612.458Z" fill="#DDE6F8"/>
<path d="M196.654 692.321H184.633V704.343H196.654V692.321Z" fill="#7DA7FB"/>
<path d="M196.654 732.253H184.633V744.276H196.654V732.253Z" fill="#DDE6F8"/>
<path d="M575.389 332.477H309.19V783.114H575.389V332.477Z" fill="#7DA7FB"/>
<path d="M591.545 307.635H293.035V332.477H591.545V307.635Z" fill="#DDE6F8"/>
<path d="M575.389 300.452H309.19V307.635H575.389V300.452Z" fill="#CEDCF8"/>
<path d="M444.705 231.164H439.873V300.452H444.705V231.164Z" fill="#BBC9E6"/>
<path d="M575.389 332.477H309.19V363.255H575.389V332.477Z" fill="#6792E9"/>
<path d="M575.389 437.442H309.19V468.22H575.389V437.442Z" fill="#6792E9"/>
<path d="M575.389 542.407H309.19V573.184H575.389V542.407Z" fill="#6792E9"/>
<path d="M575.389 647.371H309.19V678.149H575.389V647.371Z" fill="#6792E9"/>
<path d="M575.389 752.335H309.19V783.113H575.389V752.335Z" fill="#6792E9"/>
<path d="M781.784 469.267C806.196 510.89 812.852 540.882 795.678 593.062C786.918 556.552 781.784 469.267 781.784 469.267Z" fill="#A3B2D0"/>
<path d="M797.024 593.062C797.024 624.867 796.911 767.435 796.911 832.554H785.355C778.864 816.411 735.599 623.775 731.209 593.062H797.024Z" fill="#3E64AF"/>
<path d="M785.354 836.783V832.554H796.911C796.999 835.165 797.444 837.752 798.234 840.242C795.232 841.397 790.836 838.417 785.354 836.783Z" fill="#C0D0F0"/>
<path d="M785.354 836.783C790.836 838.417 795.232 841.397 798.234 840.242C799.827 841.397 823.262 849.826 825.648 851.455C828.085 853.129 827.73 855.72 825.147 855.72C821.368 855.72 790.25 854.35 790.25 854.35C789.619 855.034 789.108 855.72 789.108 855.72H781.996C779.874 852.046 780.451 841.011 785.354 836.783Z" fill="#2E5094"/>
<path d="M700.386 836.783V832.554H711.942C712.029 835.165 712.474 837.752 713.265 840.242C710.26 841.397 705.867 838.417 700.386 836.783Z" fill="#C0D0F0"/>
<path d="M700.386 836.783C705.868 838.417 710.26 841.397 713.266 840.242C714.858 841.397 738.293 849.826 740.68 851.455C743.117 853.129 742.761 855.72 740.176 855.72C736.401 855.72 705.28 854.35 705.28 854.35C704.651 855.034 704.141 855.72 704.141 855.72H697.027C694.907 852.046 695.483 841.011 700.386 836.783Z" fill="#2E5094"/>
<path d="M711.792 593.062C711.136 605.129 700.386 767.435 700.386 832.554H711.941C718.43 816.411 773.224 623.775 777.61 593.062H711.792Z" fill="#5279C7"/>
<path d="M711.793 593.063H797.024C794.802 562.253 794.133 483.892 780.001 466.651C763.28 446.251 751.289 448.603 734.899 464.993C712.793 487.097 708.407 567.374 711.793 593.063Z" fill="#DDE6F8"/>
<path d="M765.097 458.37C769.643 465.274 779.408 490.035 780.003 513.652C780.435 530.708 781.599 545.293 782.609 593.063" stroke="#BBC9E6" stroke-width="1.44"/>
<path d="M747.433 433.071C747.939 437.188 748.132 452.846 744.641 457.328C747.157 459.239 760.433 461.927 770.361 457.949C768.23 455.32 764.855 453.548 767.576 448.88C770.539 443.796 775.558 450.63 779.529 442.299C784.166 432.585 785.565 413.426 780.97 408.088C775.829 402.113 765.568 394.808 751.7 402.95C740.381 409.592 746.403 424.704 747.433 433.071Z" fill="#CFDDF8"/>
<path d="M757.87 423.666C761.018 423.714 759.411 415.458 761.722 413.492C764.457 411.169 773.598 409.823 782.459 410.802C791.318 411.775 796.848 400.218 791.188 395.414C785.518 390.612 780.364 397.229 776.138 395.819C771.221 394.176 772.088 388.171 764.775 388.8C758.018 389.38 761.085 395.666 756.792 396.781C752.366 397.93 745.863 392.059 740.457 398.994C736.446 404.141 742.476 407.147 741.834 412.873C741.432 416.447 732.529 427 742.128 431.476C751.736 435.947 749.515 426.134 749.008 422.08C748.505 418.026 750.338 415.353 752.37 415.272C754.391 415.186 753.375 423.605 757.87 423.666Z" fill="#2E5094"/>
<path d="M745.908 453.551C748.26 454.729 762.949 457.306 768.001 454.361C768.961 455.433 769.756 456.642 770.36 457.949C766.84 460.058 753.635 462.296 744.405 457.549C744.992 455.953 745.908 453.551 745.908 453.551Z" fill="#BBC9E6"/>
<path d="M732.555 393.51C741.317 387.743 750.363 388.321 754.982 394.671C759.6 401.022 758.829 404.678 755.174 401.022C756.174 402.266 756.606 409.793 752.6 405.785C747.511 400.697 745.753 407.836 737.484 404.104C734.877 401.497 732.555 393.51 732.555 393.51Z" fill="#CFDDF8"/>
<path d="M744.406 457.549C734.418 460.338 700.689 448.816 698.687 440.982C696.717 433.261 737.501 405.053 737.501 405.053C737.501 400.819 732.033 392.706 732.033 392.706C721.804 396.587 661.097 417.904 670.864 450.648C676.863 470.754 698.77 493.062 718.632 501.056C729.328 490.359 744.406 457.549 744.406 457.549Z" fill="#DDE6F8"/>
<path d="M539.765 685.831C525.512 685.83 511.843 680.168 501.765 670.09C491.687 660.011 486.026 646.342 486.026 632.089C486.026 617.837 491.688 604.168 501.767 594.09C511.845 584.012 525.514 578.35 539.767 578.351L539.765 497.755C513.192 497.755 487.216 505.635 465.121 520.398C443.027 535.161 425.807 556.145 415.638 580.695C405.47 605.245 402.81 632.259 407.995 658.322C413.179 684.384 425.976 708.323 444.767 727.112L539.765 820.194V685.831Z" fill="#0658FC"/>
<path d="M634.777 537.102C622.313 524.607 607.503 514.699 591.198 507.946C574.892 501.194 557.413 497.731 539.765 497.755L539.767 578.351C554.02 578.351 567.689 584.013 577.767 594.091C587.845 604.17 593.506 617.839 593.506 632.092C593.506 646.345 587.843 660.013 577.765 670.091C567.687 680.169 554.017 685.831 539.765 685.831V820.194L634.776 727.112C659.964 701.91 674.113 667.738 674.113 632.107C674.113 596.476 659.965 562.304 634.777 537.102Z" fill="#004FED"/>
<path d="M353.038 855.803L338.822 858.689C338.276 858.799 337.768 859.052 337.351 859.421C336.933 859.79 336.62 860.262 336.443 860.791L331.833 874.544C331.655 875.073 331.62 875.639 331.732 876.186C331.843 876.733 332.096 877.24 332.465 877.658L342.073 888.526C342.442 888.944 342.914 889.257 343.443 889.434C343.971 889.611 344.537 889.646 345.083 889.535L359.298 886.651C359.844 886.54 360.352 886.287 360.769 885.918C361.187 885.549 361.5 885.077 361.678 884.548L366.288 870.792C366.465 870.264 366.5 869.698 366.389 869.152C366.278 868.606 366.025 868.099 365.656 867.681L356.049 856.811C355.679 856.393 355.207 856.08 354.678 855.903C354.15 855.726 353.584 855.692 353.038 855.803Z" fill="#7DA7FB"/>
<path d="M755.23 133.438L761.33 155.165C761.481 155.702 761.77 156.189 762.169 156.579C762.567 156.968 763.062 157.246 763.602 157.384C764.142 157.522 764.709 157.515 765.245 157.364C765.782 157.213 766.27 156.924 766.659 156.524L782.425 140.378C782.815 139.98 783.093 139.486 783.231 138.946C783.369 138.406 783.362 137.839 783.211 137.302C783.061 136.766 782.772 136.278 782.373 135.889C781.974 135.499 781.48 135.222 780.94 135.084L759.07 129.503C758.53 129.365 757.963 129.372 757.427 129.523C756.89 129.673 756.403 129.963 756.014 130.362C755.625 130.76 755.347 131.255 755.21 131.795C755.072 132.335 755.079 132.901 755.23 133.438Z" fill="#3E7EFF"/>
<path d="M79.9601 422.428L64.5438 438.908C64.1628 439.314 63.8956 439.815 63.7692 440.357C63.6428 440.9 63.6616 441.467 63.8237 442C63.9859 442.534 64.2856 443.015 64.6928 443.396C65.1 443.776 65.6002 444.043 66.1432 444.169L88.1239 449.279C88.6668 449.406 89.2335 449.387 89.767 449.225C90.3005 449.063 90.7819 448.764 91.1628 448.357C91.5438 447.95 91.8108 447.449 91.9371 446.906C92.0634 446.363 92.0445 445.797 91.8823 445.263L85.3161 423.673C85.1546 423.14 84.8554 422.658 84.4484 422.277C84.0415 421.895 83.5413 421.628 82.9982 421.502C82.4551 421.376 81.8883 421.395 81.3549 421.557C80.8216 421.72 80.3405 422.02 79.9601 422.428Z" fill="#7DA7FB"/>
</svg>
