<svg width="890" height="657" viewBox="0 0 890 657" fill="none" xmlns="http://www.w3.org/2000/svg">
<path d="M657.15 620.583C657.15 623.521 622.464 625.901 579.677 625.901C536.891 625.901 502.205 623.52 502.205 620.583C502.205 617.646 536.89 615.265 579.677 615.265C622.464 615.266 657.15 617.647 657.15 620.583Z" fill="#606472"/>
<path d="M609.42 359.8C608.824 361.589 573.638 453.43 571.849 455.815C570.06 458.201 574.831 483.845 571.849 506.507C568.867 529.169 560.658 555.601 558.065 580.096C555.472 604.591 538.452 572.981 538.452 572.981C538.452 572.981 535.47 477.88 538.452 456.411C541.434 434.942 575.427 294.114 579.602 287C583.776 279.886 641.501 268.484 649.315 266.134C657.129 263.785 663.689 311.494 660.111 345.487C656.533 379.48 651.639 432.557 649.315 456.412C646.991 480.266 637.079 578.764 637.079 578.764L621.149 589.402L616.378 577.474C616.378 577.474 608.824 477.284 613.595 454.623C618.365 431.961 609.42 359.8 609.42 359.8Z" fill="#587DEE"/>
<path d="M627.53 559.651C623.301 559.686 619.199 560.742 615.33 562.378C615.934 571.601 616.377 577.474 616.377 577.474L621.148 589.402L637.078 578.764C637.078 578.764 637.731 572.267 638.743 562.208C635.258 560.53 631.447 559.618 627.53 559.651ZM548.975 557.723C546.219 557.08 543.317 556.745 540.499 557.15C539.657 557.272 538.836 557.473 538.031 557.731C538.265 567.014 538.452 572.981 538.452 572.981C538.452 572.981 555.472 604.592 558.065 580.096C558.686 574.223 559.636 568.236 560.754 562.218C556.984 560.323 553.074 558.679 548.975 557.723Z" fill="#6486EE"/>
<path d="M504.075 612.758C504.075 612.758 505.091 606.253 509.887 603.221C514.682 600.19 529.241 586.946 532.579 580.552C535.917 574.159 535.003 568.451 535.003 568.451C535.003 568.451 542.538 566.852 547.105 568.451C551.672 570.049 550.759 577.584 551.444 579.411C552.129 581.237 558.066 580.096 558.066 580.096C558.066 580.096 559.664 594.709 558.979 604.071C558.294 613.433 539.973 615.031 532.123 616.173C524.271 617.315 504.075 612.758 504.075 612.758Z" fill="white"/>
<path d="M559.473 603.222C559.473 603.222 553.843 605.474 550.015 605.699C546.186 605.924 538.98 611.779 532.675 612.455C526.369 613.13 524.792 611.104 516.235 611.104C507.678 611.104 504.074 612.759 504.074 612.759C504.074 612.759 504.3 619.74 505.2 621.092C506.101 622.443 525.243 623.94 533.125 622.589C541.007 621.238 554.519 622.139 558.122 621.238C561.725 620.336 559.473 603.222 559.473 603.222Z" fill="#DFDFDF"/>
<path d="M505.201 621.091C506.102 622.442 525.244 623.939 533.126 622.588C533.126 622.588 522.963 621.177 514.014 620.383C505.478 619.626 505.201 621.091 505.201 621.091Z" fill="black"/>
<path d="M652.796 610.912C652.796 610.912 652.795 606.981 650.172 603.714C648.056 601.079 641.027 593.576 639.835 585.624C638.642 577.673 639.835 571.311 639.636 569.92C639.437 568.528 625.72 565.561 622.142 567.74C618.564 569.92 619.16 577.076 618.564 577.871C617.968 578.666 616.377 577.473 616.377 577.473C616.377 577.473 614.557 595.16 614.588 600.732C614.62 606.303 620.552 613.852 625.919 614.448C631.287 615.045 652.796 610.912 652.796 610.912Z" fill="white"/>
<path d="M614.588 600.732C614.588 600.732 617.172 602.927 619.359 603.619C621.546 604.311 621.202 609.731 626.172 610.668C631.141 611.605 633.836 609.7 640.794 609.445C647.751 609.189 652.796 610.912 652.796 610.912C652.796 610.912 653.75 620.254 652.955 620.83C652.16 621.406 625.721 620.851 621.148 620.83C616.576 620.81 615.781 619.816 615.185 619.021C614.588 618.226 614.588 600.732 614.588 600.732Z" fill="#DFDFDF"/>
<path d="M644.803 618.226C639.436 618.425 621.147 620.83 621.147 620.83C625.72 620.851 652.159 621.407 652.954 620.83C652.972 620.817 652.99 620.797 653.008 620.776C651.728 619.663 648.908 618.074 644.803 618.226Z" fill="black"/>
<path d="M607.97 349.249C602.34 361.444 596.711 373.64 591.316 385.94C585.981 398.106 580.871 410.376 576.229 422.824C573.593 429.896 571.11 437.024 568.82 444.215C568.591 444.933 569.718 445.24 569.946 444.526C573.99 431.829 578.639 419.334 583.656 406.992C588.677 394.642 594.065 382.444 599.579 370.307C602.685 363.472 605.832 356.655 608.978 349.838C609.291 349.16 608.285 348.567 607.97 349.249ZM569.183 479.28C568.491 472.953 567.554 466.653 566.377 460.397C566.238 459.659 565.113 459.972 565.251 460.708C567.331 471.771 568.649 482.97 569.189 494.214C569.667 504.169 569.538 514.152 568.807 524.091C569.399 521.181 569.951 518.306 570.451 515.473C570.479 514.745 570.512 514.017 570.534 513.289C570.868 501.94 570.418 490.567 569.183 479.28ZM652.311 320.694C646.796 311.836 643.889 301.308 644.452 290.889C644.562 288.856 642.052 289.573 642.058 291.453C642.093 302.086 644.357 312.884 650.077 321.847C651.464 324.021 653.288 322.263 652.311 320.694Z" fill="#4366CF"/>
<path d="M609.297 348.039C609.158 345.254 608.698 341.996 608.546 339.214C608.512 338.586 608.108 338.046 607.461 338.046C607.11 338.046 606.508 338.766 606.542 339.398C607.078 349.185 607.458 358.802 607.818 368.612C607.92 371.401 608.016 374.191 608.104 376.982C608.152 378.477 610.694 378.544 610.647 377.039C610.336 367.225 609.783 357.834 609.297 348.039Z" fill="#C5CEEB"/>
<path d="M654.785 270.494C651.192 260.322 651.823 249.4 650.682 238.824C650.365 235.885 649.911 232.962 649.212 230.09C649.035 229.36 647.908 229.668 648.086 230.4C650.618 240.811 649.79 251.639 651.501 262.168C651.979 265.103 652.668 267.999 653.659 270.805C653.907 271.508 655.036 271.206 654.785 270.494Z" fill="white"/>
<path d="M555.314 168.918C555.173 159.932 554.766 152.986 555.832 148.897C556.899 144.808 554.943 141.274 553.798 138.624C552.652 135.973 552.288 132.861 552.035 130.609C551.783 128.356 549.347 128.057 548.377 130.156C547.407 132.254 547.067 135.153 545.954 135.865C544.842 136.577 537.651 129.374 536.925 127.505C536.199 125.636 531.397 119.579 529.332 119.763C527.269 119.947 525.128 117.206 523.391 117.425C521.654 117.644 522.694 120.098 522.694 120.098C522.694 120.098 521.667 120.172 521.996 122.774C522.325 125.377 527.318 131.787 527.07 133.381C526.822 134.976 523.074 127.085 519.862 128.095C516.65 129.104 533.651 147.644 536.112 151.731C538.574 155.817 536.122 176.736 536.122 176.736C539.442 177.494 555.455 177.904 555.314 168.918Z" fill="#6486EE"/>
<path d="M525.645 131.917C525.98 131.581 526.596 132.228 526.932 132.563C528.586 134.21 530.191 135.21 531.845 136.857C533.896 135.08 536.395 133.836 539.068 133.339C539.532 133.253 540.012 133.462 540.148 133.946C540.267 134.369 540.009 134.939 539.541 135.026C536.959 135.506 534.609 136.667 532.718 138.41C532.392 138.71 531.347 139.008 530.747 138.236C529.272 136.343 527.97 135.039 526.27 133.345C525.936 133.011 525.311 132.251 525.645 131.917ZM542.013 142.127C542.6 141.125 543.385 140.251 543.982 139.25C544.599 138.217 545.105 137.129 545.498 135.992C545.865 134.933 546.788 134.783 546.419 135.85C545.677 137.993 545.358 140.427 544.034 142.253C543.386 143.146 542.965 144.055 542.916 145.172C542.867 146.276 543.053 147.368 543.252 148.45C543.456 149.552 541.77 150.033 541.566 148.924C541.146 146.656 540.787 144.22 542.013 142.127Z" fill="#5E7FE4"/>
<path d="M588.803 201.418C588.803 201.418 569.032 211.76 565.653 212.938C562.273 214.115 557.436 179.933 556.63 171.226C556.63 171.226 556.227 168.244 549.575 166.187C542.924 164.13 534.862 164.873 534.257 166.013C533.653 167.154 533.653 204.844 534.257 221.17C534.862 237.496 540.304 251 550.381 254.225C560.459 257.45 592.707 239.915 596.739 237.698C600.77 235.48 599.008 202.627 588.803 201.418Z" fill="#486FE5"/>
<path d="M566.995 218.573C564.984 213.782 563.958 208.603 562.706 203.578C561.405 198.36 560.104 193.141 558.804 187.923C558.532 186.831 556.878 187.412 557.149 188.5C558.449 193.718 559.75 198.937 561.051 204.155C562.303 209.18 563.33 214.359 565.34 219.15C565.774 220.184 567.433 219.616 566.995 218.573Z" fill="#274CB9"/>
<path d="M635.359 113.205V112.156C635.359 112.156 625.369 114.144 619.735 120.717C617.538 123.28 616.914 125.403 616.814 128.369C616.433 130.048 616.261 131.802 616.007 133.439C615.427 137.173 614.847 140.908 614.267 144.643C613.26 151.12 612.045 158.257 615.528 164.235C617.096 166.926 619.494 169.108 622.516 169.994C623.601 170.312 624.064 168.622 622.982 168.305C617.531 166.706 615.156 160.728 614.967 155.526C614.843 152.122 615.39 148.747 615.911 145.396C616.291 142.949 616.671 140.502 617.051 138.056C617.099 141.954 616.965 146.908 616.213 153.474C615.356 160.952 622.497 169.336 635.582 168.867C645.953 168.495 635.359 113.205 635.359 113.205Z" fill="#2C4180"/>
<path d="M632.177 157.465C632.177 157.465 635.692 176.246 633.817 181.646C631.943 187.046 626.049 195.966 626.049 195.966L657.062 180.002C657.062 180.002 651.692 164.821 652.658 151.242C653.624 137.663 632.177 157.465 632.177 157.465Z" fill="#6486EE"/>
<path d="M638.152 170.97C643.105 169.352 646.534 165.322 648.561 160.66C649.259 159.054 649.798 157.36 650.234 155.648C650.553 153.781 650.771 151.896 650.924 150.011C651.012 148.935 651.078 147.857 651.137 146.78C646.356 144.374 632.178 157.465 632.178 157.465C632.178 157.465 633.584 164.985 634.143 171.876C635.498 171.678 636.852 171.395 638.152 170.97Z" fill="black"/>
<path d="M622.806 160.069C622.806 160.069 619.056 153.508 619.927 141.137C620.799 128.767 627.881 117.823 632.648 115.849C637.414 113.876 638.058 114.156 642.552 113.896C647.454 113.613 649.456 117.428 652.023 120.39C654.589 123.351 654.51 127.869 654.51 133.849C654.51 136.696 656.385 138.721 656.385 138.721C656.385 138.721 663.121 136.325 664.306 140.076C665.491 143.826 659.992 151.993 656.241 152.782C652.49 153.571 653.99 150.255 652.658 151.243C651.326 152.23 649.458 162.087 639.981 165.063C634.414 166.81 626.014 165.638 622.806 160.069Z" fill="#6486EE"/>
<path d="M634.286 115.198C634.286 115.198 638.716 118.495 637.681 129.293C636.647 140.093 644.928 154.878 647.202 156.057C647.202 156.057 648.141 163.592 651.427 165.811C654.714 168.029 667.626 159.813 669.974 156.996C672.321 154.179 676.312 151.597 673.025 136.572C669.739 121.547 662.226 111.452 649.314 110.513C636.403 109.574 634.286 115.198 634.286 115.198Z" fill="#2C4180"/>
<path d="M626.073 118.26C626.073 118.26 626.046 118.648 626.049 119.291C625.715 119.292 625.41 119.48 625.346 119.922C624.847 123.371 624.763 127.002 626.585 130.107C628.155 132.781 630.751 134.692 633.466 136.087C634.468 136.601 635.355 135.09 634.351 134.574C631.963 133.348 629.642 131.735 628.211 129.411C627.384 128.067 626.981 126.589 626.836 125.069C627.556 127.578 628.916 130.166 631.473 131.641C637.577 135.162 642.507 137.609 645.089 139.085C647.672 140.562 649.315 110.513 649.315 110.513C649.315 110.513 628.857 108.782 626.073 118.26Z" fill="#2C4180"/>
<path d="M623.446 145.031C623.299 144.6 623.018 144.224 622.624 143.987C622.485 143.904 622.327 143.843 622.163 143.843C621.907 143.844 621.689 143.982 621.549 144.189C621.403 144.406 621.349 144.685 621.329 144.941C621.328 144.948 621.33 144.953 621.329 144.96C621.319 145.054 621.315 145.148 621.315 145.242C621.312 145.262 621.308 145.282 621.306 145.302C621.287 145.534 621.333 145.778 621.371 146.005C621.408 146.227 621.459 146.451 621.536 146.664C621.651 146.985 621.849 147.259 622.196 147.351C622.503 147.432 622.822 147.311 623.04 147.092C623.214 146.918 623.33 146.69 623.406 146.458C623.483 146.226 623.535 145.954 623.522 145.71C623.546 145.478 623.515 145.234 623.446 145.031ZM638.47 143.594C638.431 143.416 638.245 143.038 638.23 143.015C638.141 142.854 638.031 142.705 637.889 142.59C637.701 142.437 637.481 142.332 637.252 142.302C637.188 142.28 637.121 142.267 637.051 142.269C636.83 142.273 636.631 142.383 636.49 142.547C636.293 142.731 636.178 142.984 636.086 143.242C635.971 143.56 635.898 143.903 635.895 144.241C635.887 144.937 636.234 145.708 636.899 146.002C637.122 146.101 638.084 146.166 638.432 145.374C638.511 145.194 638.62 144.717 638.622 144.657C638.637 144.071 638.48 143.641 638.47 143.594Z" fill="#1A1A1A"/>
<path d="M640.407 138.518C639.634 138.175 638.875 137.803 638.131 137.401C637.771 137.206 637.421 136.992 637.061 136.797C636.552 136.523 636.059 136.394 635.483 136.498C635.031 136.58 634.735 137.154 634.872 137.576C635.019 138.031 635.416 138.239 635.866 138.19C635.871 138.191 635.879 138.192 635.887 138.194C635.844 138.2 635.855 138.201 635.911 138.2C635.953 138.214 636.021 138.237 636.028 138.235C636.169 138.301 636.305 138.382 636.44 138.461C636.777 138.656 637.117 138.845 637.46 139.028C638.135 139.387 638.824 139.721 639.523 140.031C639.941 140.216 640.483 140.166 640.721 139.716C640.922 139.335 640.854 138.716 640.407 138.518ZM623.819 137.197C623.558 136.793 623.048 136.642 622.62 136.882C621.198 137.683 620.041 138.856 618.918 140.02C618.599 140.35 618.565 140.935 618.918 141.259C619.262 141.575 619.817 141.611 620.157 141.259C620.689 140.707 621.222 140.156 621.793 139.644C621.929 139.521 622.068 139.401 622.209 139.284C622.279 139.226 622.351 139.168 622.422 139.111C622.428 139.106 622.43 139.105 622.435 139.101C622.468 139.075 622.501 139.05 622.535 139.025C622.845 138.796 623.168 138.584 623.505 138.395C623.904 138.17 624.072 137.59 623.819 137.197Z" fill="#2C4180"/>
<path d="M629.707 153.458L629.587 153.304C629.492 153.209 629.38 153.144 629.251 153.107C628.932 153.055 628.617 152.986 628.304 152.903C628.203 152.872 628.101 152.867 628 152.89C627.898 152.894 627.804 152.924 627.716 152.98C627.628 153.028 627.556 153.094 627.502 153.177C627.435 153.25 627.389 153.337 627.366 153.437C627.321 153.632 627.331 153.851 627.443 154.024C627.55 154.191 627.703 154.323 627.898 154.375C628.21 154.458 628.526 154.527 628.845 154.579C628.946 154.611 629.048 154.616 629.149 154.593C629.251 154.588 629.345 154.558 629.433 154.502C629.522 154.454 629.593 154.389 629.647 154.306C629.715 154.232 629.76 154.146 629.784 154.046C629.828 153.851 629.819 153.631 629.707 153.458Z" fill="#5576D9"/>
<path d="M627.341 157.867L634.286 156.851C634.286 156.851 634.927 160.428 633.205 161.665C631.482 162.902 627.341 157.867 627.341 157.867Z" fill="white"/>
<path d="M628.872 185.045C628.872 185.045 631.35 177.036 632.177 177.479C633.004 177.922 634.899 179.188 638.234 178.397C647.825 176.121 654.391 168.032 655.85 167.789C657.308 167.546 666.438 174.069 666.438 174.069L628.872 185.045Z" fill="#486FE5"/>
<path d="M591.197 169.281C591.197 169.281 580.837 154.442 580.038 152.853C579.239 151.264 583.376 142.116 583.595 138.924C583.814 135.731 584.69 131.52 585.22 129.349C585.75 127.178 582.425 127.744 581.296 128.683C580.168 129.622 577.999 135.067 577.478 135.14C576.958 135.213 573.199 121.739 572.071 117.923C570.943 114.106 569.746 111.642 568.724 111.953C567.702 112.264 567.084 109.252 565.461 109.3C563.838 109.347 564.8 111.287 563.778 111.598C562.757 111.909 561.211 113.406 561.11 115.9C561.01 118.395 561.01 118.395 561.01 118.395C561.01 118.395 559.337 117.787 558.961 120.953C558.585 124.119 557.149 132.995 557.119 138.876C557.09 144.758 562.213 155.478 563.62 157.655C565.027 159.832 576.316 182.741 576.811 183.633C577.306 184.525 591.197 169.281 591.197 169.281Z" fill="#6486EE"/>
<path d="M562.337 121.338C563.074 125.887 563.222 130.505 562.813 135.095C562.715 136.195 561.024 135.902 561.121 134.808C561.517 130.371 562.043 125.717 561.331 121.32C561.155 120.227 562.162 120.252 562.337 121.338ZM577.377 134.048C577.83 133.899 578.3 134.105 578.483 134.548C579.154 136.174 579.825 137.8 580.496 139.426C580.667 139.841 580.427 140.39 579.996 140.531C579.543 140.681 579.074 140.475 578.891 140.031C578.219 138.405 577.548 136.78 576.877 135.154C576.706 134.739 576.946 134.19 577.377 134.048Z" fill="#5E7FE4"/>
<path d="M670.189 174.638C664.842 172.252 657.062 173.38 657.062 173.38C657.062 173.38 639.809 181.157 632.177 182.372C624.545 183.588 616.963 181.643 611.037 186.261C610.35 186.797 609.456 187.645 608.412 188.741C605.002 184.615 587.956 163.785 584.099 154.98C579.807 145.185 568.722 168.391 568.924 173.113C569.125 177.836 579.166 188.633 583.017 195.528C585.242 199.51 588.537 205.087 591.925 210.247C586.927 217.914 582.775 225.675 581.965 230.738C580.021 242.889 586.582 249.209 582.451 262.576C578.319 275.943 575.645 278.859 574.187 282.262C572.729 285.665 574.995 293.578 574.995 293.578C574.995 293.578 576.546 296.165 589.985 296.115C603.424 296.066 639.808 286.637 647.733 285.422C655.658 284.206 658.608 289.577 658.608 289.577C658.608 289.577 663.869 287.123 662.41 278.374C660.952 269.624 654.63 260.939 657.061 254.62C659.491 248.301 670.893 226.989 670.844 219.697C670.795 212.406 675.778 207.163 677.722 195.967C679.667 184.771 675.536 177.025 670.189 174.638Z" fill="#486FE5"/>
<path d="M660.452 173.669C657.388 173.566 654.521 174.727 651.897 176.209C649.095 177.79 646.437 179.621 643.659 181.245C637.976 184.567 632.071 187.523 625.994 190.056C624.254 190.781 622.502 191.483 620.733 192.131C619.051 192.748 615.849 193.102 614.933 192.636C605.963 184.558 598.767 175.064 592.259 164.891C590.166 161.62 588.263 158.045 586.458 154.607C585.934 153.608 584.194 155.027 584.718 156.025C591.204 168.383 599.094 179.639 609.011 189.461C611.829 192.252 614.773 194.915 617.825 197.449C618.687 198.163 619.933 196.931 619.064 196.21C618.471 195.717 617.883 195.218 617.299 194.716C619.712 194.689 622.2 193.462 624.335 192.611C627.415 191.383 630.456 190.056 633.45 188.63C639.474 185.759 645.183 182.407 650.84 178.881C653.757 177.063 656.91 175.301 660.452 175.42C661.579 175.459 661.578 173.707 660.452 173.669Z" fill="#DFE6FD"/>
<path d="M665.542 228.524C659.942 229.363 654.633 226.702 649.852 224.028C655.229 222.631 660.559 221.058 665.832 219.307C666.897 218.954 666.441 217.262 665.367 217.618C652.472 221.898 639.235 225.132 625.816 227.26C622.493 227.787 619.159 228.246 615.817 228.634C612.732 228.993 609.464 229.558 606.648 227.897C604.103 226.395 602.213 223.864 600.357 221.621C598.317 219.154 596.356 216.622 594.479 214.028C590.222 208.144 586.394 201.956 583.017 195.527C582.492 194.529 580.98 195.413 581.504 196.412C584.594 202.292 588.058 207.971 591.886 213.399C593.766 216.066 595.732 218.671 597.776 221.214C599.698 223.606 601.626 226.176 604 228.144C605.089 229.047 606.28 229.804 607.623 230.269C609.196 230.813 610.9 230.851 612.544 230.73C615.936 230.479 619.328 229.976 622.693 229.492C629.601 228.5 636.466 227.216 643.266 225.647C644.921 225.265 646.569 224.863 648.216 224.447C653.588 227.484 659.478 230.606 665.852 229.65C666.593 229.539 666.278 228.413 665.542 228.524ZM588.691 216.872C589.223 215.878 587.711 214.992 587.178 215.988C584.176 221.593 581.06 227.582 581.33 234.128C581.47 237.548 582.41 240.861 582.944 244.227C583.456 247.453 583.514 250.756 583.177 254.004C582.795 257.693 581.844 261.35 580.392 264.763C580.206 265.201 580.265 265.696 580.707 265.961C581.073 266.181 581.72 266.082 581.905 265.647C584.468 259.623 585.577 253.023 584.978 246.492C584.667 243.108 583.762 239.834 583.296 236.476C582.841 233.196 583.15 229.997 584.137 226.842C585.232 223.343 586.967 220.092 588.691 216.872ZM656.58 275.132C652.825 271.914 647.686 271.102 642.891 271.619C637.025 272.251 631.444 274.427 625.673 275.57C622.664 276.166 619.623 276.595 616.567 276.854C613.823 277.085 611.056 277.101 608.333 277.541C606.999 277.757 605.689 278.094 604.441 278.617C603.198 279.137 602.078 279.876 600.893 280.508C598.259 281.912 595.417 281.87 592.533 281.457C587.771 280.774 581.556 279.3 577.95 283.582C577.468 284.153 578.291 284.983 578.776 284.408C581.939 280.651 587.5 281.857 591.7 282.504C594.217 282.892 596.846 283.177 599.327 282.432C601.887 281.663 603.946 279.843 606.541 279.121C609.084 278.412 611.741 278.336 614.361 278.179C617.225 278.006 620.08 277.697 622.914 277.245C625.799 276.784 628.656 276.167 631.479 275.415C634.195 274.692 636.89 273.876 639.646 273.309C645.048 272.198 651.331 272.166 655.754 275.957C656.322 276.445 657.152 275.623 656.58 275.132Z" fill="#274CB9"/>
<g clip-path="url(#clip0_271_19)">
<path d="M319.975 124.558C319.975 124.558 319.7 136.8 318.746 138.724C317.755 140.724 317.364 141.206 310.535 142.09C305.038 142.8 315.367 162.044 333.95 158.067C352.533 154.09 356.4 142.09 356.4 142.09C356.4 142.09 352.828 140.652 350.524 139.226C348.221 137.799 346.851 135.972 346.083 132.289C345.316 128.607 345.009 120.947 345.009 120.947L319.975 124.558Z" fill="#7898D7"/>
<path d="M318.986 119.632C318.986 119.632 320.624 137.627 333.001 137.728C345.379 137.83 345.697 125.631 346.121 123.343C346.545 121.056 318.986 119.632 318.986 119.632Z" fill="#0C1528"/>
<path d="M309.61 80.5296C309.61 80.5296 309.251 81.2607 308.817 82.4278C307.599 81.0152 306.723 79.3417 306.448 77.505C306.107 75.2223 306.782 72.7973 308.401 71.0766C309.205 70.2225 307.888 68.9515 307.081 69.8098C305.122 71.8913 304.224 74.7349 304.579 77.5152C304.915 80.1402 306.255 82.5275 308.165 84.4053C307.611 86.3154 307.148 88.6926 307.326 90.9921C307.716 96.0223 311.357 96.6387 311.357 96.6387L316.481 84.0488L309.61 80.5296Z" fill="#213A6D"/>
<path d="M353.094 96.0036C353.094 96.0036 356.615 93.6981 358.7 97.5237C360.785 101.349 356.033 111.129 351.86 111.59C347.789 112.04 353.094 96.0036 353.094 96.0036Z" fill="#7898D7"/>
<path d="M354.235 100.61C354.931 100.533 355.867 102.458 355.947 103.125C356.027 103.792 354.181 106.025 354.181 106.025C354.181 106.025 353.539 100.687 354.235 100.61Z" fill="#6085CF"/>
<path d="M311.198 101.721C311.198 101.721 307.516 100.248 306.393 104.429C305.27 108.609 311.245 116.815 314.869 116.474C318.947 116.089 311.198 101.721 311.198 101.721Z" fill="#7898D7"/>
<path opacity="0.71" d="M311.22 106.878C310.525 106.955 310.069 109.034 310.15 109.701C310.23 110.368 312.557 112.139 312.557 112.139C312.557 112.139 311.916 106.801 311.22 106.878Z" fill="#6085CF"/>
<path d="M319.537 82.0492C313.132 85.5802 307.721 92.2613 310.241 101.245C310.803 105.915 317.4 129.905 328.378 132.526C339.619 135.209 346.295 130.036 349.825 123.609C352.149 119.378 352.702 114.126 353.16 109.443C353.593 105.014 353.781 101.124 353.432 96.6973C351.655 74.1687 326.778 77.6276 319.537 82.0492Z" fill="#7898D7"/>
<path d="M353.432 96.6978C352.769 88.2906 348.888 83.5034 343.908 81.0337L343.908 81.048C343.908 81.048 349.539 87.0841 351.209 99.1914C352.879 111.298 345.935 114.812 344.544 112.953C343.153 111.093 336.662 115.199 335.137 115.281C333.613 115.363 327.354 112.644 325.926 113.699C324.497 114.753 324.586 115.775 322.634 116.484C320.681 117.193 315.824 113.878 313.907 106.487C311.99 99.0964 313.424 90.6086 316.48 85.9122C317.15 84.8837 317.341 84.0923 317.179 83.5309C311.895 87.2991 308.038 93.3919 310.241 101.245C310.803 105.915 317.4 129.905 328.378 132.526C339.619 135.209 346.295 130.036 349.824 123.608C352.148 119.377 352.701 114.126 353.159 109.443C353.593 105.014 353.781 101.125 353.432 96.6978Z" fill="#213A6D"/>
<path d="M331.611 110.806C331.621 110.242 332.132 109.76 332.725 109.776C333.308 109.791 333.891 109.806 334.475 109.822C335.065 109.837 335.559 110.319 335.549 110.89C335.539 111.454 335.028 111.935 334.436 111.92C333.852 111.904 333.269 111.889 332.686 111.874C332.095 111.858 331.602 111.376 331.611 110.806Z" fill="#6085CF"/>
<path d="M327.636 117.812C327.735 118.073 335.549 119.378 342.641 115.863C342.641 115.863 341.399 122.525 336.649 124.106C331.898 125.687 327.636 117.812 327.636 117.812Z" fill="white"/>
<path d="M323.97 96.7493C323.637 96.2542 322.825 95.9227 322.265 96.3211C320.542 97.5473 318.819 98.7735 317.096 99.9997C316.826 100.191 316.616 100.392 316.523 100.713C316.441 101 316.478 101.38 316.649 101.634C316.982 102.129 317.794 102.46 318.353 102.062C320.077 100.836 321.8 99.6097 323.523 98.3835C323.793 98.1918 324.003 97.9923 324.096 97.6697C324.177 97.3836 324.14 97.0026 323.97 96.7493ZM346.495 94.2557C346.465 94.2527 346.32 94.2342 346.317 94.2354C346.298 94.2324 346.283 94.23 346.281 94.23C346.145 94.2085 346.01 94.1829 345.876 94.1548C345.608 94.0981 345.343 94.0276 345.081 93.9446C344.936 93.8986 344.792 93.8484 344.65 93.7952C344.636 93.7899 344.588 93.7702 344.555 93.757C344.524 93.7433 344.494 93.7301 344.484 93.7253C344.22 93.6077 343.963 93.4775 343.713 93.3341C343.476 93.198 343.254 93.0451 343.027 92.8951C343.023 92.8928 343.023 92.8927 343.02 92.891C342.974 92.8551 342.928 92.8193 342.882 92.7829C342.765 92.6891 342.65 92.5917 342.539 92.4914C342.338 92.311 342.147 92.1211 341.966 91.9228C341.916 91.8678 341.866 91.8117 341.818 91.7549C341.799 91.7323 341.779 91.7096 341.76 91.6869C341.703 91.6188 341.721 91.6415 341.814 91.7555C341.757 91.7561 341.582 91.4456 341.548 91.3972C341.183 90.8805 340.435 90.6028 339.844 90.9683C339.308 91.2998 339.006 92.0494 339.397 92.6025C341.028 94.9133 343.608 96.3641 346.496 96.6454C347.146 96.7087 347.769 96.0505 347.741 95.4509C347.708 94.7491 347.192 94.3238 346.495 94.2557Z" fill="#213A6D"/>
<path d="M324.24 105.128C324.206 104.963 324.125 104.796 324.023 104.643C323.945 104.482 323.85 104.327 323.714 104.21C323.537 104.055 323.324 103.931 323.095 103.85C322.727 103.655 322.253 103.675 321.894 103.873C321.753 103.951 321.615 104.049 321.511 104.17C321.442 104.25 321.39 104.315 321.345 104.378C321.32 104.41 321.299 104.441 321.283 104.468C321.281 104.471 321.279 104.474 321.278 104.477C321.263 104.501 321.247 104.531 321.234 104.56C321.196 104.634 321.161 104.714 321.121 104.822C321.083 104.928 321.068 105.043 321.058 105.156C321.009 105.312 320.978 105.474 320.978 105.627C320.978 105.646 320.979 105.663 320.981 105.681C320.992 105.8 321.007 105.926 321.032 106.042C321.062 106.177 321.134 106.314 321.194 106.432C321.202 106.448 321.212 106.464 321.222 106.479C321.285 106.575 321.366 106.67 321.442 106.756C321.534 106.859 321.658 106.945 321.775 107.014C322.013 107.155 322.348 107.247 322.628 107.223C322.952 107.195 323.077 107.167 323.368 107.029C323.506 106.964 323.629 106.863 323.741 106.765C323.976 106.559 324.104 106.301 324.211 106.021C324.262 105.89 324.276 105.695 324.287 105.582C324.302 105.435 324.267 105.262 324.24 105.128ZM345.562 102.906C345.55 102.773 345.534 102.638 345.504 102.507C345.5 102.488 345.494 102.469 345.488 102.451C345.435 102.308 345.38 102.157 345.294 102.028C345.123 101.769 344.911 101.546 344.631 101.391C344.38 101.251 344.105 101.178 343.814 101.175C343.672 101.173 343.526 101.19 343.39 101.23C343.387 101.232 343.384 101.233 343.381 101.234C343.271 101.279 343.16 101.324 343.049 101.368C343.036 101.374 343.026 101.381 343.015 101.389C342.749 101.565 342.668 101.635 342.488 101.895C342.412 102.003 342.359 102.131 342.325 102.254C342.289 102.383 342.274 102.516 342.269 102.648C342.267 102.696 342.284 102.736 342.288 102.781C342.285 102.798 342.283 102.811 342.28 102.829C342.274 102.878 342.251 102.978 342.254 103.046C342.261 103.176 342.283 103.305 342.308 103.433C342.31 103.446 342.314 103.459 342.319 103.472C342.365 103.593 342.411 103.716 342.477 103.828C342.546 103.947 342.635 104.063 342.741 104.155C342.787 104.196 342.864 104.247 342.895 104.27C342.922 104.29 342.997 104.351 343.05 104.383C343.162 104.453 343.296 104.498 343.419 104.536C343.566 104.582 343.726 104.603 343.88 104.596C344.237 104.579 344.357 104.534 344.673 104.394C344.807 104.334 344.935 104.221 345.036 104.137C345.051 104.125 345.065 104.112 345.078 104.097C345.166 103.999 345.253 103.899 345.324 103.79C345.364 103.729 345.394 103.641 345.419 103.585C345.444 103.529 345.487 103.45 345.504 103.381C345.536 103.248 345.55 103.111 345.562 102.975C345.565 102.952 345.563 102.93 345.562 102.906Z" fill="#0C1528"/>
<path d="M324.291 88.3204C324.291 88.3204 312.916 89.7437 309.061 81.8137C305.207 73.8837 309.235 69.004 314.958 68.1905C320.682 67.377 315.247 68.8003 316.481 70.0205C317.715 71.2408 328.526 69.207 337.854 69.6138C347.181 70.0205 347.741 76.9334 347.741 76.9334C347.741 76.9334 348.608 77.2141 349.88 79.8104C351.151 82.4062 351.785 86.4509 350.764 87.4101C347.338 83.9441 345.273 82.3142 341.034 81.0468C336.794 79.7806 334.896 87.9136 324.291 88.3204Z" fill="#213A6D"/>
<path d="M350.094 630.712C391.592 630.712 425.233 628.514 425.233 625.803C425.233 623.093 391.592 620.895 350.094 620.895C308.595 620.895 274.954 623.093 274.954 625.803C274.954 628.514 308.595 630.712 350.094 630.712Z" fill="#3C6AC5"/>
<path d="M285.078 565.965C285.078 565.965 282.448 584.321 282.274 588.015C282.099 591.708 276.249 613.481 276.126 616.085C276.003 618.688 276.254 625.365 277.782 626.011C279.311 626.658 306.418 628.707 318.745 626.056C318.745 626.056 319.128 617.957 319.197 616.511C319.265 615.065 310.975 595.545 310.254 589.246C309.534 582.948 311.033 561.376 311.776 557.641C312.521 553.904 285.078 565.965 285.078 565.965Z" fill="#7898D7"/>
<path d="M276.218 615.35C276.218 615.35 276.814 610.437 277.675 606.376C278.535 602.314 279.597 596.306 280.562 596.643C281.527 596.979 286.437 596.305 286.445 593.3C286.454 590.294 296.119 590.783 302.991 591.014C309.862 591.244 306.43 594.739 310.043 596.223C313.656 597.707 314.137 600.167 315.516 602.567C316.895 604.968 318.294 606.963 318.864 609.633C319.435 612.304 319.197 616.51 319.197 616.51C319.197 616.51 315.21 619.549 301.875 619.478C288.54 619.406 275.798 618.415 276.218 615.35Z" fill="#5F84CF"/>
<path d="M276.218 615.35C276.218 615.35 280.701 616.867 297.889 617.615C315.076 618.363 319.197 616.51 319.197 616.51L319.087 615.83C319.087 615.83 319.928 615.424 320.054 616.603C320.18 617.782 320.147 626.121 319.581 626.591C319.015 627.06 310.826 628.271 297.652 627.995C284.479 627.719 276.616 626.637 276.08 625.193C275.544 623.748 275.347 615.124 276.218 615.35Z" fill="#E0E7F6"/>
<path d="M316.605 617.979C310.933 619.043 305.161 618.846 299.433 618.659C293.584 618.467 287.722 618.249 281.944 617.265C281.205 617.139 281.155 618.334 281.887 618.458C287.76 619.459 293.719 619.667 299.664 619.861C305.402 620.049 311.18 620.209 316.86 619.144C317.601 619.005 317.346 617.84 316.605 617.979Z" fill="white"/>
<path d="M379.459 567.425C379.459 567.425 386.087 584.093 386.087 587.791C386.087 591.489 379.459 614.209 379.459 616.815C379.459 619.421 380.026 626.081 381.583 626.659C383.141 627.238 410.316 628.107 422.506 624.922C422.506 624.922 422.506 616.815 422.506 615.367C422.506 613.92 412.722 594.052 411.704 587.791C410.687 581.531 408.063 561.345 408.629 557.581C409.195 553.817 379.459 567.425 379.459 567.425Z" fill="#7898D7"/>
<path d="M379.459 616.815C379.459 616.815 379.238 614.498 381.599 602.705C383.212 594.647 387.77 596.063 388.885 591.97C390.001 587.877 400.022 587.513 405.591 587.92C411.16 588.327 410.203 591.976 412.91 593.696C415.617 595.416 415.209 594.426 417.162 598.289C419.114 602.153 422.117 612.113 422.505 615.367C422.894 618.622 386.936 625.174 379.459 616.815Z" fill="#5F84CF"/>
<path d="M379.459 616.815C379.459 616.815 385.076 618.155 401.055 617.832C417.033 617.508 422.506 615.367 422.506 615.367L422.315 614.524C422.315 614.524 423.36 614.317 423.483 615.073C423.606 615.829 423.421 624.462 423.175 625.155C422.928 625.849 415.339 627.928 400.983 627.928C386.626 627.928 381.263 627.739 380.586 626.478C379.907 625.218 378.34 616.612 379.459 616.815Z" fill="#E0E7F6"/>
<path d="M393.065 618.884C390.644 619.003 388.218 618.955 385.803 618.743C385.054 618.677 385.059 619.872 385.803 619.937C388.218 620.15 390.644 620.197 393.065 620.079C393.814 620.042 393.818 618.848 393.065 618.884ZM417.515 617.683C410.881 618.456 404.21 618.841 397.534 618.852C396.785 618.853 396.738 620.047 397.492 620.046C404.273 620.035 411.047 619.63 417.784 618.846C418.529 618.759 418.255 617.597 417.515 617.683Z" fill="white"/>
<path d="M400.362 300.892C400.362 300.892 410.907 464.333 412.936 579.864C412.936 579.864 405.611 585.215 388.248 587.557C374.116 589.463 373.06 588.446 371.617 584.989C370.225 581.653 344.296 362.978 344.296 362.978C344.296 362.978 339.556 396.763 336.343 428.529C333.983 451.871 325.886 566.223 322.307 586.687C322.307 586.687 319.039 593.827 292.538 586.699C283.909 584.378 281.197 579.085 281.197 579.085C281.197 579.085 281.836 456.231 281.24 416.635C280.643 377.038 290.312 273.72 290.312 273.72L400.362 300.892Z" fill="#3B69C4"/>
<path d="M360.291 439.284C357.853 421.772 355.128 404.302 352.118 386.884C350.412 377.014 348.615 367.16 346.727 357.325C346.582 356.571 345.456 356.89 345.6 357.642C348.931 375 351.981 392.413 354.744 409.874C357.513 427.379 359.996 444.932 362.188 462.522C363.415 472.368 364.55 482.225 365.597 492.092C365.677 492.848 366.847 492.857 366.765 492.092C364.895 474.454 362.737 456.848 360.291 439.284ZM369.728 516.55C369.183 511.753 368.664 506.953 368.169 502.15C368.091 501.393 366.922 501.385 367.001 502.15C368.765 519.258 370.842 536.333 373.232 553.361C373.904 558.141 374.6 562.918 375.32 567.691C375.434 568.449 376.561 568.127 376.447 567.373C373.897 550.477 371.655 533.533 369.728 516.55ZM283.963 571.888C283.048 571.394 282.14 570.885 281.239 570.368C281.237 570.832 281.234 571.281 281.232 571.711C291.633 577.58 302.899 582.036 314.959 581.251C317.788 581.067 320.576 580.576 323.283 579.768C323.334 579.354 323.385 578.93 323.437 578.494C310.207 582.704 295.88 578.324 283.963 571.888ZM381.818 579.523C385.834 579.176 389.825 578.565 393.763 577.685C400.302 576.224 406.686 574.025 412.769 571.165C412.76 570.731 412.751 570.297 412.741 569.862C403.513 574.262 393.572 577.099 383.438 578.178C381.265 578.409 379.082 578.553 376.898 578.617C374.782 578.679 372.649 578.679 370.561 578.31C370.621 578.74 370.679 579.156 370.735 579.549C374.371 580.141 378.184 579.838 381.818 579.523ZM395.179 332.07C396.824 335.475 399.06 338.62 401.845 341.127C401.802 339.965 401.761 338.815 401.72 337.68C401.383 337.311 401.053 336.936 400.736 336.546C392.883 326.852 392.971 313.498 393.198 301.596C393.227 300.056 390.89 300.06 390.86 301.596C390.786 305.549 390.723 309.507 390.936 313.458C391.284 319.865 392.381 326.276 395.179 332.07ZM286.255 321.258C288.794 317.285 290.743 312.868 292.404 308.496C293.314 306.102 294.155 303.683 294.987 301.261C295.481 299.82 297.74 300.44 297.24 301.896C294.374 310.242 291.334 318.829 285.897 325.825C286.017 324.286 286.136 322.763 286.255 321.258Z" fill="#26447F"/>
<path d="M346.316 351.454C345.624 351.454 345.221 352.005 345.148 352.649C343.879 363.866 342.793 374.591 341.088 387.273C340.883 388.796 344.145 388.547 344.332 387.019C345.762 375.315 346.215 363.866 347.484 352.649C347.557 352.007 346.896 351.454 346.316 351.454Z" fill="white"/>
<path d="M272.034 206.509C272.034 206.509 265.054 209.696 262.214 203.361C258.45 194.966 241.912 161.097 261.668 145.56C269.524 139.381 308.352 142.874 310.536 142.089C310.536 142.089 322.549 151.842 336.199 151.155C349.849 150.468 356.401 142.089 356.401 142.089C356.401 142.089 393.221 158.061 400.064 165.393C406.907 172.725 419.424 191.588 421.062 193.16C422.699 194.731 395.139 215.668 395.139 215.668C395.139 215.668 396.849 273.229 402.546 287.158C407.734 299.843 401.729 303.802 401.729 303.802C401.729 303.802 384.453 311.086 356.34 310.563C302.547 309.561 285.184 300.482 281.509 294.96C274.761 284.818 279.767 283.712 280.635 271.93C282.62 244.974 272.034 206.509 272.034 206.509Z" fill="#4B75C9"/>
<path d="M392.779 204.669L380.995 164.737C380.995 164.737 373.773 167.12 364.393 176.219C355.012 185.318 320.504 213.978 305.526 220.415C290.547 226.853 282.488 219.058 277.261 212.784C272.034 206.509 363.253 154.211 378.325 152.302C393.396 150.392 393.794 165.82 393.6 183.299C393.406 200.778 392.779 204.669 392.779 204.669Z" fill="#3158A5"/>
<path d="M261.668 192.363C261.668 192.363 260.03 197.6 262.214 203.361C264.398 209.121 273.192 216.715 281.353 213.049C289.514 209.384 264.67 182.937 261.668 192.363Z" fill="#0C1528"/>
<path d="M386.015 298.173C374.569 300.073 362.938 300.906 351.324 300.689C339.757 300.473 328.218 299.216 316.9 296.92C310.514 295.625 304.205 294 298 292.06C296.854 291.701 296.363 293.431 297.503 293.788C308.665 297.277 320.159 299.721 331.806 301.126C343.413 302.526 355.158 302.87 366.832 302.146C373.428 301.737 379.999 300.981 386.512 299.901C387.694 299.704 387.192 297.977 386.015 298.173ZM397.1 295.465C396.823 295.053 396.277 294.896 395.822 295.144C395.455 295.344 395.081 295.529 394.696 295.696C394.635 295.722 394.575 295.747 394.514 295.772C394.542 295.759 394.324 295.848 394.297 295.857C394.114 295.926 393.929 295.991 393.743 296.053C392.971 296.307 392.176 296.491 391.37 296.609C390.885 296.68 390.574 297.288 390.717 297.711C390.888 298.218 391.347 298.413 391.866 298.337C393.587 298.086 395.252 297.515 396.765 296.691C397.19 296.46 397.371 295.868 397.1 295.465ZM342.673 152.731C334.109 154.972 324.957 153.548 317.282 149.368C313.817 147.481 310.673 145.055 308.013 142.209C307.305 142.203 306.468 142.186 305.526 142.162C311.124 148.685 319.024 153.372 327.706 154.98C336.77 156.658 346.266 154.739 353.856 149.689C356.324 148.046 358.556 146.096 360.477 143.895C359.825 143.602 359.24 143.341 358.728 143.114C354.546 147.751 348.869 151.11 342.673 152.731Z" fill="#3158A5"/>
<path d="M382.934 116.089C382.934 116.089 365.61 143.112 364.02 144.637C362.43 146.162 343.987 156.379 343.987 156.379L296.999 176.838C296.999 176.838 293.071 171.518 288.498 171.781C275.27 172.542 263.349 183.905 261.668 192.363C261.668 192.363 275.46 222.41 290.724 220.275C305.987 218.14 365.133 172.036 369.903 168.249C374.672 164.462 383.532 161.412 387.211 160.497C390.89 159.582 392.784 108.281 382.934 116.089Z" fill="#7898D7"/>
<path d="M406.595 148.297C406.48 145.558 405.488 125.709 405.817 124.558C406.147 123.407 406.432 117.716 407.976 115.617C409.52 113.519 407.247 109.963 404.723 111.05C402.201 112.138 402.313 113.699 402.313 113.699C402.313 113.699 401.026 113.889 398.195 107.594C395.364 101.299 394.054 96.2263 391.738 96.7203C389.421 97.2142 391.117 105.866 391.117 105.866C391.117 105.866 384.811 94.14 381.722 96.9789C378.634 99.8177 381.465 102.163 379.535 105.249C377.604 108.335 384.243 121.403 385.556 124.559C386.87 127.715 386.484 129.936 386.098 129.566C385.712 129.196 380.493 120.577 379.185 119.691C377.878 118.806 375.674 120.062 376.703 122.407C377.733 124.753 382.108 131.789 382.108 133.393C382.108 134.998 379.653 142.38 380.178 145.119C381.1 149.928 385.116 158.393 387.419 162.994C387.548 163.533 387.719 164.099 387.946 164.699C393.901 180.461 388.674 241.106 395.14 246.901C401.607 252.696 424.677 249.859 429.447 237.05C434.216 224.24 406.871 154.831 406.595 148.297Z" fill="#7898D7"/>
<path d="M405.917 110.246C404.33 109.842 402.937 110.868 402.201 112.137C401.495 113.355 401.051 114.741 400.85 116.117C400.783 116.579 400.967 117.102 401.503 117.219C401.943 117.315 402.579 117.089 402.652 116.593C402.736 116.013 402.862 115.439 403.036 114.878C403.22 114.285 403.4 113.83 403.649 113.346C403.767 113.116 403.896 112.89 404.046 112.677C404.066 112.649 404.106 112.596 404.111 112.586C404.139 112.553 404.167 112.52 404.197 112.489C404.292 112.385 404.395 112.293 404.502 112.201C404.51 112.196 404.518 112.191 404.528 112.184C404.588 112.147 404.648 112.111 404.711 112.077C404.746 112.059 404.797 112.035 404.807 112.029C404.845 112.016 404.882 112.003 404.92 111.992C404.988 111.972 405.058 111.961 405.126 111.943C405.128 111.943 405.128 111.943 405.129 111.942C405.142 111.943 405.152 111.943 405.17 111.944C405.226 111.945 405.283 111.948 405.338 111.948C405.154 111.948 405.367 111.959 405.421 111.973C405.892 112.093 406.457 111.821 406.57 111.347C406.681 110.878 406.423 110.375 405.917 110.246ZM399.996 109.95C399.062 107.65 398.127 105.349 397.192 103.049C396.725 101.899 396.257 100.749 395.79 99.5989C395.438 98.7317 395.103 97.8471 394.528 97.088C393.426 95.6366 391.369 94.9378 389.946 96.4608C388.714 97.7802 388.971 99.6121 389.354 101.277C388.982 100.718 388.597 100.168 388.18 99.6353C387.088 98.2443 385.801 96.591 383.987 96.0541C382.33 95.5637 380.479 96.2309 379.89 97.8591C379.649 98.525 379.646 99.2513 379.71 99.9453C379.781 100.706 380.175 101.824 379.824 102.546C379.649 102.904 379.294 103.201 379.087 103.547C378.891 103.873 378.735 104.23 378.613 104.587C378.317 105.464 378.267 106.426 378.35 107.338C378.52 109.208 379.138 111.024 379.735 112.801C380.391 114.756 381.137 116.682 381.965 118.577C383.321 121.68 385.316 124.818 386.053 128.167C384.397 125.608 382.754 123.033 380.996 120.544C380.168 119.372 378.799 118.265 377.254 119.008C375.765 119.725 375.421 121.418 375.807 122.85C376.265 124.548 377.249 126.218 378.122 127.747C378.99 129.267 380.159 130.691 380.844 132.3C381.593 134.059 380.932 135.57 380.35 137.267C380.184 137.75 377.261 146.528 374.631 149.058C373.782 149.876 375.102 151.144 375.952 150.325C377.441 148.892 378.634 147.22 379.497 145.404C379.809 148.097 380.693 150.727 382.108 153.078C382.709 154.077 384.324 153.175 383.721 152.174C382.155 149.571 381.299 146.628 381.235 143.623C381.204 142.168 381.351 140.717 381.695 139.299C382.057 137.805 382.79 136.396 383.021 134.876C383.498 131.747 381.044 129.176 379.597 126.601C378.832 125.239 377.827 123.667 377.547 122.124C377.459 121.639 377.502 120.831 378.089 120.614C378.649 120.407 379.113 121.07 379.382 121.45C381.694 124.725 383.808 128.146 386.014 131.488C386.187 131.749 386.431 131.873 386.682 131.898C387.212 132.238 388.16 132.002 388.201 131.187C388.381 127.556 386.714 124.24 385.144 121.038C383.464 117.613 382.041 114.088 380.935 110.452C380.477 108.946 379.973 107.306 380.244 105.723C380.386 104.891 380.808 104.338 381.286 103.662C381.766 102.984 381.856 102.279 381.77 101.479C381.662 100.462 380.95 98.1762 382.397 97.742C384.002 97.26 385.464 99.2017 386.302 100.216C388.869 103.32 390.499 107.039 392.108 110.652C392.521 111.579 394.166 110.917 393.816 109.962C392.954 107.612 392.219 105.222 391.629 102.796C391.346 101.63 390.972 100.396 390.907 99.1969C390.869 98.4856 391.223 96.9363 392.319 97.4786C393.058 97.8441 393.476 98.829 393.762 99.5242C394.253 100.719 394.734 101.917 395.221 103.113L398.193 110.428C398.626 111.489 400.433 111.027 399.996 109.95Z" fill="#6085CF"/>
<path d="M403.017 123.809C402.287 125.346 400.528 126.046 399.274 127.124C398.571 127.729 398.098 128.423 397.735 129.252C397.524 129.734 397.382 130.175 396.831 130.35C396.387 130.491 395.888 130.468 395.428 130.52C394.398 130.636 393.483 130.993 392.705 131.662C391.881 132.37 391.488 133.345 391.104 134.312C390.741 135.228 390.281 135.994 389.372 136.49C388.558 136.933 387.621 137.055 386.717 136.834C385.551 136.549 385.054 138.276 386.22 138.561C388.274 139.064 390.528 138.382 391.848 136.77C392.591 135.863 392.804 134.741 393.365 133.744C393.96 132.69 394.912 132.352 396.1 132.251C397.225 132.156 398.278 131.923 398.939 130.961C399.507 130.136 399.673 129.226 400.448 128.52C401.859 127.236 403.781 126.501 404.63 124.713C405.125 123.671 403.515 122.759 403.017 123.809Z" fill="#6085CF"/>
<path d="M299.484 173.562C295.754 175.539 292.212 177.808 288.859 180.328C288.462 180.627 288.533 181.282 288.859 181.595C289.251 181.971 289.781 181.894 290.18 181.595C293.405 179.171 296.842 177.01 300.427 175.109C301.479 174.551 300.538 173.003 299.484 173.562Z" fill="#4B75C9"/>
<path d="M377.916 95.8282C376.434 92.2965 374.952 88.7654 373.469 85.2338C373.173 84.5296 371.968 84.8372 372.268 85.5515C373.751 89.0832 375.233 92.6143 376.716 96.1459C377.011 96.8501 378.217 96.5425 377.916 95.8282ZM387.588 91.3003C386.875 88.026 386.163 84.7518 385.45 81.4769C385.286 80.7249 384.085 81.0433 384.248 81.7947C384.961 85.0689 385.674 88.3432 386.387 91.618C386.551 92.37 387.752 92.0516 387.588 91.3003ZM398.272 80.9549C397.422 84.1539 396.572 87.3535 395.723 90.5525C395.525 91.2979 396.726 91.6156 396.924 90.8702C397.773 87.6712 398.623 84.4716 399.473 81.2726C399.67 80.5272 398.47 80.2089 398.272 80.9549ZM409.936 82.0903C407.548 86.8691 405.161 91.6485 402.774 96.4272C402.43 97.1171 403.502 97.7239 403.849 97.0299C406.237 92.2511 408.624 87.4717 411.011 82.693C411.356 82.0031 410.283 81.3969 409.936 82.0903ZM419.659 91.4705C415.866 94.9771 412.221 98.627 408.733 102.413C408.203 102.986 409.081 103.835 409.613 103.257C413.102 99.4715 416.747 95.8216 420.539 92.315C421.118 91.7811 420.236 90.9365 419.659 91.4705Z" fill="#E0E7F6"/>
</g>
<defs>
<clipPath id="clip0_271_19">
<rect width="657" height="657" fill="white"/>
</clipPath>
</defs>
</svg>
