<svg width="629" height="629" viewBox="0 0 629 629" fill="none" xmlns="http://www.w3.org/2000/svg">
<path d="M522.832 579.04C522.832 579.04 583.982 555.527 582.045 500.556C580.108 445.584 522.832 440.419 522.832 440.419C522.832 440.419 566.549 377.665 505.856 356.098C505.856 356.098 534.265 328.167 501.337 310.042C501.337 310.042 544.596 232.497 472.282 185.05C399.968 137.603 347.669 201.874 347.669 201.874C347.669 201.874 332.818 174.374 312.157 194.406C312.157 194.406 306.992 128.563 245.008 134.374C183.025 140.185 190.352 208.384 190.352 208.384C190.352 208.384 138.474 174.567 144.285 239.375C144.285 239.375 90.0489 240.249 83.5925 302.24C77.1358 364.23 118.458 379.081 118.458 379.081C118.458 379.081 74.5528 384.998 107.482 422.071C107.482 422.071 48.081 426.86 46.144 497.883C44.207 568.906 71.8745 580.009 71.8745 580.009L522.832 579.04Z" fill="#E0E9FF"/>
<path d="M311.377 579.601C311.377 579.601 324.208 507.292 272.679 514.088C272.679 514.088 288.534 481.244 248.329 484.076C248.329 484.076 250.374 459.833 221.804 473.307C221.804 473.307 195.782 429.196 180.944 470.486C180.944 470.486 146.402 469.353 160.559 503.895C160.559 503.895 80.7163 499.869 112.427 579.601H311.377V579.601Z" fill="#C2CFED"/>
<path d="M475.484 579.601C475.484 579.601 510.026 566.21 507.194 530.805C504.363 495.401 463.593 507.293 463.593 507.293C463.593 507.293 482.279 472.185 442.641 473.317C442.641 473.317 434.713 442.739 388.28 458.028C341.846 473.317 370.16 513.452 370.16 513.452C370.16 513.452 319.765 502.196 327.125 553.16C327.125 553.16 290.883 544.887 299.943 580.451L475.484 579.601Z" fill="#C2CFED"/>
<path d="M494.089 333.131H425.275L452.582 331.242C452.582 331.242 449.032 328.314 457.771 328.6C457.771 328.6 456.678 325.228 464.87 325.957C464.87 325.957 465.417 322.59 475.793 322.889C486.17 323.189 481.528 327.22 481.528 327.22C481.528 327.22 492.451 324.456 498.185 327.22C503.92 329.984 494.089 333.131 494.089 333.131ZM95.7549 280.274H240.933L188.445 272.087C188.445 272.087 188.152 256.297 170.901 262.73C170.901 262.73 169.492 250.742 156.162 250.157C142.831 249.572 143.708 260.976 143.708 260.976C143.708 260.976 126.749 249.865 116.808 260.683C106.866 271.502 122.656 274.426 122.656 274.426L95.7549 280.274Z" fill="white"/>
<path d="M254.621 454.758C259.359 458.361 263.456 462.701 266.55 467.961C277.442 486.019 282.888 504.649 292.92 522.706C300.945 537.038 311.837 547.643 325.881 556.815C338.731 565.34 352.433 570.774 366.551 573.856V454.758H254.621Z" fill="#32487A"/>
<path d="M292.919 522.706C282.887 504.649 277.441 486.018 266.55 467.961C263.456 462.701 259.358 458.361 254.621 454.757H242.961V578.347H366.55V573.855C352.433 570.773 338.731 565.339 325.881 556.814C311.836 547.642 300.945 537.037 292.919 522.706Z" fill="#304575"/>
<path d="M366.551 454.758L378.698 444.658V578.347H366.551V454.758Z" fill="#5276C9"/>
<path d="M255.108 444.658L242.961 454.758H366.55L378.698 444.658H255.108Z" fill="#4461A6"/>
<path d="M205.022 579.35C205.022 579.35 200.436 572.421 206.168 567.723C211.901 563.024 216.296 568.566 216.296 568.566C216.296 568.566 219.709 555.596 230.614 554.533C241.519 553.47 246.623 565.126 246.623 565.126C246.623 565.126 247.824 561.744 253.557 561.046C259.289 560.349 260.818 567.723 260.818 567.723C260.818 567.723 278.42 553.726 296.275 555.987C314.13 558.247 322.729 571.88 322.729 571.88C322.729 571.88 330.073 567.321 336.869 566.907C343.665 566.493 347.761 571.88 347.761 571.88C347.761 571.88 352.109 558.671 370.163 562.986C379.122 565.126 380.716 571.88 380.716 571.88C380.716 571.88 388.13 566.665 394.41 570.004C400.69 573.343 401.182 576.099 401.182 576.099C401.182 576.099 426.944 567.133 435.276 576.099C437.665 578.669 437.808 579.35 437.808 579.35H205.022V579.35Z" fill="#C2CFED"/>
<path d="M383.337 466.726C383.238 464.832 383.583 463.448 383.583 463.448L377.849 461.331L379.121 466.827C380.415 467.162 381.868 467.036 383.337 466.726Z" fill="#7E9FED"/>
<path d="M383.337 466.726C381.869 467.036 380.416 467.162 379.122 466.827L379.79 469.712C379.79 469.712 386.759 475.269 384.642 471.476C383.735 469.851 383.412 468.146 383.337 466.726Z" fill="#96B5FF"/>
<path d="M379.482 461.111C380.661 459.289 382.969 458.595 384.647 457.201C384.095 456.356 383.672 455.774 383.672 455.774L374.586 460.219L378.66 466.889C378.66 466.889 381.304 466.199 383.642 465.236C383.221 465.162 382.804 465.065 382.393 464.948C380.805 464.287 378.556 462.699 379.482 461.111Z" fill="#7E9FED"/>
<path d="M387.155 462.654C387.184 461.328 385.687 458.796 384.646 457.201C382.968 458.595 380.66 459.288 379.481 461.111C378.555 462.699 380.804 464.287 382.392 464.948C382.803 465.065 383.22 465.162 383.641 465.236C385.484 464.477 387.136 463.549 387.155 462.654Z" fill="#96B5FF"/>
<path d="M377.497 460.219C377.497 460.219 383.319 459.479 385.877 454.98C388.435 450.481 387.365 445.913 380.761 449.246C377.09 451.098 375.345 457.538 375.345 457.538C375.345 457.538 373.086 458.4 372.645 460.218C372.204 462.036 373.439 463.624 373.439 463.624C373.439 463.624 367.705 470.064 371.41 477.033C375.115 484.002 377.783 481.311 379.812 478.047C381.841 474.784 377.849 461.331 377.849 461.331C377.849 461.331 376.826 462.566 376.085 460.801C375.345 459.038 377.497 460.219 377.497 460.219Z" fill="#32487A"/>
<path d="M366.927 483.563C367.326 483.422 367.727 483.339 368.128 483.306C369.15 480.373 370.361 477.506 371.771 474.727C370.544 476.614 368.65 479.755 366.927 483.563ZM388.945 474.929C390.036 474.646 390.729 474.475 390.729 474.475C390.729 474.475 393.722 474.475 397.287 474.098C397.076 473.385 396.93 472.646 396.841 471.896C393.601 471.843 390.377 471.317 387.288 470.108C387.767 471.734 388.451 473.292 388.945 474.929ZM372.347 484.71C372.479 484.81 372.609 484.913 372.736 485.021C373.371 483.081 374.048 481.303 374.67 480.239C374.486 479.632 374.364 478.993 374.321 478.312C373.65 480.438 372.955 482.564 372.347 484.71Z" fill="#E6E6E6"/>
<path d="M375.345 479.371C376.905 478.144 385.236 475.891 388.944 474.93C388.451 473.292 387.767 471.735 387.288 470.109C390.376 471.317 393.601 471.843 396.84 471.897C396.704 470.752 396.701 469.584 396.812 468.448C394.779 468.652 392.43 468.79 390.067 468.719L383.687 469.058L379.79 469.711L373.086 472.801C373.086 472.801 372.569 473.499 371.77 474.728C370.361 477.506 369.149 480.374 368.127 483.306C369.617 483.182 371.091 483.757 372.346 484.71C372.955 482.564 373.649 480.438 374.32 478.312C374.363 478.993 374.485 479.632 374.669 480.239C374.904 479.839 375.131 479.539 375.345 479.371Z" fill="white"/>
<path d="M406.21 470.902C407.391 468.601 408.252 466.211 408.886 463.762C409.117 460.341 409.017 455.854 407.996 450.525H404.357C404.357 450.525 404.952 464.353 402.967 467.528C402.967 467.528 400.374 468.089 396.811 468.447C396.701 469.584 396.703 470.752 396.84 471.896C399.986 471.948 403.146 471.554 406.21 470.902Z" fill="#96B5FF"/>
<path d="M406.21 470.903C403.147 471.555 399.986 471.949 396.841 471.897C396.93 472.646 397.076 473.385 397.287 474.099C401.028 473.703 405.398 472.893 407.6 471.234C407.6 471.234 408.565 468.537 408.887 463.762C408.253 466.212 407.392 468.601 406.21 470.903Z" fill="#7E9FED"/>
<path d="M389.67 513.245C390.096 510.858 390.579 508.526 391.327 506.284L385.042 507.167C384.188 520.655 384.812 539.12 385.619 553.864C386.28 554.117 386.971 554.298 387.676 554.407C387.457 540.833 387.272 527.22 389.67 513.245Z" fill="#417AFF"/>
<path d="M391.328 506.284C390.58 508.526 390.097 510.858 389.67 513.245C387.272 527.22 387.458 540.833 387.676 554.407C388.84 554.587 390.04 554.573 391.202 554.37L399.205 505.178L391.328 506.284Z" fill="#417AFF"/>
<path d="M387.811 567.722C388.221 567.729 388.632 567.709 389.039 567.662L391.202 554.371C390.039 554.573 388.839 554.588 387.676 554.408C387.747 558.846 387.822 563.28 387.811 567.722Z" fill="#96B5FF"/>
<path d="M386.477 567.599C386.92 567.674 387.366 567.714 387.811 567.721C387.822 563.28 387.747 558.846 387.676 554.407C386.971 554.298 386.28 554.118 385.619 553.864C385.901 559.023 386.206 563.725 386.477 567.599Z" fill="#7E9FED"/>
<path d="M389.04 567.662C388.632 567.709 388.222 567.729 387.811 567.721C387.804 570.51 387.764 573.302 387.667 576.099L389.04 567.662Z" fill="#CDDCFF"/>
<path d="M387.302 578.347L387.667 576.099C387.764 573.302 387.805 570.51 387.812 567.722C387.366 567.714 386.92 567.674 386.478 567.6C386.937 574.161 387.302 578.347 387.302 578.347Z" fill="#ADC3F5"/>
<path d="M386.701 505.761L382.93 506.77C385.967 524.641 394.962 542.552 403.19 555.986C404.111 555.979 405.013 555.867 405.89 555.668C398.829 542.461 393.38 529.205 388.744 514.833C387.811 511.83 386.963 508.827 386.701 505.761Z" fill="#2C64E8"/>
<path d="M397.021 513.717C399.403 507.564 397.021 503 397.021 503L386.701 505.761C386.964 508.827 387.812 511.83 388.744 514.833C393.38 529.206 398.829 542.462 405.89 555.668C407.539 555.293 409.098 554.601 410.518 553.672L397.021 513.717Z" fill="#417AFF"/>
<path d="M414.156 570.004C414.727 569.84 415.284 569.627 415.819 569.366L410.518 553.672C409.098 554.602 407.539 555.293 405.891 555.668C406.89 557.538 407.922 559.407 408.989 561.278C410.72 564.246 412.452 567.128 414.156 570.004Z" fill="#96B5FF"/>
<path d="M408.989 561.277C407.922 559.407 406.89 557.538 405.89 555.668C405.013 555.868 404.111 555.98 403.19 555.987C406.675 561.676 410.022 566.562 412.721 570.303C413.206 570.241 413.686 570.139 414.156 570.004C412.452 567.127 410.721 564.246 408.989 561.277Z" fill="#7E9FED"/>
<path d="M415.819 569.365C415.284 569.627 414.727 569.84 414.156 570.003C415.691 572.592 417.203 575.177 418.674 577.816L415.819 569.365Z" fill="#CDDCFF"/>
<path d="M414.156 570.003C413.686 570.138 413.206 570.241 412.721 570.303C416.383 575.379 418.853 578.346 418.853 578.346L418.674 577.817C417.203 575.178 415.691 572.593 414.156 570.003Z" fill="#ADC3F5"/>
<path d="M409.716 445.497C409.21 440.743 404.688 441.329 404.688 441.329C404.874 436.949 402.895 433.619 402.17 433.211C404.128 437.525 403.997 442.338 403.111 446.911L407.996 450.525C407.996 450.525 410.047 448.606 409.716 445.497Z" fill="#96B5FF"/>
<path d="M402.171 433.211C401.867 433.04 401.784 433.384 402.175 434.382C403.498 437.756 402.77 446.658 402.77 446.658L403.112 446.91C403.998 442.339 404.129 437.525 402.171 433.211Z" fill="#7E9FED"/>
<path d="M393.904 481.356C395.701 484.844 394.544 488.586 394.545 492.311C394.998 488.157 396.334 485.236 396.109 481.532C396.109 481.532 400.974 479.304 399.726 475.445C399.583 475.002 399.368 474.648 399.103 474.368C399.649 477.599 396.884 480.283 393.904 481.356ZM383.848 505.703C384.641 499.748 384.642 493.132 380.54 488.236C377.893 485.193 374.585 482.547 374.321 478.312C374.03 479.233 373.735 480.154 373.444 481.076C374.274 483.48 375.841 486.712 378.66 488.898C385.704 494.36 380.871 507.82 380.871 507.82C380.871 507.82 392.581 511.657 401.182 504.38C401.182 504.38 401.178 504.376 401.172 504.372C395.697 506.906 389.528 507.907 383.848 505.703Z" fill="#E6E6E6"/>
<path d="M392.449 479.9C390.199 483.076 386.23 485.061 382.392 484.664C381.466 484.664 380.275 484.267 380.143 483.208C379.614 478.709 385.039 476.857 388.876 476.328C384.239 476.45 377.805 477.25 375.171 481.524C376.037 483.338 377.442 484.875 378.873 486.41C384.162 487.201 390.091 484.97 392.449 479.9Z" fill="#E6E6E6"/>
<path d="M394.434 493.671C394.459 493.203 394.497 492.75 394.545 492.311C394.544 488.586 395.701 484.844 393.904 481.356C396.885 480.283 399.649 477.599 399.103 474.368C397.056 472.209 391.917 474.454 391.917 474.454C391.917 474.454 391.04 471.884 387.466 468.857L386.153 468.927C385.605 470.538 384.397 471.813 382.525 472.094C380.763 472.446 378.795 471.963 377.357 470.833L373.086 472.801L372.601 477.852C372.601 477.852 372.802 479.216 373.444 481.076C373.735 480.154 374.03 479.233 374.321 478.313C374.394 479.492 374.705 480.548 375.171 481.524C377.805 477.25 384.239 476.45 388.876 476.328C385.039 476.857 379.614 478.709 380.143 483.208C380.275 484.267 381.466 484.664 382.392 484.664C386.229 485.061 390.199 483.076 392.449 479.9C390.091 484.97 384.162 487.201 378.873 486.411C379.435 487.014 380.001 487.617 380.54 488.237C384.642 493.132 384.642 499.749 383.848 505.703C389.528 507.907 395.697 506.907 401.172 504.372C400.897 504.142 394.174 498.477 394.434 493.671Z" fill="white"/>
<path d="M382.525 472.093C384.397 471.813 385.605 470.538 386.153 468.927L383.686 469.058C382.314 469.207 381.007 469.417 379.79 469.711L377.356 470.833C378.795 471.963 380.763 472.446 382.525 472.093Z" fill="#96B5FF"/>
<path d="M405.548 444.306C406.078 445.1 404.887 446.026 404.49 446.953C405.908 446.835 406.798 448.088 407.632 449.206C406.803 447.166 405.152 446.658 405.152 446.658C405.152 446.658 407.666 443.711 406.409 442.917C405.455 442.315 403.514 443.995 402.631 445.535C403.444 444.464 404.706 443.253 405.548 444.306Z" fill="#7E9FED"/>
<path d="M407.632 449.206C406.799 448.088 405.908 446.834 404.49 446.953C404.887 446.027 406.078 445.1 405.549 444.306C404.706 443.253 403.444 444.463 402.631 445.535C402.35 446.026 402.175 446.503 402.175 446.886C402.175 448.474 404.358 450.525 404.358 450.525H407.997C407.915 450.026 407.788 449.589 407.632 449.206Z" fill="#96B5FF"/>
<path d="M383.583 462.346L386.032 460.935C386.032 460.935 386.362 462.346 385.656 462.875C384.95 463.405 383.583 462.346 383.583 462.346Z" fill="white"/>
<path d="M382.26 501.865C381.201 503.189 379.349 503.056 378.026 502.395C376.967 501.865 377.364 500.278 378.026 499.351C373.527 501.071 368.101 500.145 364.794 496.705C365.51 492.148 366.611 487.656 368.127 483.306C367.727 483.339 367.325 483.423 366.926 483.563C365.163 487.458 363.579 492.049 363.073 496.705C363.073 496.705 365.984 502.792 376.305 501.336C376.305 501.336 375.467 503.497 377.849 504.115C380.231 504.732 381.445 503.409 381.445 503.409C381.445 503.409 381.025 504.997 382.172 505.173C382.39 505.207 382.665 505.051 382.959 504.757C382.377 503.93 382.112 502.898 382.26 501.865Z" fill="#7E9FED"/>
<path d="M372.735 485.021C372.608 484.913 372.478 484.81 372.346 484.71C371.709 486.955 371.167 489.221 370.846 491.532C371.322 489.72 372.001 487.264 372.735 485.021Z" fill="#7E9FED"/>
<path d="M384.73 497.44C384.555 497.063 384.313 496.774 384.026 496.552C384.318 498.66 384.308 500.834 384.141 502.971C384.945 501.299 385.466 499.028 384.73 497.44Z" fill="#96B5FF"/>
<path d="M384.027 496.552C382.144 495.091 378.291 496.617 378.291 496.617L370.163 494.235C370.163 494.235 370.425 493.136 370.846 491.533C371.168 489.221 371.71 486.955 372.346 484.71C371.091 483.757 369.617 483.183 368.127 483.307C366.611 487.657 365.51 492.149 364.794 496.706C368.102 500.146 373.527 501.072 378.026 499.352C377.364 500.278 376.967 501.866 378.026 502.395C379.349 503.057 381.202 503.189 382.26 501.866C382.113 502.899 382.377 503.931 382.96 504.758C383.351 504.366 383.776 503.731 384.141 502.971C384.309 500.834 384.318 498.66 384.027 496.552Z" fill="#96B5FF"/>
<path d="M312.429 450.295C344.796 450.295 371.035 424.056 371.035 391.689C371.035 359.321 344.796 333.083 312.429 333.083C280.061 333.083 253.822 359.321 253.822 391.689C253.822 424.056 280.061 450.295 312.429 450.295Z" fill="#467DFF"/>
<path d="M278.527 391.689C278.527 363.56 298.347 340.063 324.781 334.391C320.798 333.537 316.667 333.083 312.429 333.083C280.061 333.083 253.822 359.322 253.822 391.689C253.822 424.056 280.061 450.295 312.429 450.295C316.667 450.295 320.798 449.842 324.781 448.987C298.347 443.315 278.527 419.818 278.527 391.689Z" fill="#2F6DFF"/>
<path d="M337.023 362.109C343.785 362.109 349.266 358.579 349.266 354.226C349.266 349.872 343.785 346.342 337.023 346.342C330.262 346.342 324.781 349.872 324.781 354.226C324.781 358.579 330.262 362.109 337.023 362.109Z" fill="#94B4FF"/>
<path d="M354.892 375.584C356.813 375.584 358.37 374.027 358.37 372.107C358.37 370.186 356.813 368.629 354.892 368.629C352.972 368.629 351.415 370.186 351.415 372.107C351.415 374.027 352.972 375.584 354.892 375.584Z" fill="#94B4FF"/>
<path d="M273.996 362.834H266.406V363.872H273.996V362.834Z" fill="#6085DC"/>
<path d="M216.044 578.347C215.983 578.347 215.92 578.34 215.857 578.324C215.428 578.219 215.163 577.78 215.266 577.342L270.393 343.095C270.496 342.658 270.928 342.389 271.357 342.493C271.786 342.598 272.05 343.038 271.947 343.475L216.82 577.722C216.733 578.096 216.405 578.347 216.044 578.347Z" fill="#6085DC"/>
<path d="M266.118 385.961C267.839 384.062 269.098 381.89 270.12 379.597C271.002 375.731 271.5 371.438 271.753 368.677C270.394 368.638 269.077 368.263 267.912 367.615L262.862 381.508C259.454 383.496 248.181 383.885 248.181 383.885V385.557C253.764 388.119 260.333 387.769 266.118 385.961Z" fill="white"/>
<path d="M266.118 385.961C260.333 387.769 253.764 388.119 248.181 385.557V389.461C259.406 393.013 268 385.825 268 385.825C268.878 384.224 269.573 381.992 270.12 379.596C269.098 381.89 267.84 384.062 266.118 385.961ZM268.455 366.121L267.912 367.614C269.077 368.262 270.394 368.638 271.753 368.677C271.801 368.149 271.841 367.676 271.873 367.274C270.66 367.174 269.43 366.827 268.455 366.121Z" fill="#E6E6E6"/>
<path d="M275.974 363.915C275.503 365.64 275.223 367.603 275.563 369.401C276.477 368.346 277.509 365.162 276.991 363.092C276.3 360.326 274.484 356.868 271.977 358.597C269.47 360.326 268.865 364.994 268.865 364.994L268.455 366.121C269.122 366.604 269.909 366.918 270.728 367.101C270.906 365.996 271.05 364.891 271.305 363.785C272.213 365.601 274.807 365.471 275.974 363.915Z" fill="#96B5FF"/>
<path d="M275.973 363.915C274.806 365.471 272.212 365.601 271.305 363.786C271.05 364.891 270.905 365.996 270.727 367.102C271.105 367.186 271.489 367.242 271.872 367.274C271.946 366.333 271.977 365.773 271.977 365.773C274.138 367.329 274.916 365.773 274.916 365.773C274.916 365.773 273.878 368.626 274.743 369.62C274.961 369.87 275.255 369.756 275.562 369.401C275.223 367.603 275.503 365.641 275.973 363.915ZM254.057 375.716L246.99 376.494L246.917 376.761C247.985 377.768 249.317 378.477 250.732 378.853C252.199 376.327 254.057 375.716 254.057 375.716Z" fill="#7E9FED"/>
<path d="M250.297 373.382C250.647 370.699 253.725 370.429 255.85 369.175L255.549 368.13L246.99 369.232C246.99 369.232 243.229 374.938 246.99 376.494C248.763 377.228 250.848 377.241 252.557 377.05C251.125 376.296 250.028 375.088 250.297 373.382Z" fill="#7E9FED"/>
<path d="M255.849 369.174C253.724 370.429 250.647 370.699 250.297 373.382C250.027 375.087 251.125 376.295 252.557 377.049C254.473 376.835 255.916 376.364 255.916 376.364L255.981 372.993L256.781 372.409L255.849 369.174Z" fill="#96B5FF"/>
<path d="M249.584 370.983C249.584 370.983 256.522 370.205 261.645 364.304C261.645 364.304 248.677 365.99 243.1 370.529C243.1 370.529 242.516 374.614 246.991 376.494L248.611 372.409C248.611 372.409 246.537 372.215 247.574 370.399C248.611 368.584 249.584 370.983 249.584 370.983Z" fill="#32487A"/>
<path d="M244.851 387.906C245.987 393.816 245.431 399.826 245.188 405.761C246.588 404.698 247.969 403.409 249.122 401.902C248.935 401.614 248.765 401.313 248.611 401.004C246.666 396.725 247.833 391.537 244.851 387.906Z" fill="#E6E6E6"/>
<path d="M226.111 409.166C225.828 409.544 225.534 409.922 225.226 410.298C225.226 410.298 228.597 417.041 234.649 417.3C234.649 417.3 234.736 416.852 234.977 416.136C231.342 414.873 228.028 412.563 226.111 409.166Z" fill="#263966"/>
<path d="M249.065 384.664L245.628 381.487C245.628 381.487 244.752 381.756 243.44 382.439C240.051 385.118 237 388.206 235.773 392.445C233.957 398.411 231.363 403.728 228.251 408.915C229.699 411.65 231.797 413.986 234.233 415.861C234.479 415.957 234.727 416.05 234.977 416.137C235.634 414.185 237.436 410.241 241.738 407.964C242.816 407.393 244.008 406.657 245.187 405.761C245.43 399.826 245.987 393.817 244.85 387.907C247.833 391.538 246.666 396.725 248.611 401.005C248.765 401.313 248.935 401.614 249.122 401.903C252.296 397.757 253.741 391.961 249.065 384.664Z" fill="white"/>
<path d="M228.251 408.915C231.364 403.727 233.957 398.41 235.773 392.445C237 388.205 240.052 385.118 243.441 382.438C241.482 383.459 238.552 385.405 236.119 388.771C232.254 394.116 231.595 401.806 226.11 409.166C227.896 412.33 230.894 414.55 234.233 415.861C231.797 413.986 229.7 411.65 228.251 408.915Z" fill="#E6E6E6"/>
<path d="M251.023 390.151C251.023 390.151 251.023 390.28 251.019 390.515C253.389 399.557 251.738 408.803 251.04 417.955L254.057 411.119C254.058 411.119 254.819 398.016 251.023 390.151Z" fill="#648BE5"/>
<path d="M251.018 390.515C250.978 392.675 250.567 404.009 246.463 411.377L251.023 417.992L251.04 417.955C251.738 408.803 253.389 399.557 251.018 390.515Z" fill="#4A75DB"/>
<path d="M242.516 480.758C242.707 481.25 242.869 481.748 243.018 482.247L237.277 420.802H230.613C231.878 439.945 236.317 458.441 241.609 477.257C241.998 478.424 241.998 479.591 242.516 480.758Z" fill="#32487A"/>
<path d="M242.516 480.758C241.998 479.591 241.998 478.424 241.609 477.257C236.316 458.441 231.878 439.945 230.613 420.802H225.226C225.818 445.448 243.026 482.325 243.026 482.325L243.019 482.247C242.869 481.747 242.707 481.25 242.516 480.758Z" fill="#263966"/>
<path d="M241.665 388.709C239.077 394.244 240.749 409.074 242.516 413.67C242.516 413.67 249.39 415.481 258.335 406.823C258.196 406.232 258.026 405.648 257.826 405.076C253.871 408.668 248.948 411.266 243.684 411.897C242.132 404.358 240.865 396.439 241.665 388.709Z" fill="#E6E6E6"/>
<path d="M246.839 406.921C246.839 406.921 247.877 386.264 244.072 386.609C243.028 386.704 242.241 387.476 241.665 388.709C240.865 396.439 242.131 404.358 243.683 411.897C248.948 411.265 253.87 408.668 257.826 405.075C257.485 404.1 257.054 403.16 256.52 402.279C254.078 403.899 249.804 406.488 246.839 406.921Z" fill="white"/>
<path d="M259.783 405.347C259.384 403.92 258.764 402.572 257.834 401.383C257.507 401.612 257.057 401.923 256.52 402.279C257.366 403.677 257.957 405.224 258.335 406.823C258.812 406.361 259.295 405.871 259.783 405.347Z" fill="#E6E6E6"/>
<path d="M262.098 403.209C263.136 402.82 263.914 402.042 264.692 401.264C264.428 403.637 264.761 406.128 265.729 408.255C266.8 406.202 266.263 396.936 263.265 396.552C259.894 396.119 258.424 400.961 258.424 400.961C258.424 400.961 258.21 401.119 257.834 401.383C258.405 402.112 258.858 402.901 259.216 403.732C259.628 403.308 260.027 402.874 260.412 402.431C260.413 403.338 261.45 403.338 262.098 403.209Z" fill="#96B5FF"/>
<path d="M264.692 401.263C263.914 402.041 263.136 402.819 262.098 403.208C261.45 403.338 260.412 403.338 260.412 402.43C260.027 402.874 259.627 403.308 259.216 403.731C259.441 404.255 259.63 404.795 259.784 405.347C259.935 405.184 260.087 405.019 260.24 404.851C260.24 404.851 262.067 406.148 263.747 403.986C263.747 403.986 263.611 408.655 265.254 408.655C265.436 408.655 265.595 408.511 265.729 408.254C264.761 406.128 264.428 403.636 264.692 401.263Z" fill="#7E9FED"/>
<path d="M233.179 423.958C229.678 423.309 225.787 421.494 224.75 417.603C224.153 415.118 224.32 412.633 225.189 410.322C224.83 410.571 221.873 412.754 221.507 417.301C221.118 422.142 226.824 429.534 251.464 424.995C251.464 424.995 247.185 438.871 249.843 459.361L250.059 458.732C250.646 446.14 251.333 433.322 255.873 421.494C248.481 423.439 240.96 425.125 233.179 423.958Z" fill="#263966"/>
<path d="M229.686 415.493C229.686 415.493 226.695 413.086 225.225 410.298C225.225 410.298 225.213 410.306 225.189 410.322C224.32 412.633 224.153 415.118 224.75 417.603C225.787 421.494 229.678 423.309 233.179 423.958C240.96 425.125 248.481 423.439 255.873 421.494C251.334 433.321 250.646 446.14 250.059 458.732L264.562 416.436C264.562 416.436 246.683 413.772 229.686 415.493Z" fill="#32487A"/>
<path d="M249.539 456.761L246.623 459.793H263.747L249.539 456.761Z" fill="#263966"/>
<path d="M242.268 480.656L240.351 483.411H257.559L242.268 480.656Z" fill="#263966"/>
<path d="M223.561 578.347C223.499 578.347 223.436 578.34 223.374 578.324C222.944 578.219 222.68 577.78 222.783 577.342L277.91 343.095C278.013 342.658 278.444 342.389 278.873 342.493C279.302 342.598 279.567 343.038 279.464 343.475L224.337 577.722C224.249 578.096 223.922 578.347 223.561 578.347Z" fill="#6085DC"/>
<path d="M250.816 459.793H243.607V460.831H250.816V459.793Z" fill="#6085DC"/>
<path d="M245.153 483.411H238.413V484.448H245.153V483.411Z" fill="#6085DC"/>
<path d="M235.002 526.2H228.262V527.148H235.002V526.2Z" fill="#6085DC"/>
<path d="M240.185 504.283H233.445V505.231H240.185V504.283Z" fill="#6085DC"/>
<path d="M229.321 551.191H222.581V552.228H229.321V551.191Z" fill="#6085DC"/>
<path d="M253.519 374.679L255.571 374.29C255.571 374.29 255.291 375.457 254.544 375.717C253.798 375.976 253.519 374.679 253.519 374.679Z" fill="white"/>
<path d="M246.918 376.761L245.629 381.487C247.704 383.303 250.297 388.101 250.297 388.101L249.065 384.665C249.29 382.062 249.957 380.19 250.733 378.853C249.317 378.477 247.986 377.768 246.918 376.761Z" fill="#96B5FF"/>
<path d="M245.239 382.697L250.578 391.71L250.297 388.101L251.512 389.921L250.535 388.749L250.733 392.661L245.239 382.697Z" fill="#E6E6E6"/>
<path d="M250.535 388.75L250.608 390.191L251.375 391.578L251.513 389.921L250.535 388.75Z" fill="#648BE5"/>
<path d="M259.215 405.096C259.215 405.29 259.057 405.448 258.862 405.448C258.668 405.448 258.51 405.29 258.51 405.096C258.51 404.901 258.668 404.743 258.862 404.743C259.057 404.743 259.215 404.901 259.215 405.096ZM271.598 367.967C271.598 368.161 271.44 368.319 271.246 368.319C271.051 368.319 270.893 368.161 270.893 367.967C270.893 367.772 271.051 367.614 271.246 367.614C271.44 367.614 271.598 367.772 271.598 367.967Z" fill="white"/>
<path d="M585.85 580.353H41.264C40.7098 580.353 40.2607 579.904 40.2607 579.35C40.2607 578.796 40.7098 578.347 41.264 578.347H585.85C586.404 578.347 586.853 578.796 586.853 579.35C586.853 579.904 586.404 580.353 585.85 580.353Z" fill="#C2CFED"/>
<path d="M370.456 333.082H250.791L310.623 213.417L370.456 333.082Z" fill="#4A75DB"/>
<path d="M370.421 333.082H323.85L310.623 212.91L370.421 333.082Z" fill="#7E9FED"/>
<path opacity="0.4" d="M310.623 212.91L353.397 326.655H364.002L310.623 212.91Z" fill="white"/>
<path d="M319.692 99.1857L314.838 96.9893C314.838 96.9893 315.379 98.5158 315.169 100.458C316.656 100.34 318.132 100.106 319.554 99.7207L319.692 99.1857Z" fill="#7E9FED"/>
<path d="M324.545 92.7372L316.254 88.415L315.261 89.5941C316.469 91.3462 318.578 92.4856 319.159 94.5796C319.714 97.021 317.488 98.8539 315.135 99.0577C316.286 99.3131 317.787 99.4279 319.691 99.1854C325.253 98.4765 324.545 92.7372 324.545 92.7372Z" fill="#7E9FED"/>
<path d="M319.16 94.5797C318.579 92.4858 316.47 91.346 315.262 89.5942L312.854 92.454L313.492 93.5167L312.004 97.5555C312.004 97.5555 312.924 98.5669 315.136 99.0575C317.489 98.8541 319.715 97.0215 319.16 94.5797Z" fill="#96B5FF"/>
<path d="M315.759 137.519L306.644 137.108C305.107 149.625 306.412 161.639 307.398 174.081C308.475 186.606 309.935 199.131 310.442 211.656C310.513 212.072 310.585 212.49 310.657 212.91L315.759 137.519Z" fill="#263966"/>
<path d="M306.644 137.108L305.272 137.046C305.272 137.046 301.365 158.439 310.441 211.655C309.934 199.13 308.475 186.605 307.397 174.08C306.412 161.638 305.107 149.624 306.644 137.108Z" fill="#32487A"/>
<path d="M321.9 143.849C321.9 143.849 320.679 135.865 312.56 135.612C312.325 141.491 311.725 147.37 312.783 153.249C315.192 153.249 317.46 151.974 319.585 150.982C318.368 171.676 313.151 191.854 310.83 212.502C312.332 208.873 323.131 181.394 321.9 143.849Z" fill="#263966"/>
<path d="M312.782 153.249C311.724 147.37 312.324 141.491 312.559 135.612C310.571 135.55 308.171 135.95 305.271 137.047C305.271 137.047 305.555 143.046 310.657 145.88V212.91C310.657 212.91 310.717 212.772 310.829 212.501C313.15 191.854 318.367 171.676 319.584 150.981C317.459 151.974 315.192 153.249 312.782 153.249Z" fill="#32487A"/>
<path d="M320.932 93.5879C320.932 93.5879 314.342 91.3915 312.004 81.7549C312.004 81.7549 323.837 88.2738 327.38 95.3592C327.38 95.3592 323.27 99.2562 319.692 99.1854L321.215 94.934C321.215 94.934 322.703 95.9259 323.199 93.8713C323.695 91.8164 320.932 93.5879 320.932 93.5879Z" fill="#263966"/>
<path d="M315.858 136.23L318.289 104.642L313.421 104.5C313.421 104.5 306.639 113.38 305.355 135.449C308.33 137.923 312.27 137.593 315.858 136.23Z" fill="white"/>
<path d="M311.578 105.066L311.188 112.011L313.635 109.707L314.519 112.837L319.384 106.909L314.661 111.814L313.775 109.389L311.661 110.936L311.578 105.066Z" fill="#F2F2F2"/>
<path d="M305.356 135.449C305.325 135.975 305.297 136.506 305.272 137.047C305.272 137.047 309.429 141.109 315.759 137.519L315.858 136.23C312.27 137.593 308.33 137.923 305.356 135.449Z" fill="#263966"/>
<path d="M301.655 71.6634C301.788 70.9595 301.871 70.5441 301.871 70.5441L298.381 69.02C298.381 69.02 297.886 70.2249 297.224 72.1682C298.699 72.316 300.206 72.1053 301.655 71.6634Z" fill="#96B5FF"/>
<path d="M301.385 73.1668C301.488 72.5806 301.582 72.0686 301.658 71.6562C300.211 72.1032 298.706 72.3192 297.23 72.1767C297.089 72.5935 296.941 73.0457 296.789 73.5256C298.259 73.8449 299.857 73.659 301.385 73.1668Z" fill="#F2F2F2"/>
<path d="M313.42 104.5L308.885 103.189C308.885 103.189 300.454 91.7929 299.887 87.6362C299.481 84.6585 300.674 77.1744 301.384 73.167C299.857 73.6592 298.259 73.8451 296.789 73.5255C295.491 77.6156 293.878 83.833 293.935 89.3367L304.705 109.389C304.705 109.389 304.044 126.087 302.816 132.417C301.587 138.747 298.47 142.904 298.47 142.904C298.47 142.904 300.926 148.289 307.256 150.462C307.256 150.462 302.721 130.008 313.42 104.5Z" fill="#32487A"/>
<path d="M298.708 67.7782C298.708 67.7782 296.628 66.5913 296.84 64.253C297.053 61.9147 298.612 59.4349 300.454 59.1512C300.454 59.1512 299.25 56.6714 300.454 56.2461C301.659 55.8209 304.862 60.9212 304.847 64.5364C304.832 68.1515 298.708 67.7782 298.708 67.7782Z" fill="#96B5FF"/>
<path d="M321.285 127.457C322.986 122.78 326.529 118.954 326.529 113.853C326.841 114.436 327.153 115.015 327.465 115.593C327.443 111.734 326.245 107.853 326.245 107.853L318.288 104.641C318.288 104.641 311.035 123.725 314.341 150.462C314.341 150.462 321.332 150.367 326.34 144.982C326.34 144.982 321.143 134.495 320.954 131.283C320.946 131.144 320.951 131 320.965 130.85C320.846 129.728 320.92 128.592 321.285 127.457Z" fill="#32487A"/>
<path d="M326.529 113.853C326.529 118.954 322.986 122.781 321.286 127.457C320.921 128.593 320.847 129.728 320.966 130.85C321.287 127.528 326.928 121.554 327.38 117.395C327.444 116.805 327.469 116.199 327.465 115.593C327.154 115.015 326.842 114.436 326.529 113.853ZM317.531 139.284C317.439 139.284 317.349 139.239 317.295 139.157C317.208 139.027 317.243 138.851 317.373 138.764L321.377 136.097C321.507 136.01 321.683 136.046 321.77 136.176C321.856 136.306 321.821 136.482 321.691 136.569L317.688 139.236C317.639 139.268 317.585 139.284 317.531 139.284Z" fill="#263966"/>
<path d="M325.679 141.487C324.12 141.912 322.278 141.77 321.145 140.495C321.421 141.601 321.817 142.706 321.865 143.851C321.877 143.85 321.889 143.85 321.9 143.849C323.317 143.66 321.9 141.298 321.9 141.298C321.9 141.298 323.979 143.66 326.718 142.81C329.458 141.959 328.514 138.086 328.514 138.086C329.097 137.731 329.668 137.352 330.224 136.956C330.001 136.504 329.737 136.076 329.438 135.68C328.648 136.162 327.822 136.591 326.955 136.952C327.805 138.511 327.521 141.062 325.679 141.487Z" fill="#7E9FED"/>
<path d="M326.151 133.411C325.798 133.737 325.584 133.929 325.584 133.929C325.584 133.929 323.695 134.496 322.045 135.243C317.162 137.455 320.428 143.931 321.864 143.851C321.816 142.706 321.42 141.601 321.144 140.495C322.277 141.77 324.12 141.912 325.678 141.487C327.521 141.061 327.804 138.511 326.954 136.952C327.821 136.591 328.647 136.162 329.437 135.68C328.598 134.572 327.473 133.73 326.151 133.411Z" fill="#96B5FF"/>
<path d="M327.417 132.226C326.914 132.704 326.474 133.114 326.151 133.411C327.945 133.845 329.377 135.238 330.223 136.956C330.628 136.668 331.025 136.371 331.415 136.067C330.58 134.35 329.147 132.906 327.417 132.226Z" fill="#F2F2F2"/>
<path d="M326.027 117.207L332.296 124.928C330.531 121.204 328.531 117.591 326.529 113.853C326.529 115.031 326.339 116.14 326.027 117.207Z" fill="#263966"/>
<path d="M327.649 109.123C326.779 108.311 326.246 107.854 326.246 107.854L325.49 116.545L326.028 117.207C326.339 116.14 326.529 115.03 326.529 113.853C328.532 117.591 330.531 121.204 332.297 124.928L333.048 125.853C332.489 127.252 329.441 130.3 327.417 132.226C328.719 132.738 329.852 133.682 330.69 134.85C333.948 132.512 336.558 129.244 338.858 125.899C336.176 119.601 332.15 114.167 327.649 109.123Z" fill="#32487A"/>
<path d="M327.648 109.123C332.149 114.167 336.176 119.601 338.858 125.898C336.558 129.244 333.948 132.511 330.689 134.849C330.965 135.233 331.208 135.641 331.415 136.067C336.894 131.786 340.7 126.182 340.7 126.182C337.695 119 330.656 111.932 327.648 109.123Z" fill="#263966"/>
<path d="M310.657 209.651L307.162 213.902H326.766L310.657 209.651Z" fill="#263966"/>
<path d="M310.657 209.651L313.634 213.902H294.927L310.657 209.651Z" fill="#263966"/>
<path d="M319.444 72.5909L301.795 64.0013L287.893 77.8588L290.608 58.4183L273.133 49.4789L292.461 46.0537L295.563 26.6714L304.793 43.995L324.185 40.9557L310.561 55.0871L319.444 72.5909Z" fill="#85AAFF"/>
<path d="M316.889 70.0964L301.59 62.6509L289.539 74.6626L291.893 57.8114L276.745 50.0628L293.499 47.0939L296.188 30.293L304.188 45.3091L320.997 42.6745L309.189 54.924L316.889 70.0964Z" fill="#467DFF"/>
<path d="M303.571 65.3872C303.004 64.3953 302.437 63.2615 303.146 62.2696C303.388 61.9469 303.86 61.717 304.352 61.7349C303.897 60.927 303.392 60.3564 302.933 60.3564C301.658 60.3564 300.95 63.1907 302.65 64.466C302.65 64.466 300.679 64.7271 299.379 66.5247C300.573 65.5828 302.072 64.9588 303.571 65.3872Z" fill="#7E9FED"/>
<path d="M304.353 61.7349C303.861 61.7169 303.388 61.9468 303.147 62.2695C302.438 63.2614 303.005 64.3952 303.572 65.3872C302.072 64.9588 300.573 65.5828 299.38 66.5247C298.926 67.1528 298.553 67.9667 298.376 69.0243L301.872 70.5358C301.872 70.5358 305.698 68.1503 305.769 66.4498C305.814 65.3617 305.162 63.1715 304.353 61.7349ZM315.169 100.458C315.031 101.73 314.571 103.182 313.421 104.5L313.775 109.389L318.289 104.642L319.554 99.7208C318.132 100.106 316.656 100.34 315.169 100.458Z" fill="#96B5FF"/>
<path d="M313.09 95.5718L315.625 96.6109C315.625 96.6109 314.176 97.8862 313.421 97.5792C312.665 97.2723 313.09 95.5718 313.09 95.5718Z" fill="white"/>
<path d="M311.562 103.963L308.389 107.476L309.452 109.389L305.272 110.593C305.272 110.593 305.214 125.951 306.447 134.174C306.918 126.184 308.662 115.843 313.42 104.5L311.562 103.963ZM313.51 133.776C314.422 129.002 321.997 113.144 321.997 113.144L318.734 110.31L320.931 108.964L320.311 105.458L318.288 104.641C318.288 104.642 313.921 116.135 313.51 133.776ZM301.384 73.167C301.168 73.2365 300.951 73.2991 300.733 73.356L298.375 89.1241L308.885 103.189C308.885 103.189 300.454 91.7929 299.886 87.6362C299.48 84.6585 300.674 77.1744 301.384 73.167Z" fill="#263966"/>
<path d="M305.649 135.449C305.858 135.449 306.027 135.13 306.027 134.736C306.027 134.342 305.858 134.023 305.649 134.023C305.441 134.023 305.271 134.342 305.271 134.736C305.271 135.13 305.441 135.449 305.649 135.449Z" fill="#263966"/>
<path d="M305.84 137.046C305.84 137.44 305.671 137.759 305.462 137.759C305.253 137.759 305.084 137.44 305.084 137.046C305.084 136.653 305.253 136.333 305.462 136.333C305.671 136.333 305.84 136.653 305.84 137.046ZM314.146 134.878C314.081 134.878 314.022 134.832 314.008 134.766C313.991 134.689 314.04 134.614 314.116 134.598L315.463 134.31C315.539 134.293 315.615 134.342 315.631 134.419C315.647 134.495 315.599 134.571 315.522 134.587L314.176 134.875C314.166 134.877 314.156 134.878 314.146 134.878ZM314.271 136.904C314.206 136.904 314.147 136.859 314.133 136.792C314.116 136.716 314.165 136.64 314.242 136.624L315.588 136.336C315.664 136.32 315.74 136.369 315.756 136.445C315.773 136.521 315.724 136.597 315.647 136.613L314.301 136.901C314.291 136.903 314.281 136.904 314.271 136.904Z" fill="#263966"/>
<path d="M320.057 112.837C320.027 112.837 319.996 112.827 319.97 112.807L318.623 111.744C318.562 111.696 318.551 111.607 318.6 111.545C318.648 111.483 318.737 111.473 318.799 111.522L320.145 112.585C320.207 112.633 320.217 112.722 320.169 112.784C320.141 112.819 320.099 112.837 320.057 112.837Z" fill="#32487A"/>
<path d="M323.388 118.765C323.383 118.765 323.378 118.765 323.373 118.765L318.274 118.623C318 118.616 317.785 118.387 317.792 118.114C317.8 117.84 318.032 117.623 318.302 117.632L323.401 117.773C323.675 117.781 323.89 118.009 323.883 118.283C323.876 118.552 323.655 118.765 323.388 118.765ZM304.032 138.546C303.955 138.546 303.879 138.515 303.823 138.454L302.051 136.525C301.945 136.41 301.953 136.23 302.068 136.125C302.183 136.019 302.363 136.027 302.469 136.142L304.24 138.071C304.346 138.186 304.338 138.366 304.223 138.471C304.169 138.521 304.1 138.546 304.032 138.546Z" fill="#263966"/>
<path d="M313.635 109.708L312.267 110.995L312.57 112.672L314.073 111.261L313.635 109.708Z" fill="#648BE5"/>
<path d="M313.123 111.274C308.651 119.162 305.462 132.226 305.462 132.226C305.462 132.226 308.509 138.588 308.86 139.237C308.012 129.749 310.156 120.276 313.123 111.274Z" fill="#648BE5"/>
<path d="M314.129 133.776C312.405 126.255 313.17 111.189 313.17 111.189C313.155 111.217 313.139 111.246 313.123 111.273C310.156 120.275 308.012 129.748 308.86 139.237C308.872 139.259 308.881 139.275 308.886 139.283C309.051 139.537 314.129 133.776 314.129 133.776Z" fill="#4A75DB"/>
<path d="M330.805 135.878C330.805 136.025 330.685 136.144 330.539 136.144C330.392 136.144 330.272 136.025 330.272 135.878C330.272 135.731 330.392 135.612 330.539 135.612C330.685 135.612 330.805 135.731 330.805 135.878Z" fill="white"/>
<path d="M331.807 135.297C332.054 135.297 332.254 135.097 332.254 134.849C332.254 134.602 332.054 134.402 331.807 134.402C331.56 134.402 331.359 134.602 331.359 134.849C331.359 135.097 331.56 135.297 331.807 135.297Z" fill="#32487A"/>
<path d="M332.786 134.541C333.034 134.541 333.234 134.341 333.234 134.094C333.234 133.846 333.034 133.646 332.786 133.646C332.539 133.646 332.339 133.846 332.339 134.094C332.339 134.341 332.539 134.541 332.786 134.541Z" fill="#32487A"/>
<path d="M333.682 133.703C333.929 133.703 334.129 133.502 334.129 133.255C334.129 133.008 333.929 132.808 333.682 132.808C333.435 132.808 333.234 133.008 333.234 133.255C333.234 133.502 333.435 133.703 333.682 133.703Z" fill="#32487A"/>
<path d="M297.179 74.9996C297.426 74.9996 297.627 74.7992 297.627 74.552C297.627 74.3049 297.426 74.1045 297.179 74.1045C296.932 74.1045 296.731 74.3049 296.731 74.552C296.731 74.7992 296.932 74.9996 297.179 74.9996Z" fill="#263966"/>
<path d="M297.868 72.891C297.868 73.0433 297.744 73.1669 297.592 73.1669C297.44 73.1669 297.316 73.0433 297.316 72.891C297.316 72.7388 297.44 72.6152 297.592 72.6152C297.745 72.6155 297.868 72.7388 297.868 72.891Z" fill="white"/>
<path d="M296.869 76.1949C297.117 76.1949 297.317 75.9945 297.317 75.7473C297.317 75.5002 297.117 75.2998 296.869 75.2998C296.622 75.2998 296.422 75.5002 296.422 75.7473C296.422 75.9945 296.622 76.1949 296.869 76.1949Z" fill="#263966"/>
<path d="M296.497 77.3907C296.744 77.3907 296.945 77.1903 296.945 76.9431C296.945 76.696 296.744 76.4956 296.497 76.4956C296.25 76.4956 296.05 76.696 296.05 76.9431C296.05 77.1903 296.25 77.3907 296.497 77.3907Z" fill="#263966"/>
</svg>
