<svg width="780" height="790" viewBox="0 0 780 790" fill="none" xmlns="http://www.w3.org/2000/svg">
<path d="M336.16 310.628V324.927C336.16 326.112 335.692 327.198 334.912 327.968C334.152 328.739 333.079 329.232 331.909 329.232C329.569 329.232 327.658 331.168 327.658 333.538V577.036C327.658 579.406 325.747 581.341 323.407 581.341H129.519C127.179 581.341 125.268 579.406 125.268 577.036V333.538C125.268 332.353 124.8 331.267 124.02 330.496C123.259 329.726 122.187 329.232 121.017 329.232C118.677 329.232 116.766 327.297 116.766 324.927V310.628C116.766 308.258 118.677 306.322 121.017 306.322H121.953C124.293 306.322 126.184 304.387 126.204 302.017C126.379 256.177 163.273 230.028 193.966 223.412C211.36 219.659 219.453 213.754 223.216 209.192C224.913 207.138 228.033 207.138 229.729 209.192C233.493 213.754 241.585 219.679 258.979 223.412C260.812 223.807 262.645 224.261 264.517 224.794C276.958 228.349 289.984 234.985 300.865 244.742C305.389 248.791 309.523 253.353 313.131 258.468C320.404 268.817 325.396 281.339 326.508 296.052C326.664 297.988 326.742 299.983 326.742 301.997C326.742 304.367 328.633 306.303 330.993 306.303H331.929C334.269 306.322 336.16 308.258 336.16 310.628Z" fill="#ADCDFD"/>
<path d="M249.171 291.293C208.396 296.744 265.941 375.981 209.898 403.947C174.193 421.761 141.706 403.572 125.268 390.892V345.151C165.048 341.142 150.715 301.306 163.975 279.621C189.774 237.435 229.222 253.847 255.372 241.938C265.765 237.198 266.916 230.799 264.517 224.814C276.958 228.369 289.984 235.005 300.865 244.762C304.434 267.85 288.99 285.96 249.171 291.293Z" fill="#D4E5FF"/>
<path d="M327.678 369.957C323.466 337.528 310.927 311.951 326.508 296.092C325.396 281.378 320.404 268.837 313.131 258.508C312.526 269.489 306.793 282.405 286.981 291.569C245.583 310.707 246.441 367.785 265.941 403.256C285.694 439.181 190.554 418.048 125.268 437.956V498.214C129.519 497.305 134.14 496.515 139.152 495.883C226.414 485.06 290.998 504.672 321.399 428.299C324.538 420.399 326.527 412.696 327.678 405.25C329.589 392.768 329.101 380.958 327.678 369.957ZM291.583 325.421C286.045 332.314 278.343 335.256 274.423 331.998C270.484 328.739 271.81 320.523 277.348 313.65C282.886 306.757 290.589 303.814 294.508 307.073C298.428 310.332 297.121 318.548 291.583 325.421Z" fill="#D4E5FF"/>
<path d="M146.181 329.867C148.953 326.427 149.603 322.32 147.634 320.692C145.665 319.064 141.822 320.533 139.05 323.972C136.279 327.412 135.628 331.519 137.598 333.147C139.567 334.775 143.41 333.306 146.181 329.867Z" fill="#D4E5FF"/>
<path d="M688.447 310.628V324.927C688.447 326.112 687.979 327.198 687.199 327.968C686.439 328.739 685.366 329.232 684.196 329.232C681.856 329.232 679.945 331.168 679.945 333.538V577.036C679.945 579.406 678.034 581.341 675.694 581.341H481.786C479.446 581.341 477.535 579.406 477.535 577.036V333.538C477.535 332.353 477.067 331.267 476.287 330.496C475.527 329.726 474.454 329.232 473.284 329.232C470.944 329.232 469.033 327.297 469.033 324.927V310.628C469.033 308.258 470.944 306.322 473.284 306.322H474.22C476.56 306.322 478.452 304.387 478.471 302.017C478.647 256.177 515.541 230.028 546.234 223.412C563.628 219.659 571.72 213.754 575.484 209.192C577.18 207.138 580.3 207.138 581.997 209.192C585.76 213.754 593.853 219.679 611.247 223.412C613.08 223.807 614.913 224.261 616.785 224.794C629.226 228.349 642.252 234.985 653.133 244.742C657.657 248.791 661.791 253.353 665.398 258.468C672.672 268.817 677.664 281.339 678.775 296.052C678.931 297.988 679.009 299.983 679.009 301.997C679.009 304.367 680.901 306.303 683.26 306.303H684.196C686.536 306.322 688.447 308.258 688.447 310.628Z" fill="#D1E2FC"/>
<path d="M601.438 291.293C560.664 296.744 618.208 375.981 562.165 403.947C526.461 421.761 493.974 403.572 477.535 390.892V345.151C517.315 341.142 502.983 301.306 516.243 279.621C542.041 237.435 581.49 253.847 607.639 241.938C618.033 237.198 619.183 230.799 616.785 224.814C629.226 228.369 642.252 235.005 653.133 244.762C656.701 267.85 641.277 285.96 601.438 291.293Z" fill="#E3EEFF"/>
<path d="M679.945 369.957C675.714 337.528 663.195 311.951 678.775 296.092C677.664 281.378 672.672 268.837 665.398 258.508C664.794 269.489 659.061 282.405 639.249 291.569C597.85 310.707 598.708 367.785 618.208 403.256C637.962 439.181 542.821 418.048 477.535 437.956V498.214C481.786 497.285 486.408 496.515 491.419 495.883C578.682 485.06 643.266 504.672 673.666 428.299C676.806 420.399 678.795 412.696 679.945 405.25C681.856 392.768 681.388 380.958 679.945 369.957ZM643.851 325.421C638.293 332.314 630.61 335.256 626.691 331.998C622.752 328.739 624.078 320.523 629.616 313.65C635.173 306.757 642.856 303.814 646.776 307.073C650.715 310.332 649.389 318.548 643.851 325.421Z" fill="#E3EEFF"/>
<path d="M498.446 329.875C501.217 326.436 501.868 322.328 499.899 320.7C497.93 319.073 494.087 320.541 491.315 323.981C488.544 327.42 487.893 331.528 489.862 333.155C491.831 334.783 495.674 333.314 498.446 329.875Z" fill="#E3EEFF"/>
<path d="M637.085 505.284C639.347 507.812 635.7 511.821 635.7 511.821L637.377 513.48L639.347 510.478C641.843 505.521 647.79 507.614 655.064 509.135C662.337 510.656 668.285 503.526 668.285 503.526C664.872 505.422 663.234 505.62 656.916 502.578C650.598 499.537 640.653 506.805 640.653 506.805L642.233 504.573C650.754 496.495 658.574 499.379 667.563 498.628C676.553 497.878 677.528 496.851 683.475 490.274C689.423 483.697 688.058 479.945 688.058 479.945C679.965 483.302 672.965 487.45 669.26 491.34C665.555 495.231 665.477 494.639 656.643 495.784C647.81 496.93 644.495 500.978 644.495 500.978C647.888 495.962 648.336 487.469 648.336 487.469C650.267 482.275 659.12 486.936 663.995 483.658C668.87 480.379 669.611 480.695 680.589 480.241C691.548 479.787 695.39 468.154 695.39 468.154C689.423 470.623 682.13 470.978 677.157 474.612C672.185 478.246 666.374 476.093 660.641 476.113C654.908 476.133 647.751 483.322 647.751 483.322C647.751 483.322 647.127 484.843 648.258 480.754C649.409 476.666 650.598 480.419 655.142 476.33C659.685 472.242 660.582 468.253 669.065 467.818C677.547 467.384 687.473 462.782 692.972 459.108C698.451 455.435 702.098 446.626 693.888 453.322C685.679 460.017 678.815 457.449 672.497 457.588C666.159 457.746 664.307 461.202 658.184 466.455C652.061 471.709 647.712 477.851 647.712 477.851L647.556 472.104C650.793 471.61 653.016 468.746 654.927 465.448C656.838 462.15 659.51 459.148 665.672 456.758C671.834 454.368 673.101 449.451 675.188 443.881C677.274 438.312 681.623 436.04 680.979 435.211C680.336 434.381 674.817 438.391 671.346 440.129C667.875 441.886 665.165 447.871 658.905 449.984C652.646 452.117 647.088 457.548 647.088 457.548C647.088 457.548 646.757 455.968 647.693 452.907C648.629 449.846 652.997 449.154 655.668 446.152C658.34 443.17 658.476 443.111 663.468 442.459C668.46 441.807 673.862 435.171 675.656 431.597C677.469 428.022 679.4 424.566 679.4 424.566C679.4 424.566 673.14 424.961 668.772 428.97C664.424 432.959 660.836 433.67 654.576 436.416C648.317 439.161 646.25 447.239 646.25 447.239L646.133 444.73C646.133 444.73 646.679 435.448 654.03 432.643C661.382 429.839 659.841 425.178 667.719 423.677C675.597 422.176 681.311 419.924 687.239 416.784C693.167 413.624 694.181 411.55 693.186 411.373C692.192 411.195 689.91 412.735 684.86 412.34C679.809 411.945 678.717 411.827 673.472 413.762C668.207 415.698 664.151 413.15 657.911 414.671C651.671 416.192 647.342 425.04 647.342 425.04C647.342 425.04 647.751 420.872 648.882 414.75C656.175 413.92 660.719 407.502 660.719 407.502C675.89 416.132 686.342 403.611 686.342 403.611C686.342 403.611 682.988 405.941 677.508 404.44C672.029 402.939 668.87 403.196 668.87 403.196C677.645 398.733 680.316 388.937 680.316 388.937C677.879 394.368 666.003 395.81 662.357 397.429C658.71 399.049 657.56 402.821 657.56 402.821C653.952 403.374 652.509 404.677 652.509 404.677C652.509 404.677 654.479 398.91 656.819 394.072C659.159 389.213 668.421 389.983 675.987 388.028C683.553 386.073 685.25 378.43 685.25 378.43C683.553 380.543 679.946 379.101 675.012 380.424C670.098 381.748 665.769 384.592 665.769 384.592C666.822 382.873 671.405 380.721 676.845 377.778C682.266 374.815 681.798 371.616 681.798 371.616C681.798 371.616 680.297 372.11 677.898 373.67C675.5 375.21 672.087 375.21 672.419 373.907C672.75 372.603 675.948 372.287 680.219 370.767C684.489 369.246 689.715 363.775 686.283 364.091C682.851 364.407 676.202 365.039 673.16 367.863C670.118 370.688 666.92 373.907 666.92 373.907C666.92 373.907 667.232 372.959 668.928 369.068C670.625 365.177 671.912 365.829 677.216 361.405C682.52 356.981 682.832 352.024 682.5 348.271C682.149 344.539 686.205 342.504 686.205 342.504C686.205 342.504 685.074 342.267 682.676 343.255C680.277 344.242 679.692 348.844 677.138 350.839C674.583 352.834 673.277 353.959 673.277 353.959C676.592 347.185 672.575 344.716 672.575 344.716C672.965 347.975 668.441 354.907 667.212 358.462C665.984 362.037 668.07 366.343 667.446 369.424C666.822 372.505 662.805 378.054 662.805 378.054C662.805 378.054 662.727 376.435 661.674 371.813C660.621 367.192 665.204 362.709 665.418 354.611C665.633 346.514 660.855 345.329 660.855 345.329C663.546 348.805 656.585 362.985 656.78 368.91C656.955 374.835 661.577 380.029 661.577 380.029L657.521 387.831L658.535 384.789C659.822 381.076 657.443 376.06 655.883 373.295C654.303 370.53 655.824 370.846 655.629 363.755C655.434 356.665 651.944 356.724 651.944 356.724C655.005 363.143 650.345 367.745 651.222 374.914C652.1 382.083 657.384 384.434 656.156 389.825C654.908 395.197 651.651 403.611 651.651 403.611C651.047 402.13 651.398 394.921 649.955 390.201C648.512 385.461 649.233 379.99 649.506 373.749C649.779 367.508 646.464 366.224 646.464 366.224C647.673 372.307 641.511 383.505 641.355 389.667C641.219 395.849 649.487 402.939 650.228 404.361C650.949 405.783 649.331 410.227 647.361 414.177C645.392 418.127 645.587 427.469 645.587 427.469L645.138 424.822C642.837 420.28 642.233 412.222 640.673 404.539C639.132 396.856 634.667 398.081 630.513 396.659C626.379 395.237 623.747 392.393 623.747 392.393C627.666 400.471 631.04 399.108 631.371 403.354C631.703 407.62 634.979 420.379 633.848 425.237C632.717 430.096 637.319 437.285 641.141 442.143C644.963 447.002 646.796 453.46 645.275 457.37C643.754 461.301 643.461 452.472 638.976 448.68C634.511 444.888 636.558 443.091 634.862 438.47C633.146 433.848 632.366 434.954 629.753 431.162C627.14 427.37 627.335 419.766 625.541 413.604C623.747 407.442 621.29 405.941 621.29 405.941C623.532 411.136 623.513 432.209 625.092 435.784C626.652 439.378 630.767 443.21 635.33 449.905C639.893 456.6 643.5 458.062 645.041 461.893C646.581 465.725 644.163 469.122 644.163 469.122C642.038 469.22 640.712 464.421 639.093 458.358C637.455 452.295 627.959 445.441 620.744 441.116C613.529 436.791 613.958 427.449 613.646 433.591C613.334 439.714 620.802 448.048 620.549 448.779C620.295 449.51 615.966 450.28 612.924 450.596C609.882 450.912 607.64 448.463 607.64 448.463C607.64 448.463 609.102 452.097 616.727 456.778C624.351 461.459 627.881 456.403 631.644 460.333C635.408 464.263 637.767 468.904 642.642 471.472C647.517 474.039 645.743 477.14 645.197 487.588C644.651 498.055 641.706 502.558 639.854 501.689C638.001 500.82 640.77 495.903 640.712 487.094C640.653 478.286 637.611 480.261 637.065 474.02C636.519 467.779 634.023 469.635 632.483 466.969C630.942 464.303 631.04 462.505 629.246 462.426C627.471 462.347 629.012 470.682 630.162 475.066C631.313 479.451 629.46 477.555 625.112 475.126C620.763 472.696 616.941 471.452 616.941 471.452C620.042 476.449 616.746 485.178 622.772 492.427C628.778 499.616 634.842 502.756 637.085 505.284ZM638.333 459.029C639.308 463.73 641.609 468.569 641.609 468.569C635.603 463.355 638.333 459.029 638.333 459.029ZM649.409 413.328C649.409 413.328 650.325 407.837 655.805 407.146C655.805 407.166 655.532 411.926 649.409 413.328ZM647.186 470.03C645.645 462.308 653.601 459.839 653.601 459.839C652.919 467.245 647.186 470.03 647.186 470.03Z" fill="url(#paint0_linear_238_431)"/>
<path d="M509.165 429.325L504.29 482.315L441.929 514.152C420.44 507.219 400.803 512.67 400.803 512.67C400.803 512.67 398.873 514.882 401.739 517.114C403.826 518.734 412.269 518.2 412.269 518.2L419.133 521.143L416.52 523.039C412.503 525.942 407.745 527.621 402.831 527.858C397.976 528.095 392.282 528.451 390.8 528.806C387.894 529.497 389.22 532.875 391.658 533.25L388.499 533.684C383.117 534.158 383.526 539.451 386.217 539.787L389.922 539.906C385.964 540.498 386.022 545.1 388.538 544.744L396.747 544.33C392.477 545.317 393.569 548.931 395.811 548.793L422.994 547.193C424.086 547.134 425.159 546.877 426.173 546.463L451.289 539.175C468.858 535.422 518.408 530.722 523.361 527.641C547.892 512.414 549.959 492.071 549.959 492.071L558.441 438.884C559.143 398.871 517.862 393.953 509.165 429.325Z" fill="url(#paint1_linear_238_431)"/>
<path d="M494.773 461.775L550.953 474.829C550.953 474.829 570.063 398.397 539.136 393.38C509.184 388.522 501.403 407.482 494.773 461.775Z" fill="url(#paint2_linear_238_431)"/>
<path d="M550.953 474.829L494.773 461.775L496.353 449.668L553.332 463.552L550.953 474.829Z" fill="white"/>
<path d="M595.725 380.562L622.128 382.952C633.691 385.46 646.893 392.63 648.16 421.109L652.763 581.361H513.708L523.166 406.712C523.166 406.712 522.132 387.06 544.421 383.169L561.054 381.293L595.725 380.562Z" fill="url(#paint3_linear_238_431)"/>
<path d="M585.546 410.346C585.604 410.346 585.682 410.326 585.741 410.326C585.916 410.307 586.111 410.267 586.228 410.228C586.092 410.247 585.975 410.287 585.838 410.306C585.741 410.326 585.643 410.346 585.546 410.346ZM602.257 396.521C602.257 396.501 602.004 397.133 601.906 397.37C602.062 397.094 602.257 396.738 602.257 396.521Z" fill="#012A68"/>
<path d="M602.804 421.741L595.374 474.434L492.57 515.455C471.432 507.476 451.561 511.94 451.561 511.94C451.561 511.94 449.514 514.073 452.283 516.423C454.291 518.141 462.755 518.023 462.755 518.023L469.462 521.301L466.752 523.059C462.599 525.765 457.782 527.206 452.849 527.206C447.974 527.206 442.279 527.266 440.778 527.562C437.853 528.115 439.003 531.532 441.421 532.045L438.243 532.322C432.841 532.539 432.997 537.852 435.669 538.306L439.374 538.602C435.376 538.997 435.24 543.579 437.755 543.362L445.985 543.342C441.675 544.112 442.591 547.786 444.834 547.766L472.056 547.509C473.148 547.49 474.24 547.312 475.274 546.937L500.467 538.069C518.193 535.185 586.658 531.137 610.253 524.757C638.703 517.035 640.555 486.442 640.555 486.442L651.573 433.749C654.166 393.795 613.178 386.863 602.804 421.741Z" fill="url(#paint4_linear_238_431)"/>
<path d="M592.195 464.638L648.375 477.693C648.375 477.693 667.485 401.261 636.558 396.244C606.606 391.386 598.825 410.365 592.195 464.638Z" fill="url(#paint5_linear_238_431)"/>
<path d="M648.375 477.713L592.195 464.638L593.794 452.532L650.754 466.416L648.375 477.713Z" fill="white"/>
<path d="M552.24 382.281C552.24 382.281 551.421 410.247 578.643 410.366C608.107 410.484 605.611 381.471 605.611 381.471C605.611 381.471 584.98 378.943 552.24 382.281Z" fill="white"/>
<path d="M578.643 402.189C589.271 402.189 597.89 393.459 597.89 382.696V341.576H559.396V382.696C559.396 393.459 568.015 402.189 578.643 402.189Z" fill="url(#paint6_linear_238_431)"/>
<path d="M592.976 342.544C591.084 344.638 589.817 347.087 589.154 349.891C588.608 352.202 587.906 354.453 587.106 356.685C585.273 360.576 583.109 364.269 580.632 367.785C577.356 371.754 573.729 375.408 569.79 378.706C566.534 381.076 563.102 383.229 559.553 385.086C559.455 384.296 559.416 383.506 559.416 382.676V341.557H593.678C593.424 341.873 593.19 342.208 592.976 342.544Z" fill="#3B7DE0"/>
<path d="M537.108 325.105C523.926 322.004 518.758 306.204 531.648 295.796C531.648 295.796 528.119 268.165 563.18 266.072C589.544 264.492 591.24 274.011 597.85 282.168C600.483 281.378 603.018 281.595 605.3 282.346C611.715 284.42 615.927 290.601 615.888 297.415C615.81 313.551 608.341 340.45 592.312 350.681L537.108 325.105Z" fill="#012A68"/>
<path d="M535.411 313.867C535.411 313.867 535.47 328.541 537.634 354.651C539.409 375.981 568.756 373.374 580.047 367.942C590.694 362.827 600.444 357.08 602.062 338.278L603.271 328.047C603.271 328.047 614.952 319.101 610.623 308.752C606.84 299.686 599.527 301.01 595.588 306.362C593.521 309.147 593.014 313.018 593.014 313.018L593.034 325.658L587.281 326.685L585.604 311.951C585.273 308.969 583.147 306.461 580.242 305.769C576.517 304.861 572.188 306.54 569.965 300.18C569.965 300.2 560.976 315.763 535.411 313.867Z" fill="url(#paint7_linear_238_431)"/>
<path d="M596.934 322.992C596.895 322.992 596.856 322.992 596.817 322.992C596.271 322.913 595.9 322.419 595.978 321.886C595.998 321.767 596.368 318.943 597.87 315.98C599.917 311.951 603.096 309.641 607.035 309.305C607.581 309.265 608.049 309.66 608.088 310.213C608.127 310.766 607.737 311.24 607.191 311.28C603.915 311.556 601.38 313.433 599.625 316.83C598.26 319.476 597.928 322.103 597.909 322.123C597.831 322.636 597.421 322.992 596.934 322.992Z" fill="#012A68"/>
<path d="M603.876 318.646C603.623 318.646 603.35 318.548 603.155 318.33L599.645 314.538C599.274 314.143 599.294 313.511 599.684 313.136C600.074 312.761 600.698 312.781 601.068 313.176L604.578 316.968C604.949 317.363 604.929 317.995 604.539 318.37C604.364 318.548 604.13 318.646 603.876 318.646ZM561.775 372.959C560.274 372.959 559.377 372.88 559.299 372.86C558.753 372.801 558.363 372.327 558.422 371.774C558.48 371.221 558.948 370.826 559.494 370.885C559.709 370.905 577.239 372.386 590.363 360.734C590.772 360.378 591.396 360.418 591.747 360.832C592.098 361.247 592.059 361.879 591.65 362.235C584.435 368.634 576.03 371.181 570.239 372.189C566.709 372.821 563.726 372.959 561.775 372.959ZM421.824 537.259C421.532 537.259 421.259 537.141 421.064 536.904C414.882 529.26 418.1 521.104 418.236 520.768C418.451 520.255 419.016 520.018 419.523 520.235C420.03 520.452 420.264 521.025 420.05 521.538C419.933 521.834 417.164 528.964 422.585 535.679C422.936 536.094 422.858 536.726 422.448 537.081C422.253 537.18 422.039 537.259 421.824 537.259Z" fill="#012A68"/>
<path d="M504.29 483.302C503.9 483.302 503.549 483.065 503.393 482.69C503.179 482.176 503.412 481.604 503.919 481.386L510.959 478.424C511.466 478.207 512.031 478.444 512.246 478.957C512.46 479.471 512.226 480.043 511.719 480.261L504.68 483.223C504.544 483.282 504.407 483.302 504.29 483.302ZM607.601 478.147C607.523 478.147 607.465 478.147 607.387 478.128L595.16 475.402C594.634 475.284 594.302 474.75 594.419 474.217C594.536 473.684 595.063 473.348 595.589 473.467L607.815 476.192C608.342 476.311 608.674 476.844 608.557 477.377C608.459 477.831 608.049 478.147 607.601 478.147Z" fill="#012A68"/>
<path d="M364.007 433.039L306.502 545.239C303.46 550.709 275.38 565.147 257.693 539.649L223.393 397.943L259.585 394.724C272.494 393.578 283.979 403.039 285.481 416.074L291.136 464.975L339.905 415.244L364.007 433.039Z" fill="url(#paint8_linear_238_431)"/>
<path d="M206.329 380.563L179.907 382.953C168.343 385.461 155.142 392.63 153.874 421.11L149.272 581.361H288.327L278.869 406.712C278.869 406.712 279.903 387.061 257.614 383.17L240.981 381.294L206.329 380.563Z" fill="#5389DB"/>
<path opacity="0.47" d="M171.659 472.855C181.507 482.019 189.95 492.881 196.678 504.573C203.561 516.522 208.787 529.596 212.297 542.967C213.994 549.445 215.222 556.022 216.178 562.658C217.075 568.879 218.089 575.1 218.674 581.361H288.367L279.338 414.612C276.472 419.233 273.235 423.638 269.939 427.825C265.942 432.9 261.613 437.759 256.933 442.203C250.42 448.365 242.99 453.045 234.644 456.225C219.278 462.071 201.533 460.076 187.591 451.386C184.783 449.629 182.131 447.594 179.498 445.58C176.3 443.111 173.122 440.603 170.08 437.917C164.249 432.802 159.062 427.153 154.421 420.912C154.265 420.695 154.109 420.497 153.953 420.28C153.934 420.557 153.914 420.833 153.914 421.11L152.842 458.22C159.53 462.506 165.829 467.423 171.659 472.855Z" fill="#2E5FA8"/>
<g opacity="0.47">
<path opacity="0.47" d="M168.617 363.321H165.789V608.715H168.617V363.321Z" fill="#2E5FA8"/>
</g>
<g opacity="0.47">
<path opacity="0.47" d="M187.883 363.321H185.056V608.715H187.883V363.321Z" fill="#2E5FA8"/>
</g>
<g opacity="0.47">
<path opacity="0.47" d="M207.149 363.321H204.321V608.715H207.149V363.321Z" fill="#2E5FA8"/>
</g>
<g opacity="0.47">
<path opacity="0.47" d="M226.396 363.321H223.568V608.715H226.396V363.321Z" fill="#2E5FA8"/>
</g>
<g opacity="0.47">
<path opacity="0.47" d="M245.661 363.321H242.834V608.715H245.661V363.321Z" fill="#2E5FA8"/>
</g>
<g opacity="0.47">
<path opacity="0.47" d="M264.908 363.321H262.08V608.715H264.908V363.321Z" fill="#2E5FA8"/>
</g>
<g opacity="0.47">
<path opacity="0.47" d="M284.174 363.321H281.347V608.715H284.174V363.321Z" fill="#2E5FA8"/>
</g>
<g opacity="0.47">
<path opacity="0.47" d="M346.125 379.121H103.838V381.985H346.125V379.121Z" fill="#2E5FA8"/>
</g>
<g opacity="0.47">
<path opacity="0.47" d="M346.125 398.634H103.838V401.498H346.125V398.634Z" fill="#2E5FA8"/>
</g>
<g opacity="0.47">
<path opacity="0.47" d="M346.125 418.127H103.838V420.991H346.125V418.127Z" fill="#2E5FA8"/>
</g>
<g opacity="0.47">
<path opacity="0.47" d="M346.125 437.64H103.838V440.504H346.125V437.64Z" fill="#2E5FA8"/>
</g>
<g opacity="0.47">
<path opacity="0.47" d="M346.125 457.153H103.838V460.017H346.125V457.153Z" fill="#2E5FA8"/>
</g>
<g opacity="0.47">
<path opacity="0.47" d="M346.125 476.646H103.838V479.51H346.125V476.646Z" fill="#2E5FA8"/>
</g>
<g opacity="0.47">
<path opacity="0.47" d="M346.125 496.16H103.838V499.023H346.125V496.16Z" fill="#2E5FA8"/>
</g>
<g opacity="0.47">
<path opacity="0.47" d="M346.125 513.658H103.838V516.522H346.125V513.658Z" fill="#2E5FA8"/>
</g>
<g opacity="0.47">
<path opacity="0.47" d="M346.125 531.176H103.838V534.04H346.125V531.176Z" fill="#2E5FA8"/>
</g>
<g opacity="0.47">
<path opacity="0.47" d="M346.125 548.675H103.838V551.539H346.125V548.675Z" fill="#2E5FA8"/>
</g>
<g opacity="0.47">
<path opacity="0.47" d="M346.125 566.193H103.838V569.057H346.125V566.193Z" fill="#2E5FA8"/>
</g>
<path d="M239.519 391.089C242.288 392.156 245.116 393.064 248.002 393.677C248.021 393.677 248.06 393.677 248.08 393.677C248.489 392.255 248.821 390.813 249.094 389.351C249.133 386.902 249.542 384.572 250.342 382.32L241.001 381.254L221.579 380.859C227.312 384.69 233.279 388.206 239.519 391.089Z" fill="#2A72DD"/>
<path d="M223.412 402.189C212.784 402.189 204.165 393.459 204.165 382.696V341.576H242.658V382.696C242.658 393.459 234.039 402.189 223.412 402.189Z" fill="url(#paint9_linear_238_431)"/>
<path d="M209.059 342.544C210.951 344.638 212.218 347.087 212.881 349.891C213.427 352.202 214.129 354.453 214.929 356.685C216.762 360.576 218.926 364.269 221.403 367.785C224.679 371.754 228.306 375.408 232.245 378.706C235.501 381.076 238.933 383.229 242.482 385.086C242.58 384.296 242.619 383.506 242.619 382.676V341.557H208.357C208.63 341.873 208.845 342.208 209.059 342.544Z" fill="#94BAF2"/>
<path d="M265.278 323.327C282.419 317.659 285.11 300.694 269.841 298.857L194.357 294.157C192.27 299.331 186.069 339.838 209.742 350.681L265.278 323.327Z" fill="#012A68"/>
<path d="M266.624 313.867C266.624 313.867 266.565 328.541 264.401 354.651C262.626 375.981 233.279 373.374 221.988 367.943C211.341 362.827 201.591 357.08 199.973 338.278L198.764 328.048C198.764 328.048 187.083 319.101 191.412 308.752C195.195 299.687 202.508 301.01 206.447 306.362C207.968 308.436 208.65 311.082 208.904 312.327C208.982 312.722 209.021 313.136 209.021 313.551L209.001 325.658L209.43 325.737C212.316 326.25 215.046 324.196 215.378 321.254L216.431 311.971C216.762 308.989 218.888 306.481 221.793 305.789C224.211 305.217 226.863 305.71 229.047 304.407C231.426 303.005 234.429 303.38 236.496 305.217C241.43 309.581 250.887 315.032 266.624 313.867Z" fill="url(#paint10_linear_238_431)"/>
<path d="M204.497 375.764L229.087 401.34L226.571 403.888C223.276 407.206 216.899 407.482 213.799 403.967L195.488 381.866L204.497 375.764ZM242.659 375.981L229.087 401.32L231.602 403.868C234.898 407.186 240.28 407.028 243.38 403.512L253.052 382.163L242.659 375.981Z" fill="white"/>
<path d="M205.121 322.992C204.633 322.992 204.204 322.616 204.146 322.123C204.146 322.063 203.795 319.456 202.43 316.83C200.675 313.413 198.14 311.556 194.864 311.28C194.318 311.24 193.928 310.747 193.967 310.213C194.006 309.68 194.493 309.265 195.02 309.305C198.959 309.641 202.137 311.951 204.185 315.98C205.686 318.943 206.057 321.767 206.076 321.886C206.135 322.439 205.764 322.932 205.218 322.992C205.199 322.992 205.16 322.992 205.121 322.992Z" fill="#012A68"/>
<path d="M198.16 318.646C197.926 318.646 197.672 318.548 197.497 318.37C197.107 317.995 197.087 317.363 197.458 316.968L200.968 313.176C201.338 312.781 201.962 312.761 202.352 313.136C202.742 313.511 202.762 314.143 202.391 314.538L198.881 318.33C198.686 318.548 198.433 318.646 198.16 318.646ZM209.021 325.658C209.021 325.658 205.375 338.456 199.232 332.057C199.232 332.057 196.054 374.223 242.639 371.734C242.639 371.734 261.69 371.971 263.894 357.751L265.473 339.581C265.473 339.581 257.907 334.723 247.007 343.452C239.246 349.654 214.52 352.241 215.554 319.772L209.021 325.658Z" fill="#012A68"/>
<path d="M393.1 397.054C395.343 393.519 391.404 389.154 391.404 389.154C391.404 389.154 391.248 383.644 390.312 382.36C386.587 377.245 379.996 380.306 379.996 380.306L375.16 383.624C375.375 381.827 375.55 379.694 375.57 377.482C375.589 372.446 370.266 373.927 369.213 376.929C368.452 379.101 363.285 389.075 361.062 393.321L343.668 413.486L364.923 427.963L369.33 422.097L391.989 414.355C395.518 411.847 392.769 405.527 392.769 405.527C395.928 401.952 393.1 397.054 393.1 397.054Z" fill="url(#paint11_linear_238_431)"/>
<path d="M281.931 316.02C281.853 316.02 281.756 316 281.678 315.98C281.151 315.842 280.839 315.289 280.995 314.756C282.38 309.621 282.009 305.789 279.864 303.38C276.14 299.173 268.184 300.378 268.106 300.378C267.579 300.457 267.072 300.101 266.994 299.548C266.916 299.015 267.267 298.501 267.813 298.422C268.184 298.363 276.9 297.04 281.327 302.056C283.94 305.019 284.466 309.463 282.887 315.289C282.77 315.743 282.36 316.02 281.931 316.02Z" fill="#012A68"/>
<path d="M194.337 294.157L251.667 300.338C258.102 300.872 262.665 300.97 267.949 299.41L269.841 298.857C269.841 298.857 269.841 266.526 239.44 261.925C201.337 256.138 194.337 294.157 194.337 294.157Z" fill="#5D9CFB"/>
<path d="M345.014 408.272L367.127 425.336C368.843 426.659 369.584 428.93 368.979 431.024C368.219 433.67 367.088 437.403 365.84 440.662C364.689 443.664 360.965 444.651 358.527 442.597L332.475 420.714C330.486 419.036 330.233 416.053 331.871 414.039C333.509 412.044 335.966 409.654 339.378 407.798C341.172 406.83 343.395 407.008 345.014 408.272Z" fill="#5389DB"/>
<path d="M370.461 397.903C368.921 397.903 367.634 397.311 366.756 396.126C365.235 394.092 365.45 390.853 367.224 388.897C367.595 388.502 368.219 388.463 368.609 388.838C368.999 389.213 369.038 389.845 368.667 390.24C367.517 391.485 367.361 393.637 368.336 394.921C369.291 396.205 371.163 396.244 373.503 395.059L383.312 390.023C383.799 389.766 384.384 389.964 384.638 390.458C384.891 390.951 384.696 391.544 384.209 391.801L374.4 396.837C372.977 397.548 371.631 397.903 370.461 397.903Z" fill="#012A68"/>
<path d="M373.114 405.25C371.573 405.25 370.286 404.658 369.409 403.473C367.888 401.439 368.102 398.2 369.877 396.244C370.247 395.849 370.871 395.81 371.261 396.185C371.651 396.56 371.69 397.192 371.32 397.587C370.169 398.832 370.013 400.984 370.988 402.268C371.944 403.552 373.816 403.591 376.156 402.406L385.964 397.37C386.452 397.113 387.037 397.311 387.29 397.805C387.544 398.298 387.349 398.891 386.861 399.148L377.053 404.184C375.61 404.895 374.284 405.25 373.114 405.25Z" fill="#012A68"/>
<path d="M375.688 412.597C374.147 412.597 372.86 412.005 371.983 410.82C370.462 408.785 370.676 405.546 372.451 403.591C372.821 403.196 373.445 403.157 373.835 403.532C374.225 403.907 374.264 404.539 373.894 404.934C372.743 406.178 372.587 408.331 373.562 409.615C374.518 410.899 376.39 410.938 378.73 409.753L388.538 404.717C389.026 404.46 389.611 404.658 389.864 405.151C390.118 405.645 389.923 406.238 389.435 406.494L379.627 411.531C378.203 412.242 376.877 412.597 375.688 412.597Z" fill="#012A68"/>
<path d="M282.419 475.481C282.185 475.481 281.932 475.402 281.756 475.205C281.366 474.829 281.347 474.197 281.717 473.802L290.453 464.303C290.824 463.908 291.448 463.888 291.838 464.263C292.228 464.638 292.247 465.27 291.877 465.665L283.141 475.165C282.946 475.363 282.673 475.481 282.419 475.481Z" fill="#012A68"/>
<path d="M396.104 446.449C383.643 434.085 386.061 415.599 386.978 410.701H368.706C369.798 415.204 372.606 431.281 361.862 445.619C349.596 461.972 327.054 474.434 331.89 499.596C336.473 523.533 351.995 528.352 372.606 528.767V528.806H383.058V528.767C403.65 528.352 419.153 523.533 423.755 499.596C428.552 474.434 410.573 460.827 396.104 446.449Z" fill="#D1E2FC"/>
<path d="M387.426 417.199H368.316C366.542 417.199 365.099 415.738 365.099 413.94C365.099 412.143 366.542 410.682 368.316 410.682H387.426C389.201 410.682 390.644 412.143 390.644 413.94C390.644 415.738 389.201 417.199 387.426 417.199Z" fill="url(#paint12_linear_238_431)"/>
<path d="M387.426 423.006H368.316C366.542 423.006 365.099 421.544 365.099 419.747C365.099 417.95 366.542 416.488 368.316 416.488H387.426C389.201 416.488 390.644 417.95 390.644 419.747C390.644 421.544 389.201 423.006 387.426 423.006Z" fill="url(#paint13_linear_238_431)"/>
<path d="M387.426 428.812H368.316C366.542 428.812 365.099 427.35 365.099 425.553C365.099 423.756 366.542 422.294 368.316 422.294H387.426C389.201 422.294 390.644 423.756 390.644 425.553C390.644 427.37 389.201 428.812 387.426 428.812Z" fill="url(#paint14_linear_238_431)"/>
<path opacity="0.47" d="M384.247 413.94C384.247 412.143 382.804 410.682 381.03 410.682H374.692C372.918 410.682 371.475 412.143 371.475 413.94C371.475 415.204 372.196 416.31 373.249 416.844C372.196 417.377 371.475 418.483 371.475 419.747C371.475 421.011 372.196 422.117 373.249 422.65C372.196 423.183 371.475 424.289 371.475 425.553C371.475 427.351 372.918 428.812 374.692 428.812H381.03C382.804 428.812 384.247 427.351 384.247 425.553C384.247 424.289 383.526 423.183 382.473 422.65C383.526 422.117 384.247 421.011 384.247 419.747C384.247 418.483 383.526 417.377 382.473 416.844C383.526 416.31 384.247 415.224 384.247 413.94Z" fill="#D1E2FC"/>
<path d="M327.211 509.807L319.118 532.895L344.566 540.992C345.619 541.328 346.711 541.486 347.803 541.466L375.025 540.874C377.267 540.834 378.067 537.141 373.738 536.489L381.967 536.252C384.482 536.41 384.209 531.828 380.192 531.552L383.878 531.137C386.53 530.604 386.53 525.291 381.128 525.232L377.95 525.054C380.348 524.462 381.421 521.005 378.476 520.551C376.975 520.314 371.281 520.433 366.406 520.571C361.472 520.729 356.617 519.425 352.385 516.858L349.636 515.179L356.246 511.703C356.246 511.703 364.709 511.565 366.659 509.787C369.35 507.338 367.244 505.284 367.244 505.284C367.244 505.284 348.115 501.196 327.211 509.807Z" fill="url(#paint15_linear_238_431)"/>
<path d="M204.282 410.188C192.875 375.625 144.066 389.589 147.849 429.424L161.948 492.269C161.948 492.269 166.043 517.035 194.708 523.869C218.478 529.537 290.57 532.855 308.393 535.205C308.393 535.205 315.998 504.514 317.246 500.485L221.208 472.894L204.282 410.188Z" fill="url(#paint16_linear_238_431)"/>
<path opacity="0.2" d="M301.724 515.218C292.852 516.996 283.784 517.134 274.814 516.226C264.947 515.218 255.197 513.322 245.642 510.696C237.277 508.405 229.048 505.6 221.014 502.322C213.974 499.438 206.915 496.377 200.344 492.466C192.056 487.549 184.529 480.952 178.504 473.388C175.033 469.003 171.815 464.461 169.105 459.543C166.355 454.566 164.074 449.313 162.124 443.96C158.438 433.888 156.449 423.203 155.65 412.518C155.396 409.082 155.299 405.626 155.377 402.169C149.975 408.805 146.777 418.048 147.869 429.424L161.968 492.269C161.968 492.269 166.063 517.035 194.728 523.869C218.498 529.537 290.59 532.855 308.413 535.205C308.413 535.205 311.923 521.084 314.555 510.735C310.519 512.848 306.131 514.33 301.724 515.218Z" fill="#012A68"/>
<path d="M328.751 506.37L322.979 533.902C322.531 536.055 320.834 537.694 318.689 538.03C315.998 538.464 312.176 539.017 308.744 539.274C305.566 539.511 303.109 536.529 303.889 533.408L312.274 500.188C312.917 497.66 315.472 496.14 317.968 496.791C320.444 497.443 323.642 498.668 326.743 500.979C328.4 502.243 329.18 504.336 328.751 506.37Z" fill="#5389DB"/>
<path opacity="0.47" d="M367.126 425.336L357.142 417.634C356.752 418.305 356.343 418.937 355.894 419.569C354.237 421.919 352.482 424.171 350.259 425.988C348.855 427.153 347.373 428.338 345.793 429.286C345.169 429.662 344.526 429.978 343.863 430.294L358.507 442.598C360.964 444.652 364.669 443.684 365.82 440.662C367.068 437.403 368.199 433.671 368.959 431.024C369.583 428.931 368.842 426.679 367.126 425.336ZM314.203 518.003C312.058 518.161 309.913 518.181 307.768 518.062L303.888 533.428C303.108 536.548 305.565 539.531 308.743 539.294C312.175 539.037 315.997 538.484 318.688 538.049C320.833 537.694 322.53 536.055 322.978 533.922L326.839 515.495C322.783 516.976 318.454 517.687 314.203 518.003Z" fill="#2E5FA8"/>
<path d="M206.7 483.638C206.388 483.638 206.076 483.48 205.881 483.184C205.589 482.73 205.706 482.117 206.154 481.801L220.701 472.045C221.15 471.749 221.754 471.867 222.066 472.321C222.359 472.776 222.242 473.388 221.793 473.704L207.246 483.46C207.071 483.579 206.876 483.638 206.7 483.638Z" fill="#012A68"/>
<path d="M236.028 265.519C238.817 265.519 241.079 263.229 241.079 260.404C241.079 257.579 238.817 255.289 236.028 255.289C233.239 255.289 230.978 257.579 230.978 260.404C230.978 263.229 233.239 265.519 236.028 265.519Z" fill="#5389DB"/>
<path d="M258.883 293.9C258.746 293.9 258.61 293.9 258.473 293.88C256.699 293.762 255.08 292.833 254.066 291.372L252.136 288.587C251.551 287.738 250.615 287.205 249.601 287.106C248.587 287.007 247.573 287.363 246.832 288.093L243.166 291.668C242.015 292.794 240.514 293.386 238.915 293.347C237.316 293.307 235.834 292.636 234.761 291.451L229.984 286.257C229.34 285.546 228.463 285.151 227.507 285.131C226.552 285.111 225.655 285.467 224.972 286.138L221.638 289.417C220.429 290.602 218.791 291.214 217.114 291.095C215.437 290.977 213.896 290.147 212.863 288.804L209.314 284.183C208.183 282.721 206.174 282.366 204.634 283.373L197.068 288.33C196.502 288.686 195.761 288.528 195.41 287.975C195.059 287.422 195.215 286.652 195.761 286.296L203.327 281.339C205.921 279.64 209.294 280.233 211.186 282.682L214.735 287.303C215.359 288.113 216.256 288.587 217.27 288.666C218.284 288.745 219.239 288.39 219.961 287.679L223.295 284.4C224.446 283.274 225.947 282.662 227.546 282.702C229.145 282.741 230.627 283.413 231.719 284.598L236.497 289.792C237.14 290.503 238.018 290.898 238.973 290.918C239.929 290.937 240.826 290.582 241.508 289.93L245.174 286.355C246.422 285.151 248.119 284.538 249.835 284.696C251.551 284.854 253.111 285.763 254.105 287.205L256.036 289.989C256.64 290.858 257.596 291.411 258.668 291.49C259.721 291.569 260.735 291.155 261.476 290.384L266.566 284.874C267.014 284.38 267.775 284.361 268.262 284.815C268.75 285.269 268.769 286.039 268.321 286.533L263.231 292.043C262.061 293.209 260.521 293.9 258.883 293.9Z" fill="white"/>
<path d="M369.369 389.569L349.986 369.246C349.986 369.246 351.273 361.702 370.305 362.966C381.362 363.696 382.902 349.318 390.624 355.026L384.638 379.417C384.638 379.417 381.381 379.417 379.685 380.563L369.369 389.569Z" fill="#D1E2FC"/>
<path d="M368.005 390.556C367.712 390.556 367.439 390.438 367.244 390.201C366.893 389.786 366.971 389.154 367.381 388.799L374.537 382.854C374.947 382.498 375.571 382.577 375.922 382.992C376.273 383.407 376.195 384.039 375.785 384.394L368.629 390.339C368.434 390.497 368.219 390.556 368.005 390.556Z" fill="#012A68"/>
<path d="M311.162 499.695C311.065 499.695 310.987 499.675 310.889 499.655L283.18 491.696C282.653 491.538 282.361 491.005 282.497 490.472C282.653 489.938 283.18 489.642 283.706 489.78L311.416 497.74C311.942 497.898 312.235 498.431 312.098 498.964C311.981 499.418 311.591 499.695 311.162 499.695Z" fill="#012A68"/>
<path d="M301.451 535.443C301.431 535.443 301.392 535.443 301.373 535.443L285.656 534.159C285.11 534.119 284.72 533.645 284.759 533.092C284.798 532.539 285.266 532.144 285.812 532.184L301.529 533.468C302.075 533.507 302.465 533.981 302.426 534.534C302.387 535.048 301.958 535.443 301.451 535.443Z" fill="#012A68"/>
<path d="M328.867 509.155V535.995L322.979 533.922L328.867 508.247" fill="#94BAF2"/>
<path d="M435.63 412.775L442.396 410.583C443.508 410.227 443.508 408.627 442.396 408.272L435.63 406.08C435.259 405.961 434.967 405.665 434.85 405.29L432.685 398.436C432.334 397.311 430.755 397.311 430.404 398.436L428.239 405.29C428.122 405.665 427.83 405.961 427.459 406.08L420.693 408.272C419.581 408.627 419.581 410.227 420.693 410.583L427.459 412.775C427.83 412.893 428.122 413.19 428.239 413.565L430.404 420.418C430.755 421.544 432.334 421.544 432.685 420.418L434.85 413.565C434.967 413.19 435.259 412.913 435.63 412.775ZM441.051 381.511L445.38 380.108C446.101 379.871 446.101 378.844 445.38 378.627L441.051 377.225C440.817 377.146 440.622 376.968 440.544 376.711L439.159 372.327C438.925 371.596 437.911 371.596 437.697 372.327L436.312 376.711C436.234 376.948 436.059 377.146 435.805 377.225L431.476 378.627C430.755 378.864 430.755 379.891 431.476 380.108L435.805 381.511C436.039 381.59 436.234 381.767 436.312 382.024L437.697 386.409C437.931 387.139 438.945 387.139 439.159 386.409L440.544 382.024C440.641 381.767 440.817 381.59 441.051 381.511ZM418.996 393.301L422.019 392.314C422.526 392.156 422.526 391.445 422.019 391.267L418.996 390.28C418.821 390.22 418.704 390.102 418.645 389.924L417.67 386.863C417.514 386.349 416.812 386.349 416.637 386.863L415.662 389.924C415.603 390.102 415.486 390.22 415.311 390.28L412.288 391.267C411.781 391.425 411.781 392.136 412.288 392.314L415.311 393.301C415.486 393.361 415.603 393.479 415.662 393.657L416.637 396.718C416.793 397.232 417.495 397.232 417.67 396.718L418.645 393.657C418.704 393.479 418.84 393.361 418.996 393.301Z" fill="#297BF7"/>
<path d="M701.259 494.975C699.484 494.086 687.57 492.407 682.344 491.439C677.118 490.452 666.1 489.938 661.44 494.975C656.779 500.011 657.208 498.391 653.269 497.937C649.33 497.483 645.723 499.754 634.9 505.047C624.078 510.32 631.078 513.046 630.201 515.554C629.323 518.062 623.922 512.69 620.977 512.848C618.033 513.006 611.5 519.919 601.282 528.688C591.084 537.457 584.766 581.361 584.766 581.361H626.106L626.671 577.115C629.245 572.158 624.819 568.524 626.983 566.529C629.148 564.554 633.73 566.805 639.132 559.241C644.533 551.677 651.904 551.657 657.169 542.513C662.454 533.388 674.992 527.009 675.382 524.837C675.772 522.664 671.014 520.65 672.087 519.307C673.159 517.964 676.962 519.939 681.525 520.097C686.068 520.255 687.765 509.451 694.2 503.072C700.635 496.693 703.053 495.863 701.259 494.975ZM659.977 527.286C659.49 528.135 657.871 528.095 656.331 527.207C654.81 526.318 653.952 524.896 654.439 524.066C654.927 523.217 656.545 523.257 658.086 524.145C659.607 525.034 660.465 526.436 659.977 527.286ZM666.763 521.835C665.808 523.533 662.532 523.454 659.49 521.657C656.428 519.879 654.732 517.055 655.707 515.357C656.662 513.658 659.938 513.737 662.98 515.534C666.042 517.332 667.738 520.156 666.763 521.835Z" fill="url(#paint17_linear_238_431)"/>
<path d="M698.451 495.666C698.451 495.666 623.317 497.068 600.756 574.39L604.383 575.061C604.383 575.061 612.105 531.196 646.678 514.666C681.232 498.155 688.311 495.666 698.451 495.666Z" fill="#0048B4"/>
<path d="M172.712 581.5H200.928L201.045 580.097C202.137 576.562 198.803 574.725 199.973 573.165C201.162 571.605 204.438 572.533 207.09 566.924C209.742 561.335 214.578 560.407 216.938 553.81C219.317 547.214 226.785 541.525 226.785 540.064C226.785 538.602 223.412 537.872 223.958 536.864C224.504 535.857 227.234 536.687 230.256 536.232C233.259 535.778 233.084 528.53 236.555 523.573C240.026 518.615 241.488 517.806 240.201 517.43C238.934 517.055 230.9 517.43 227.351 517.43C223.802 517.43 216.489 518.438 214.032 522.289C211.575 526.14 211.653 525.034 209.021 525.232C206.369 525.409 204.282 527.345 197.808 532.105C191.334 536.864 196.248 537.793 195.975 539.531C195.702 541.269 191.51 538.425 189.599 538.899C187.688 539.353 184.217 544.666 178.562 551.638C172.907 558.59 172.712 581.5 172.712 581.5ZM214.091 537.674C214.871 536.963 216.626 537.635 217.991 539.155C219.356 540.676 219.824 542.493 219.044 543.204C218.264 543.915 216.509 543.244 215.144 541.723C213.779 540.202 213.311 538.385 214.091 537.674Z" fill="url(#paint18_linear_238_431)"/>
<path d="M238.446 518.24C238.446 518.24 189.228 528.332 183.69 581.519H186.147C186.147 581.519 185.952 551.973 206.7 536.963C227.429 521.953 231.777 519.465 238.446 518.24Z" fill="#094EB5"/>
<path d="M181.564 531.374C172.146 519.682 166.374 510.774 163.195 510.004C159.997 509.234 153.016 513.994 152.568 511.09C152.119 508.167 160.309 506.627 149.526 498.628C138.742 490.629 135.252 487.41 130.845 487.094C126.438 486.778 126.594 488.635 122.499 482.176C118.404 475.718 106.255 474.02 100.327 474.02C94.3994 474.02 81.0419 473.407 78.9164 474.02C76.7909 474.632 79.2284 476.014 84.9809 484.329C90.7529 492.644 90.4409 504.79 95.4524 505.56C100.464 506.331 105.027 504.948 105.924 506.647C106.84 508.345 101.224 509.57 101.224 512.038C101.224 514.507 113.685 524.027 117.624 535.106C121.563 546.186 129.616 547.727 134.023 557.108C138.43 566.489 143.89 564.949 145.86 567.575C147.829 570.182 142.272 573.263 144.085 579.208L144.28 581.558H191.295C191.295 581.499 190.983 543.066 181.564 531.374ZM120.646 514.764C118.365 517.331 115.459 518.437 114.153 517.252C112.846 516.067 113.646 513.026 115.908 510.458C118.189 507.891 121.095 506.785 122.401 507.97C123.727 509.155 122.928 512.216 120.646 514.764Z" fill="url(#paint19_linear_238_431)"/>
<path d="M81.8613 475.343C81.8613 475.343 163.8 492.269 173.043 581.499H168.948C168.948 581.499 169.26 531.927 134.745 506.745C100.211 481.584 92.9568 477.417 81.8613 475.343Z" fill="#094EB5"/>
<path d="M333.431 582.329H123.045C122.499 582.329 122.07 581.874 122.07 581.341C122.07 580.808 122.519 580.354 123.045 580.354H333.431C333.977 580.354 334.406 580.808 334.406 581.341C334.406 581.874 333.977 582.329 333.431 582.329Z" fill="#012A68"/>
<path d="M519.012 523.257C523.789 527.997 525.037 535.995 528.43 535.877C531.804 535.758 534.631 534.297 535.431 535.304C536.23 536.311 532.701 537.793 532.993 539.412C533.286 541.032 542.587 545.752 546.507 552.526C550.426 559.3 555.886 559.32 559.884 564.929C563.901 570.538 567.294 568.859 568.893 570.341C570.492 571.822 567.216 574.508 569.127 578.181L569.556 581.341H600.229C600.229 581.341 595.549 548.774 587.964 542.256C580.398 535.758 575.542 530.604 573.358 530.505C571.174 530.386 567.157 534.376 566.514 532.519C565.87 530.663 571.057 528.648 563.023 524.718C554.989 520.808 552.318 519.109 549.393 519.445C546.468 519.781 546.78 520.985 543.328 517.253C539.857 513.52 531.706 513.895 527.826 514.626C523.945 515.357 515.112 516.601 513.786 517.253C512.479 517.924 514.234 518.517 519.012 523.257ZM545.824 538.899C546.955 538.227 548.164 538.207 548.515 538.839C548.866 539.471 548.242 540.518 547.111 541.17C545.98 541.841 544.771 541.861 544.42 541.229C544.069 540.597 544.693 539.55 545.824 538.899ZM542.197 532.519C544.459 531.196 546.877 531.137 547.599 532.401C548.32 533.665 547.053 535.739 544.791 537.082C542.529 538.405 540.111 538.464 539.389 537.2C538.668 535.936 539.935 533.843 542.197 532.519Z" fill="#5389DB"/>
<path opacity="0.47" d="M515.892 517.766C515.892 517.766 571.642 518.793 588.392 576.167L585.701 576.68C585.701 576.68 579.968 544.132 554.326 531.868C528.645 519.603 523.399 517.766 515.892 517.766Z" fill="#2E5FA8"/>
<path d="M684.138 582.329H473.772C473.226 582.329 472.797 581.874 472.797 581.341C472.797 580.808 473.245 580.354 473.772 580.354H684.157C684.703 580.354 685.132 580.808 685.132 581.341C685.132 581.874 684.684 582.329 684.138 582.329Z" fill="#012A68"/>
<defs>
<linearGradient id="paint0_linear_238_431" x1="659.219" y1="328.98" x2="651.851" y2="472.874" gradientUnits="userSpaceOnUse">
<stop offset="0.1" stop-color="#1A6AE3"/>
<stop offset="1" stop-color="#094EB5"/>
</linearGradient>
<linearGradient id="paint1_linear_238_431" x1="379.915" y1="484.099" x2="560.919" y2="469.993" gradientUnits="userSpaceOnUse">
<stop stop-color="#76ACFD"/>
<stop offset="1" stop-color="#3B7DE0"/>
</linearGradient>
<linearGradient id="paint2_linear_238_431" x1="494.772" y1="433.747" x2="556.794" y2="433.747" gradientUnits="userSpaceOnUse">
<stop offset="0.1" stop-color="#297BF7"/>
<stop offset="1" stop-color="#005DE9"/>
</linearGradient>
<linearGradient id="paint3_linear_238_431" x1="513.695" y1="480.95" x2="652.755" y2="480.95" gradientUnits="userSpaceOnUse">
<stop offset="0.1" stop-color="#297BF7"/>
<stop offset="1" stop-color="#005DE9"/>
</linearGradient>
<linearGradient id="paint4_linear_238_431" x1="432.123" y1="476.99" x2="652.926" y2="470.383" gradientUnits="userSpaceOnUse">
<stop stop-color="#76ACFD"/>
<stop offset="1" stop-color="#3B7DE0"/>
</linearGradient>
<linearGradient id="paint5_linear_238_431" x1="592.203" y1="436.617" x2="654.225" y2="436.617" gradientUnits="userSpaceOnUse">
<stop offset="0.1" stop-color="#297BF7"/>
<stop offset="1" stop-color="#005DE9"/>
</linearGradient>
<linearGradient id="paint6_linear_238_431" x1="597.894" y1="371.876" x2="559.394" y2="371.876" gradientUnits="userSpaceOnUse">
<stop stop-color="#76ACFD"/>
<stop offset="1" stop-color="#3B7DE0"/>
</linearGradient>
<linearGradient id="paint7_linear_238_431" x1="579.27" y1="364.316" x2="569.539" y2="302.077" gradientUnits="userSpaceOnUse">
<stop stop-color="#76ACFD"/>
<stop offset="1" stop-color="#3B7DE0"/>
</linearGradient>
<linearGradient id="paint8_linear_238_431" x1="310.95" y1="376.261" x2="254.213" y2="502.137" gradientUnits="userSpaceOnUse">
<stop stop-color="#5D9CFB"/>
<stop offset="1" stop-color="#0048B4"/>
</linearGradient>
<linearGradient id="paint9_linear_238_431" x1="204.154" y1="371.876" x2="242.654" y2="371.876" gradientUnits="userSpaceOnUse">
<stop stop-color="#B7D1F9"/>
<stop offset="1" stop-color="#94BAF2"/>
</linearGradient>
<linearGradient id="paint10_linear_238_431" x1="222.742" y1="364.552" x2="232.023" y2="305.189" gradientUnits="userSpaceOnUse">
<stop stop-color="#B7D1F9"/>
<stop offset="1" stop-color="#94BAF2"/>
</linearGradient>
<linearGradient id="paint11_linear_238_431" x1="361.13" y1="388.228" x2="380.712" y2="419.831" gradientUnits="userSpaceOnUse">
<stop stop-color="#B7D1F9"/>
<stop offset="1" stop-color="#94BAF2"/>
</linearGradient>
<linearGradient id="paint12_linear_238_431" x1="365.106" y1="413.944" x2="390.635" y2="413.944" gradientUnits="userSpaceOnUse">
<stop stop-color="#5D9CFB"/>
<stop offset="1" stop-color="#0048B4"/>
</linearGradient>
<linearGradient id="paint13_linear_238_431" x1="365.106" y1="419.755" x2="390.635" y2="419.755" gradientUnits="userSpaceOnUse">
<stop stop-color="#5D9CFB"/>
<stop offset="1" stop-color="#0048B4"/>
</linearGradient>
<linearGradient id="paint14_linear_238_431" x1="365.106" y1="425.566" x2="390.635" y2="425.566" gradientUnits="userSpaceOnUse">
<stop stop-color="#5D9CFB"/>
<stop offset="1" stop-color="#0048B4"/>
</linearGradient>
<linearGradient id="paint15_linear_238_431" x1="336.791" y1="504.022" x2="363.516" y2="548.162" gradientUnits="userSpaceOnUse">
<stop stop-color="#B7D1F9"/>
<stop offset="1" stop-color="#94BAF2"/>
</linearGradient>
<linearGradient id="paint16_linear_238_431" x1="147.648" y1="462.865" x2="317.268" y2="462.865" gradientUnits="userSpaceOnUse">
<stop stop-color="#5D9CFB"/>
<stop offset="1" stop-color="#0048B4"/>
</linearGradient>
<linearGradient id="paint17_linear_238_431" x1="646.233" y1="521.145" x2="631.725" y2="604.222" gradientUnits="userSpaceOnUse">
<stop stop-color="#5D9CFB"/>
<stop offset="1" stop-color="#0048B4"/>
</linearGradient>
<linearGradient id="paint18_linear_238_431" x1="240.667" y1="549.386" x2="172.718" y2="549.386" gradientUnits="userSpaceOnUse">
<stop offset="0.1" stop-color="#1A6AE3"/>
<stop offset="1" stop-color="#094EB5"/>
</linearGradient>
<linearGradient id="paint19_linear_238_431" x1="78.1625" y1="527.617" x2="191.291" y2="527.617" gradientUnits="userSpaceOnUse">
<stop offset="0.1" stop-color="#1A6AE3"/>
<stop offset="1" stop-color="#094EB5"/>
</linearGradient>
</defs>
</svg>
