<svg width="622" height="622" viewBox="0 0 622 622" fill="none" xmlns="http://www.w3.org/2000/svg">
<g clip-path="url(#clip0_238_561)">
<path d="M578.395 400.806C588.282 303.338 436.893 94.5388 335.428 197.862C282.018 252.25 152.065 315.501 56.6573 347.882C-36.1132 379.369 155.55 536.211 299.625 550.826C443.699 565.44 568.509 498.274 578.395 400.806Z" fill="#F5F8FC"/>
<path d="M101.248 473.504C106.807 473.504 106.816 464.865 101.248 464.865C95.6892 464.865 95.68 473.504 101.248 473.504ZM49.9489 275.474C55.5076 275.474 55.5168 266.835 49.9489 266.835C44.3901 266.835 44.3809 275.474 49.9489 275.474ZM137.618 150.742C143.176 150.742 143.186 142.104 137.618 142.104C132.059 142.104 132.05 150.742 137.618 150.742Z" fill="#92B0E1"/>
<path d="M137.618 150.742C143.177 150.742 143.186 142.103 137.618 142.103C132.059 142.103 132.05 150.742 137.618 150.742ZM26.9537 468.573C32.5124 468.573 32.5217 459.934 26.9537 459.934C21.395 459.934 21.3858 468.573 26.9537 468.573ZM295.491 77.0954C301.05 77.0954 301.059 68.4565 295.491 68.4565C289.933 68.4565 289.923 77.0954 295.491 77.0954ZM240.248 408.872C245.807 408.872 245.816 400.233 240.248 400.233C234.689 400.233 234.68 408.872 240.248 408.872ZM92.5229 240.932C98.0816 240.932 98.0908 232.293 92.5229 232.293C86.9642 232.293 86.955 240.932 92.5229 240.932ZM130.852 515.482C136.411 515.482 136.42 506.843 130.852 506.843C125.294 506.843 125.284 515.482 130.852 515.482ZM432.545 477.41C438.104 477.41 438.113 468.771 432.545 468.771C426.986 468.771 426.977 477.41 432.545 477.41ZM448.618 139.857C454.177 139.857 454.186 131.218 448.618 131.218C443.059 131.218 443.05 139.857 448.618 139.857ZM562.463 408.872C568.022 408.872 568.031 400.233 562.463 400.233C556.904 400.233 556.895 408.872 562.463 408.872ZM117.395 411.735C117.955 411.716 118.485 411.48 118.874 411.077C119.263 410.674 119.481 410.136 119.481 409.576C119.481 409.015 119.263 408.477 118.874 408.074C118.485 407.671 117.955 407.435 117.395 407.416C116.835 407.435 116.304 407.671 115.915 408.074C115.526 408.477 115.308 409.015 115.308 409.576C115.308 410.136 115.526 410.674 115.915 411.077C116.304 411.48 116.835 411.716 117.395 411.735ZM392.63 96.0704C393.19 96.051 393.72 95.815 394.109 95.4121C394.498 95.0091 394.716 94.4708 394.716 93.9107C394.716 93.3505 394.498 92.8122 394.109 92.4093C393.72 92.0064 393.19 91.7703 392.63 91.7509C392.07 91.7703 391.539 92.0064 391.15 92.4093C390.761 92.8122 390.544 93.3505 390.544 93.9107C390.544 94.4708 390.761 95.0091 391.15 95.4121C391.539 95.815 392.07 96.051 392.63 96.0704ZM322.743 239.992C323.303 239.972 323.833 239.736 324.222 239.333C324.611 238.93 324.829 238.392 324.829 237.832C324.829 237.272 324.611 236.733 324.222 236.331C323.833 235.928 323.303 235.692 322.743 235.672C322.183 235.692 321.652 235.928 321.263 236.331C320.874 236.733 320.657 237.272 320.657 237.832C320.657 238.392 320.874 238.93 321.263 239.333C321.652 239.736 322.183 239.972 322.743 239.992ZM358.42 421.065C358.98 421.046 359.51 420.81 359.899 420.407C360.288 420.004 360.506 419.466 360.506 418.906C360.506 418.345 360.288 417.807 359.899 417.404C359.51 417.001 358.98 416.765 358.42 416.746C357.86 416.765 357.329 417.001 356.94 417.404C356.551 417.807 356.334 418.345 356.334 418.906C356.334 419.466 356.551 420.004 356.94 420.407C357.329 420.81 357.86 421.046 358.42 421.065ZM277.56 534.58C278.12 534.561 278.65 534.325 279.039 533.922C279.428 533.519 279.646 532.981 279.646 532.421C279.646 531.86 279.428 531.322 279.039 530.919C278.65 530.516 278.12 530.28 277.56 530.261C277 530.28 276.469 530.516 276.08 530.919C275.691 531.322 275.474 531.86 275.474 532.421C275.474 532.981 275.691 533.519 276.08 533.922C276.469 534.325 277 534.561 277.56 534.58ZM524.805 531.47C525.365 531.451 525.895 531.215 526.284 530.812C526.673 530.409 526.891 529.871 526.891 529.311C526.891 528.75 526.673 528.212 526.284 527.809C525.895 527.406 525.365 527.17 524.805 527.151C524.245 527.17 523.714 527.406 523.325 527.809C522.936 528.212 522.719 528.75 522.719 529.311C522.719 529.871 522.936 530.409 523.325 530.812C523.714 531.215 524.245 531.451 524.805 531.47ZM325.765 324.655C326.325 324.636 326.855 324.4 327.244 323.997C327.633 323.594 327.851 323.056 327.851 322.496C327.851 321.935 327.633 321.397 327.244 320.994C326.855 320.591 326.325 320.355 325.765 320.336C325.205 320.355 324.674 320.591 324.285 320.994C323.896 321.397 323.678 321.935 323.678 322.496C323.678 323.056 323.896 323.594 324.285 323.997C324.674 324.4 325.205 324.636 325.765 324.655Z" fill="#92B0E1"/>
<path d="M200.343 87.4596C200.903 87.4402 201.433 87.2041 201.822 86.8012C202.212 86.3983 202.429 85.86 202.429 85.2999C202.429 84.7397 202.212 84.2014 201.822 83.7985C201.433 83.3956 200.903 83.1595 200.343 83.1401C199.783 83.1595 199.253 83.3956 198.864 83.7985C198.474 84.2014 198.257 84.7397 198.257 85.2999C198.257 85.86 198.474 86.3983 198.864 86.8012C199.253 87.2041 199.783 87.4402 200.343 87.4596ZM54.1214 373.43C54.6812 373.411 55.2116 373.175 55.6008 372.772C55.99 372.369 56.2075 371.831 56.2075 371.27C56.2075 370.71 55.99 370.172 55.6008 369.769C55.2116 369.366 54.6812 369.13 54.1214 369.111C53.5615 369.13 53.0311 369.366 52.6419 369.769C52.2527 370.172 52.0352 370.71 52.0352 371.27C52.0352 371.831 52.2527 372.369 52.6419 372.772C53.0311 373.175 53.5615 373.411 54.1214 373.43ZM319.361 136.668C319.921 136.649 320.452 136.413 320.841 136.01C321.23 135.607 321.448 135.069 321.448 134.508C321.448 133.948 321.23 133.41 320.841 133.007C320.452 132.604 319.921 132.368 319.361 132.349C318.801 132.368 318.271 132.604 317.882 133.007C317.493 133.41 317.275 133.948 317.275 134.508C317.275 135.069 317.493 135.607 317.882 136.01C318.271 136.413 318.801 136.649 319.361 136.668ZM566.635 155.487C567.195 155.468 567.725 155.232 568.115 154.829C568.504 154.426 568.721 153.888 568.721 153.327C568.721 152.767 568.504 152.229 568.115 151.826C567.725 151.423 567.195 151.187 566.635 151.168C566.075 151.187 565.545 151.423 565.156 151.826C564.766 152.229 564.549 152.767 564.549 153.327C564.549 153.888 564.766 154.426 565.156 154.829C565.545 155.232 566.075 155.468 566.635 155.487ZM211.755 390.506C212.315 390.487 212.846 390.251 213.235 389.848C213.624 389.445 213.841 388.907 213.841 388.346C213.841 387.786 213.624 387.248 213.235 386.845C212.846 386.442 212.315 386.206 211.755 386.187C211.195 386.206 210.665 386.442 210.276 386.845C209.887 387.248 209.669 387.786 209.669 388.346C209.669 388.907 209.887 389.445 210.276 389.848C210.665 390.251 211.195 390.487 211.755 390.506ZM443.505 359.15C444.065 359.131 444.595 358.895 444.984 358.492C445.373 358.089 445.591 357.551 445.591 356.991C445.591 356.43 445.373 355.892 444.984 355.489C444.595 355.086 444.065 354.85 443.505 354.831C442.945 354.85 442.414 355.086 442.025 355.489C441.636 355.892 441.419 356.43 441.419 356.991C441.419 357.551 441.636 358.089 442.025 358.492C442.414 358.895 442.945 359.131 443.505 359.15ZM485.16 89.6715C485.72 89.6521 486.25 89.416 486.64 89.0131C487.029 88.6102 487.246 88.0719 487.246 87.5117C487.246 86.9516 487.029 86.4133 486.64 86.0103C486.25 85.6074 485.72 85.3714 485.16 85.352C484.6 85.3714 484.07 85.6074 483.681 86.0103C483.291 86.4133 483.074 86.9516 483.074 87.5117C483.074 88.0719 483.291 88.6102 483.681 89.0131C484.07 89.416 484.6 89.6521 485.16 89.6715ZM563.607 489.073C564.167 489.053 564.697 488.817 565.086 488.414C565.476 488.012 565.693 487.473 565.693 486.913C565.693 486.353 565.476 485.815 565.086 485.412C564.697 485.009 564.167 484.773 563.607 484.753C563.047 484.773 562.517 485.009 562.127 485.412C561.738 485.815 561.521 486.353 561.521 486.913C561.521 487.473 561.738 488.012 562.127 488.414C562.517 488.817 563.047 489.053 563.607 489.073Z" fill="#D5E1F4"/>
<path d="M254.705 136.015V147.98L248.604 150.596C248.604 150.596 250.572 180.865 265.085 172.918C279.598 164.97 283.504 151.633 280.394 150.596L276.045 147.98L275.519 136.595L254.705 136.015Z" fill="#CDDBF1"/>
<path d="M417.903 195.427L368.619 203.013C366.389 203.359 364.109 203.198 361.95 202.541C359.791 201.885 357.807 200.751 356.146 199.223C332.411 177.325 316.737 166.376 307.21 160.911C307.202 160.907 307.196 160.899 307.188 160.897L307.179 160.893C298.642 155.999 280.58 149.828 280.58 149.828L280.763 150.749L280.395 150.597C263.463 185.843 248.604 150.597 248.604 150.597C248.604 150.597 230.542 156.767 222.005 161.662L221.996 161.665C221.988 161.668 221.982 161.676 221.974 161.679C212.447 167.145 196.773 178.094 173.038 199.991C171.377 201.519 169.393 202.654 167.234 203.31C165.075 203.966 162.795 204.127 160.565 203.782L111.28 196.195L101.438 221.247L158.316 236.452C162.372 237.536 166.613 237.733 170.752 237.03C174.89 236.326 178.828 234.739 182.298 232.376L218.927 207.425L219.086 206.892C219.839 234.816 221.996 265.321 221.996 265.321L222.687 279.143H306.312L306.35 278.374H306.497L307.188 264.552C307.188 264.552 309.345 234.048 310.098 206.124L310.257 206.656L346.886 231.607C350.356 233.97 354.294 235.558 358.432 236.261C362.571 236.965 366.812 236.768 370.868 235.684L427.746 220.479L417.903 195.427Z" fill="#376FC8"/>
<path d="M285.819 109.738C285.819 92.6577 276.691 78.811 265.431 78.811C254.172 78.811 245.044 92.6577 245.044 109.738L245.044 109.751C245 109.75 244.959 109.738 244.914 109.738C244.021 109.735 243.136 109.907 242.31 110.247C241.484 110.586 240.733 111.085 240.101 111.715C239.468 112.345 238.966 113.094 238.623 113.918C238.281 114.743 238.104 115.627 238.104 116.52C238.104 117.413 238.281 118.297 238.623 119.122C238.966 119.946 239.468 120.695 240.101 121.325C240.733 121.955 241.484 122.454 242.31 122.793C243.136 123.132 244.021 123.305 244.914 123.301C245.629 123.292 246.338 123.169 247.014 122.936C250.281 133.406 257.288 140.666 265.431 140.666C273.565 140.666 280.565 133.423 283.837 122.973C284.478 123.181 285.146 123.292 285.819 123.301C287.613 123.294 289.331 122.576 290.596 121.305C291.862 120.034 292.573 118.314 292.573 116.52C292.573 114.726 291.862 113.005 290.596 111.735C289.331 110.464 287.613 109.746 285.819 109.738Z" fill="#CDDBF1"/>
<path d="M247.289 115.786C247.289 115.786 246.08 91.9424 254.546 86.759C254.546 86.759 257.656 82.7851 266.468 92.1151C275.279 101.445 283.844 96.4448 283.844 96.4448C283.844 96.4448 285.992 112.503 284.609 115.786C284.609 115.786 297.049 94.534 283.4 83.649C269.75 72.764 262.321 76.5651 251.436 83.649C251.436 83.649 231.048 86.0679 247.289 115.786Z" fill="#070E19"/>
<path d="M264.141 111.359C264.115 112.431 264.011 113.454 263.916 114.465C263.806 115.445 263.748 116.43 263.739 117.416C263.729 118.369 263.903 119.257 264.412 119.47C265.343 119.602 266.293 119.486 267.165 119.133C266.801 119.538 266.377 119.885 265.907 120.159C265.381 120.498 264.752 120.639 264.132 120.559C263.78 120.477 263.455 120.307 263.186 120.065C262.918 119.823 262.715 119.517 262.597 119.176C262.401 118.616 262.301 118.027 262.301 117.434C262.313 116.35 262.488 115.275 262.818 114.244C263.118 113.223 263.563 112.252 264.141 111.359ZM249.734 106.703C249.734 106.703 254.542 101.557 260.193 105.788L249.734 106.703ZM268.194 106.258C268.194 106.258 273.209 101.314 278.681 105.773L268.194 106.258Z" fill="#070E19"/>
<path d="M256.28 114.642C257.091 114.642 257.749 113.655 257.749 112.439C257.749 111.222 257.091 110.236 256.28 110.236C255.469 110.236 254.812 111.222 254.812 112.439C254.812 113.655 255.469 114.642 256.28 114.642Z" fill="#070E19"/>
<path d="M273.039 114.037C273.85 114.037 274.508 113.05 274.508 111.834C274.508 110.617 273.85 109.631 273.039 109.631C272.228 109.631 271.57 110.617 271.57 111.834C271.57 113.05 272.228 114.037 273.039 114.037Z" fill="#070E19"/>
<path d="M240.644 117.809C240.601 117.197 240.752 116.587 241.074 116.065C241.403 115.495 241.906 115.045 242.509 114.782C242.828 114.646 243.171 114.579 243.516 114.584C243.862 114.589 244.203 114.666 244.518 114.81C245.095 115.06 245.56 115.512 245.827 116.082C245.201 116.016 244.7 115.892 244.24 115.899C243.834 115.873 243.428 115.946 243.057 116.112C242.184 116.573 241.373 117.143 240.644 117.809ZM290.461 117.809C289.732 117.143 288.921 116.573 288.048 116.112C287.677 115.946 287.271 115.873 286.865 115.899C286.405 115.892 285.904 116.016 285.278 116.082C285.544 115.512 286.01 115.06 286.587 114.811C286.902 114.666 287.243 114.589 287.588 114.584C287.934 114.579 288.277 114.646 288.596 114.782C289.199 115.045 289.702 115.495 290.031 116.065C290.353 116.587 290.503 117.197 290.461 117.809ZM255.415 136.664C258.265 138.52 261.547 139.609 264.942 139.822C266.602 139.901 268.265 139.7 269.859 139.228C270.677 139.003 271.48 138.727 272.264 138.4C273.063 138.084 273.809 137.649 274.642 137.318C274.001 137.932 273.319 138.501 272.601 139.022C271.855 139.524 271.059 139.949 270.227 140.289C268.541 141.012 266.714 141.343 264.882 141.26C263.055 141.186 261.263 140.73 259.623 139.921C258.004 139.147 256.57 138.037 255.415 136.664Z" fill="#070E19"/>
<path d="M254.448 123.312C255.008 123.293 255.539 123.057 255.928 122.654C256.317 122.251 256.535 121.712 256.535 121.152C256.535 120.592 256.317 120.054 255.928 119.651C255.539 119.248 255.008 119.012 254.448 118.993C253.889 119.012 253.358 119.248 252.969 119.651C252.58 120.054 252.362 120.592 252.362 121.152C252.362 121.712 252.58 122.251 252.969 122.654C253.358 123.057 253.889 123.293 254.448 123.312ZM276.046 121.93C276.606 121.91 277.136 121.674 277.525 121.271C277.914 120.869 278.132 120.33 278.132 119.77C278.132 119.21 277.914 118.672 277.525 118.269C277.136 117.866 276.606 117.63 276.046 117.61C275.486 117.63 274.955 117.866 274.566 118.269C274.177 118.672 273.959 119.21 273.959 119.77C273.959 120.33 274.177 120.869 274.566 121.271C274.955 121.674 275.486 121.91 276.046 121.93Z" fill="#1C3866"/>
<path d="M258.946 127.638C258.946 127.638 266.072 135.889 272.244 125.366L258.946 127.638Z" fill="#070E19"/>
<path d="M225.106 279.143V516.885H256.898L261.044 309.552H269.338L285.233 516.885H317.024L303.202 279.143H225.106Z" fill="#98B5E3"/>
<path d="M292.144 525.179C292.144 525.179 283.505 549.368 290.761 552.823H298.018C298.018 552.823 301.474 543.148 306.311 552.823H350.543C350.543 552.823 353.307 545.221 342.595 541.765C331.883 538.31 313.914 525.179 313.914 525.179H292.144Z" fill="#3366B8"/>
<path d="M290.762 516.886L292.144 525.179H313.914V516.886H290.762Z" fill="#CDDBF1"/>
<path d="M251.551 525.179C251.551 525.179 260.19 549.368 252.934 552.823H245.677C245.677 552.823 242.221 543.148 237.384 552.823H193.152C193.152 552.823 190.388 545.221 201.1 541.765C211.812 538.31 229.781 525.179 229.781 525.179H251.551Z" fill="#3366B8"/>
<path d="M252.933 516.886L251.551 525.179H229.781V516.886H252.933Z" fill="#CDDBF1"/>
<path d="M272.201 308.96C269.889 309.468 267.527 309.709 265.16 309.679C262.793 309.712 260.43 309.471 258.119 308.96C260.43 308.449 262.793 308.207 265.16 308.24C267.527 308.211 269.889 308.452 272.201 308.96Z" fill="#739AD9"/>
<path d="M224.391 237.832C224.708 240.034 225.198 242.208 225.857 244.334C226.147 245.402 226.545 246.439 226.882 247.489L228.142 250.55C229.928 254.57 232.329 258.288 235.259 261.569C238.157 264.872 241.588 267.667 245.409 269.837C247.305 270.969 249.288 271.952 251.337 272.776C253.366 273.671 255.531 274.207 257.627 275.011C256.537 274.785 255.445 274.544 254.352 274.289L252.71 273.91L251.887 273.721L251.094 273.439C248.954 272.728 246.874 271.848 244.874 270.807C240.81 268.758 237.18 265.946 234.182 262.523C231.152 259.132 228.761 255.22 227.126 250.977C225.453 246.789 224.527 242.34 224.391 237.832ZM234.332 241.689C235.099 243.777 236.031 245.802 237.117 247.744C237.622 248.729 238.227 249.66 238.774 250.617L240.642 253.35C243.224 256.912 246.345 260.05 249.893 262.651C253.414 265.28 257.35 267.301 261.538 268.631C263.628 269.345 265.772 269.894 267.948 270.274C270.118 270.728 272.347 270.803 274.565 271.155C273.451 271.16 272.333 271.151 271.211 271.128L269.526 271.099L268.682 271.085L267.848 270.973C265.607 270.723 263.389 270.294 261.216 269.69C256.816 268.531 252.681 266.533 249.037 263.808C245.369 261.12 242.218 257.79 239.737 253.979C237.231 250.23 235.402 246.07 234.332 241.689Z" fill="#3469BF"/>
<path d="M295.492 184.019H271.065V214.486H295.492V184.019Z" fill="#3469BF"/>
<path d="M506.409 135.982V149.387L511.925 150.596C511.925 150.596 510.543 180.833 496.029 172.885C481.516 164.937 477.024 151.633 480.134 150.596L484.971 149.041L485.595 136.562L506.409 135.982Z" fill="#3A71C9"/>
<path d="M475.296 109.706C475.296 92.6249 484.424 78.7783 495.684 78.7783C506.943 78.7783 516.071 92.6249 516.071 109.706L516.071 109.719C516.115 109.718 516.156 109.706 516.201 109.706C517.094 109.702 517.979 109.875 518.805 110.214C519.631 110.553 520.382 111.052 521.014 111.682C521.647 112.312 522.149 113.061 522.492 113.886C522.834 114.71 523.01 115.594 523.01 116.487C523.01 117.38 522.834 118.264 522.492 119.089C522.149 119.913 521.647 120.662 521.014 121.292C520.382 121.922 519.631 122.421 518.805 122.76C517.979 123.1 517.094 123.272 516.201 123.269C515.486 123.259 514.777 123.136 514.101 122.903C510.834 133.373 503.827 140.633 495.684 140.633C487.55 140.633 480.55 133.39 477.278 122.94C476.637 123.148 475.969 123.259 475.296 123.269C474.403 123.272 473.518 123.1 472.692 122.76C471.866 122.421 471.115 121.922 470.483 121.292C469.85 120.662 469.348 119.913 469.005 119.089C468.663 118.264 468.486 117.38 468.486 116.487C468.486 115.594 468.663 114.71 469.005 113.886C469.348 113.061 469.85 112.312 470.483 111.682C471.115 111.052 471.866 110.553 472.692 110.214C473.518 109.875 474.403 109.702 475.296 109.706Z" fill="#3A71C9"/>
<path d="M513.826 115.753C513.826 115.753 515.035 91.9096 506.569 86.7263C506.569 86.7263 503.459 82.7524 494.647 92.0824C485.836 101.412 477.271 96.4121 477.271 96.4121C477.271 96.4121 475.123 112.47 476.506 115.753C476.506 115.753 464.066 94.5013 477.715 83.6163C491.364 72.7313 498.794 76.5324 509.679 83.6163C509.679 83.6163 530.067 86.0352 513.826 115.753Z" fill="#070E19"/>
<path d="M496.973 111.326C497.55 112.219 497.996 113.19 498.296 114.211C498.626 115.242 498.801 116.317 498.813 117.401C498.813 117.994 498.713 118.583 498.517 119.143C498.399 119.484 498.196 119.79 497.928 120.032C497.659 120.274 497.334 120.444 496.982 120.526C496.362 120.606 495.733 120.465 495.207 120.126C494.737 119.852 494.313 119.506 493.949 119.101C494.821 119.453 495.771 119.569 496.702 119.437C497.211 119.224 497.385 118.336 497.375 117.383C497.366 116.397 497.308 115.412 497.198 114.432C497.103 113.421 496.998 112.398 496.973 111.326ZM511.401 104.389C511.401 104.389 504.896 101.69 501.5 107.878L511.401 104.389ZM492.139 108.19C492.139 108.19 489.409 101.698 482.644 103.712L492.139 108.19Z" fill="#070E19"/>
<path d="M504.834 114.608C505.645 114.608 506.302 113.622 506.302 112.406C506.302 111.189 505.645 110.203 504.834 110.203C504.023 110.203 503.365 111.189 503.365 112.406C503.365 113.622 504.023 114.608 504.834 114.608Z" fill="#070E19"/>
<path d="M488.074 114.003C488.885 114.003 489.543 113.017 489.543 111.801C489.543 110.584 488.885 109.598 488.074 109.598C487.263 109.598 486.605 110.584 486.605 111.801C486.605 113.017 487.263 114.003 488.074 114.003Z" fill="#070E19"/>
<path d="M520.471 117.776C519.742 117.111 518.931 116.541 518.058 116.08C517.687 115.914 517.281 115.84 516.875 115.866C516.414 115.86 515.914 115.983 515.288 116.049C515.554 115.479 516.02 115.027 516.597 114.778C516.911 114.633 517.252 114.556 517.598 114.551C517.944 114.546 518.287 114.614 518.605 114.749C519.209 115.012 519.712 115.462 520.04 116.033C520.363 116.555 520.513 117.164 520.471 117.776ZM470.653 117.776C470.611 117.164 470.762 116.555 471.084 116.033C471.413 115.462 471.916 115.012 472.519 114.749C472.837 114.613 473.18 114.546 473.526 114.551C473.872 114.556 474.213 114.633 474.527 114.778C475.104 115.027 475.57 115.479 475.837 116.049C475.211 115.983 474.71 115.86 474.25 115.866C473.844 115.84 473.438 115.914 473.066 116.08C472.193 116.541 471.383 117.111 470.653 117.776ZM505.7 136.631C504.545 138.004 503.11 139.115 501.491 139.889C499.851 140.697 498.06 141.153 496.232 141.227C494.4 141.311 492.573 140.979 490.888 140.256C490.055 139.916 489.26 139.491 488.514 138.989C487.795 138.469 487.113 137.9 486.473 137.285C487.305 137.617 488.052 138.052 488.851 138.367C489.634 138.694 490.438 138.97 491.256 139.195C492.85 139.668 494.512 139.869 496.173 139.79C499.568 139.576 502.85 138.488 505.7 136.631ZM502.106 125.212C502.106 125.212 498.102 134.283 490.067 126.767L502.106 125.212Z" fill="#070E19"/>
<path d="M566.404 299.673L571.871 331.632C572.164 333.346 572.1 335.101 571.684 336.789C571.267 338.477 570.507 340.061 569.45 341.442L558.487 355.764C558.195 356.145 557.819 356.455 557.388 356.667C556.957 356.88 556.483 356.991 556.003 356.991C555.173 356.991 554.377 356.661 553.79 356.074C553.204 355.488 552.874 354.692 552.874 353.862C552.874 352.223 553.421 350.631 554.428 349.337L562.837 338.541C562.837 338.541 561.73 323.781 561.484 325.995L557.125 333.102C556.924 333.429 556.644 333.701 556.31 333.891C555.976 334.081 555.599 334.183 555.215 334.188C554.831 334.193 554.452 334.101 554.113 333.92C553.774 333.739 553.486 333.475 553.277 333.153C553.008 332.753 552.875 332.277 552.897 331.796C553.006 330.018 553.508 328.287 554.366 326.727L555.58 324.519C555.58 324.519 552.874 308.037 556.318 299.673L566.404 299.673Z" fill="#3A71C9"/>
<path d="M493.78 179.169L497.441 191.5L457.479 244.004C451.277 252.33 439.6 251.931 434.405 241.459C434.405 241.459 434.011 233.824 435.052 231.578C439.729 221.479 444.828 220.22 452.919 213.435L493.78 179.169Z" fill="#2B589F"/>
<path d="M495.22 180.608L498.88 192.94L458.919 245.443C452.716 253.77 441.039 253.37 435.845 242.898C435.845 242.898 435.451 235.264 436.491 233.017C441.169 222.918 446.267 221.66 454.359 214.875L495.22 180.608Z" fill="#2B589F"/>
<path d="M403.043 212.864C403.043 212.864 402.765 207.323 394.135 198.647C385.505 189.972 377.789 184.064 382.316 191.407L385.858 196.946C385.858 196.946 376.644 193.498 371.334 190.963C369.936 190.269 368.353 190.041 366.816 190.315C365.279 190.588 363.871 191.348 362.799 192.481C360.835 194.65 360.923 196.994 366.459 201.09C374.738 207.216 387.56 216.54 390.046 217.454C390.908 217.771 403.043 212.864 403.043 212.864Z" fill="#3A71C9"/>
<path d="M454.562 279.143H537.841L538.532 265.321L550.281 313.007L572.051 309.552C566.068 239.258 552.174 193.778 544.896 173.89C543.584 170.31 541.543 167.041 538.902 164.29C536.262 161.538 533.08 159.365 529.556 157.907L511.924 150.596C511.924 150.596 497.065 185.843 480.133 150.596L462.501 157.907C455.377 160.861 446.155 166.451 443.504 173.694C440.209 182.698 434.029 202.456 429.357 211.595C429.051 212.194 428.616 212.719 428.084 213.133C427.552 213.546 426.937 213.838 426.28 213.987C425.623 214.137 424.942 214.14 424.283 213.998C423.625 213.855 423.006 213.57 422.47 213.163L396.288 197.541L386.211 216.994L419.576 244.708C424 247.752 429.443 248.937 434.732 248.008C440.021 247.079 444.734 244.11 447.855 239.74L453.525 231.802L454.216 279.143H537.495" fill="#628ED4"/>
<path d="M391.254 199.472C390.275 199.256 389.325 198.924 388.425 198.482C387.52 198.059 386.659 197.544 385.858 196.946C386.366 196.99 386.867 197.094 387.35 197.256C387.829 197.405 388.296 197.588 388.747 197.805C389.664 198.229 390.509 198.791 391.254 199.472ZM378.563 197.925C377.395 197.547 376.25 197.1 375.135 196.586C374.012 196.092 372.922 195.528 371.85 194.93C370.776 194.331 369.738 193.669 368.742 192.947C367.733 192.239 366.804 191.421 365.972 190.511C368.002 191.89 370.097 193.085 372.218 194.278C374.328 195.484 376.468 196.639 378.563 197.925ZM373.598 202.928C372.502 202.668 371.428 202.323 370.386 201.896C369.339 201.482 368.318 201.006 367.327 200.471C365.319 199.429 363.502 198.055 361.953 196.406C362.904 197.014 363.831 197.62 364.787 198.183C365.752 198.731 366.704 199.293 367.684 199.813L373.598 202.928ZM376.32 200.777C375.02 200.431 373.744 199.999 372.502 199.482C371.252 198.977 370.034 198.399 368.854 197.749C367.662 197.107 366.53 196.359 365.471 195.515C364.373 194.707 363.461 193.672 362.798 192.481C363.674 193.479 364.69 194.345 365.814 195.052C366.917 195.777 368.046 196.466 369.216 197.093C371.535 198.385 373.931 199.543 376.32 200.777Z" fill="#060D17"/>
<path d="M407.453 511.162L410.425 528.482L431.811 544.292C431.811 544.292 406.672 553.362 393.973 539.886L396.565 527.964L390.604 512.673L407.453 511.162ZM328.228 511.162L328.135 528.482L306.749 544.292C306.749 544.292 331.888 553.362 344.587 539.886L341.996 527.964L345.077 512.673L328.228 511.162Z" fill="#2B589F"/>
<path d="M367.028 258.575L356.553 277.329C349.312 290.292 344.455 304.45 342.212 319.128L313.227 515.821L419.874 512.674L425.922 326.109C426.636 309.472 423.53 292.892 416.842 277.642C413.874 270.737 409.896 264.311 405.039 258.575L367.028 258.575Z" fill="#3F75CB"/>
<path d="M355.709 132.281C355.883 134.721 356.815 134.782 357.385 137.502C358.207 141.429 356.464 142.252 357.292 145.396C357.764 147.184 358.378 147.107 361.514 151.558C364.75 156.15 364.043 156.155 365.742 157.993C368.738 161.231 370.096 160.309 373.494 163.803C375.744 166.116 375.487 166.869 377.969 169.143C379.62 170.51 381.377 171.744 383.223 172.833C389.608 177.083 389.997 177.497 391.5 177.815C393.828 178.211 396.216 178.042 398.465 177.323C400.99 176.68 401.06 176.13 405.302 174.507C409.654 172.842 409.913 173.293 411.508 172.189C413.915 170.523 413.405 169.441 416.286 166.91C419.008 164.519 419.77 165.215 421.373 163.257C423.418 160.758 422.388 159.367 424.5 157.199C426.102 155.556 427.057 155.983 428.784 154.108C429.769 152.854 430.563 151.461 431.139 149.973C433.46 145.55 434.475 146.034 435.873 142.791C436.623 141.052 436.142 141.353 437.622 135.948C438.798 131.656 439.017 131.775 439.128 130.382C439.466 126.163 437.392 125.93 438.141 122.875C438.596 121.02 439.856 119.083 439.139 116.468L439.139 116.467C438.46 111.588 437.962 108.014 435.278 104.708C433.827 102.92 433.564 103.462 429.165 99.1333C426.379 96.391 425.789 95.4893 423.886 94.3554C421.401 92.8745 420.962 93.5525 417.847 92.0439C413.808 90.0881 413.915 88.6431 410.671 87.5815C408.533 86.8821 408.513 87.5177 404.397 86.9079C399.176 86.1346 398.995 85.08 396.372 85.3401C393.563 85.6187 393.249 86.879 389.185 88.0706C385.79 89.066 385.263 88.0785 382.673 89.0587C380.039 90.0552 380.281 90.9913 377.046 92.7007C373.211 94.7264 372.099 93.8202 370.308 95.5751C368.521 97.3265 369.421 98.4314 367.459 101.899C365.855 104.732 365.07 104.318 362.428 107.999C360.926 110.181 359.613 112.487 358.503 114.892C357.413 116.671 356.63 118.62 356.185 120.659C355.901 123.071 356.718 123.333 356.587 126.364C356.451 129.531 355.533 129.827 355.709 132.281Z" fill="#070E19"/>
<path d="M374.344 143.075C374.37 143.074 374.395 143.082 374.422 143.082C374.903 129.252 383.662 118.149 394.682 117.898C405.702 117.648 414.957 128.34 416.067 142.134C416.094 142.133 416.118 142.124 416.145 142.123C417.81 142.266 419.364 143.018 420.508 144.236C421.652 145.454 422.306 147.052 422.344 148.722C422.382 150.393 421.801 152.019 420.714 153.288C419.626 154.556 418.108 155.379 416.452 155.597C415.796 155.602 415.144 155.489 414.528 155.263C412.233 162.133 407.728 167.509 402.113 169.908L402.134 169.91L402.304 187.027L401.553 199.574L384.329 198.324L384.686 187.428L386.043 168.396L386.088 168.401C381.699 165.414 378.363 161.119 376.556 156.127C375.952 156.381 375.306 156.524 374.65 156.548C372.985 156.406 371.431 155.654 370.287 154.436C369.143 153.218 368.489 151.62 368.451 149.949C368.413 148.279 368.994 146.653 370.081 145.384C371.169 144.115 372.687 143.293 374.344 143.075V143.075ZM333.489 315.596L330.442 338.236C330.284 339.462 330.403 340.708 330.791 341.882C331.18 343.056 331.827 344.127 332.686 345.016L341.723 354.609C341.977 354.87 342.285 355.073 342.626 355.204C342.967 355.335 343.331 355.391 343.695 355.367C344.309 355.364 344.897 355.118 345.33 354.682C345.763 354.247 346.006 353.658 346.005 353.044C345.936 351.876 345.448 350.772 344.631 349.934L337.706 342.709C337.706 342.709 338.014 332.311 338.288 333.854L341.933 338.659C342.117 338.883 342.351 339.061 342.615 339.18C342.879 339.298 343.168 339.353 343.457 339.342C343.747 339.33 344.03 339.251 344.284 339.111C344.537 338.971 344.755 338.774 344.92 338.536C345.112 338.252 345.198 337.909 345.164 337.568C345.009 336.313 344.553 335.115 343.836 334.073L342.812 332.575C342.812 332.575 344.296 320.904 341.312 315.18L333.489 315.596Z" fill="#2B589F"/>
<path d="M338.319 240.849L332.149 326.303L342.614 321.593L355.95 248.562L338.319 240.849Z" fill="#2B589F"/>
<path d="M336.848 254.515L340.338 208.916C340.631 205.108 341.824 201.424 343.819 198.168C345.814 194.912 348.555 192.176 351.815 190.186C355.637 187.843 359.782 186.072 364.118 184.931C370.841 183.336 377.729 182.538 384.639 182.553C384.639 182.553 391.895 202.595 402.262 182.553L416.566 187.373C420.678 188.758 424.46 190.975 427.678 193.886C430.896 196.796 433.48 200.338 435.27 204.29L450.727 229.723L438.411 244.81L417.621 230.395L405.026 258.575H367.015L358.619 229.723L355.561 254.515L336.848 254.515Z" fill="#2F5FAD"/>
<path d="M166.573 132.349C172.423 132.349 177.166 127.606 177.166 121.756C177.166 115.906 172.423 111.163 166.573 111.163C160.723 111.163 155.98 115.906 155.98 121.756C155.98 127.606 160.723 132.349 166.573 132.349Z" fill="#070E19"/>
<path d="M118.768 134.508C124.618 134.508 129.36 129.766 129.36 123.915C129.36 118.065 124.618 113.323 118.768 113.323C112.917 113.323 108.175 118.065 108.175 123.915C108.175 129.766 112.917 134.508 118.768 134.508Z" fill="#070E19"/>
<path d="M165.45 146.439C165.423 146.437 165.398 146.444 165.371 146.443C165.343 132.605 156.952 121.222 145.946 120.611C134.939 120 125.34 130.384 123.78 144.134C123.753 144.132 123.729 144.123 123.702 144.121C122.033 144.209 120.456 144.91 119.272 146.09C118.089 147.27 117.383 148.845 117.291 150.514C117.198 152.182 117.725 153.826 118.771 155.13C119.816 156.434 121.306 157.305 122.955 157.577C123.611 157.604 124.266 157.512 124.888 157.306C125.752 165.84 127.88 171.15 136.702 174.995L136.067 189.453L136.408 202.017L153.664 201.331L154.296 190.041L153.022 174.746C160.14 172.941 162.669 162.507 162.812 159.411C163.408 159.685 164.049 159.849 164.703 159.895C166.372 159.807 167.949 159.106 169.133 157.926C170.316 156.746 171.022 155.17 171.114 153.502C171.207 151.833 170.68 150.189 169.635 148.886C168.589 147.582 167.099 146.711 165.45 146.439H165.45Z" fill="#3A71C9"/>
<path d="M138.824 176.295C140.931 176.292 142.892 176.411 144.852 176.36C145.829 176.341 146.791 176.254 147.763 176.145C148.757 175.991 149.741 175.783 150.713 175.523C149.969 176.299 149.051 176.886 148.034 177.236C147.019 177.577 145.958 177.766 144.888 177.799C143.831 177.813 142.776 177.698 141.746 177.458C140.715 177.234 139.727 176.841 138.824 176.295ZM142.87 147.954C142.785 149.022 142.624 150.038 142.473 151.042C142.309 152.015 142.196 152.995 142.133 153.979C142.07 154.93 142.194 155.826 142.691 156.068C143.613 156.251 144.568 156.188 145.458 155.885C145.072 156.268 144.629 156.59 144.145 156.839C143.601 157.147 142.966 157.254 142.351 157.139C142.004 157.038 141.688 156.85 141.434 156.594C141.179 156.337 140.994 156.021 140.895 155.673C140.73 155.103 140.663 154.509 140.695 153.917C140.768 152.836 141.002 151.773 141.389 150.762C141.745 149.759 142.244 148.814 142.87 147.954ZM127.992 141.542C127.992 141.542 133.223 136.826 138.49 141.526L127.992 141.542ZM147.404 141.949C147.404 141.949 152.133 136.731 157.847 140.876L147.404 141.949ZM137.151 160.639C137.151 160.639 141.805 170.498 150.571 162.015L137.151 160.639Z" fill="#070E19"/>
<path d="M136.428 148.678C136.495 147.463 135.893 146.442 135.084 146.397C134.274 146.352 133.563 147.301 133.495 148.515C133.428 149.73 134.03 150.751 134.839 150.796C135.649 150.841 136.36 149.893 136.428 148.678Z" fill="#070E19"/>
<path d="M153.194 149.003C153.262 147.789 152.66 146.767 151.85 146.722C151.04 146.677 150.329 147.626 150.262 148.841C150.194 150.055 150.796 151.076 151.606 151.121C152.416 151.166 153.127 150.218 153.194 149.003Z" fill="#070E19"/>
<path d="M168.872 154.415C168.181 153.711 167.403 153.097 166.557 152.588C166.195 152.402 165.794 152.306 165.387 152.309C164.928 152.278 164.421 152.373 163.793 152.403C164.09 151.85 164.58 151.424 165.17 151.207C165.492 151.08 165.837 151.022 166.183 151.036C166.528 151.05 166.867 151.137 167.177 151.29C167.765 151.586 168.242 152.063 168.539 152.651C168.832 153.19 168.948 153.807 168.872 154.415ZM119.131 151.655C119.123 151.041 119.307 150.441 119.658 149.938C120.017 149.386 120.545 148.965 121.162 148.735C121.487 148.617 121.833 148.569 122.178 148.593C122.523 148.617 122.859 148.713 123.165 148.875C123.727 149.156 124.167 149.633 124.402 150.216C123.781 150.116 123.288 149.966 122.828 149.946C122.424 149.898 122.014 149.948 121.634 150.094C120.737 150.506 119.896 151.03 119.131 151.655ZM129.555 133.196C135.811 133.284 134.805 128.633 135.599 124.849C135.599 124.849 139.318 133.435 146.709 125.466C148.392 123.652 147.448 137.347 156.071 127.789C157.406 126.309 158.5 130.442 160.196 133.733C161.213 135.708 162.447 137.379 164.08 137.354L163.948 149.6C163.948 149.6 181.504 119.684 143.652 113.603C139.572 113.037 135.415 113.647 131.67 115.36C112.908 125.021 118.968 143.38 125.896 151.372C125.896 151.372 122.509 133.097 129.555 133.196Z" fill="#070E19"/>
<path d="M142.095 114.944L139.083 110.753C139.083 110.753 131.902 111.523 136.071 108.899C140.24 106.275 141.031 108.395 140.987 109.172L142.095 114.944Z" fill="#070E19"/>
<path d="M205.042 318.42L208.09 341.06C208.248 342.287 208.129 343.532 207.74 344.706C207.352 345.88 206.705 346.951 205.846 347.841L196.809 357.433C196.554 357.694 196.246 357.897 195.906 358.028C195.565 358.159 195.2 358.215 194.836 358.191C194.222 358.188 193.635 357.942 193.202 357.506C192.769 357.071 192.526 356.482 192.526 355.868C192.596 354.7 193.083 353.596 193.901 352.759L200.825 345.533C200.825 345.533 200.517 335.136 200.244 336.678L196.598 341.483C196.414 341.707 196.181 341.885 195.917 342.004C195.652 342.122 195.364 342.178 195.074 342.166C194.785 342.154 194.502 342.075 194.248 341.935C193.994 341.795 193.776 341.598 193.611 341.36C193.42 341.076 193.334 340.733 193.367 340.392C193.523 339.137 193.979 337.939 194.696 336.898L195.72 335.399C195.72 335.399 194.236 323.728 197.219 318.004L205.042 318.42Z" fill="#3A71C9"/>
<path d="M200.214 243.672L206.383 329.128L195.919 324.418L182.583 251.385L200.214 243.672Z" fill="#3A71C9"/>
<path d="M174.207 277.626L172.829 278.042L173.037 278.731L174.416 278.315L174.207 277.626Z" fill="#070E19"/>
<path d="M179.182 299.004L178.744 297.556L180.122 297.14L180.56 298.588L179.182 299.004ZM178.305 296.109L177.866 294.662L179.244 294.243L179.683 295.69L178.305 296.109ZM177.426 293.213L176.988 291.764L178.365 291.348L178.804 292.797L177.426 293.213ZM176.549 290.316L176.11 288.868L177.488 288.452L177.927 289.9L176.549 290.316ZM175.671 287.42L175.233 285.971L176.611 285.555L177.049 287.004L175.671 287.42ZM174.793 284.525L174.354 283.076L175.732 282.66L176.171 284.108L174.793 284.525ZM173.915 281.628L173.477 280.18L174.854 279.764L175.293 281.212L173.915 281.628Z" fill="#070E19"/>
<path d="M180.999 300.035L179.621 300.454L179.831 301.143L181.208 300.724L180.999 300.035Z" fill="#070E19"/>
<path d="M201.685 257.339L198.194 211.74C197.902 207.932 196.709 204.248 194.714 200.992C192.718 197.736 189.978 195 186.718 193.01C182.896 190.667 178.751 188.897 174.415 187.755C167.692 186.16 160.804 185.362 153.894 185.377C153.894 185.377 146.637 205.419 136.271 185.377L121.967 190.197C117.855 191.582 114.073 193.799 110.855 196.71C107.637 199.62 105.053 203.162 103.263 207.114L87.8057 232.547V262.545L120.912 233.22L133.506 261.399H171.518L179.914 232.547L182.972 257.339L201.685 257.339Z" fill="#3F75CB"/>
<path d="M113.118 217.514C114.861 219.879 116.381 222.401 117.659 225.047C118.996 227.664 120.085 230.4 120.912 233.219C119.167 230.855 117.646 228.333 116.37 225.686C115.037 223.068 113.948 220.332 113.118 217.514ZM179.913 232.547C180.438 229.052 181.23 225.603 182.283 222.23C183.274 218.838 184.527 215.528 186.03 212.33C185.509 215.825 184.717 219.275 183.66 222.647C182.667 226.038 181.414 229.348 179.913 232.547Z" fill="#2E5CA6"/>
<path d="M82.7924 179.204L72.0102 186.219L68.392 252.1C68.2406 254.418 68.7588 256.731 69.8847 258.763C71.0105 260.795 72.6967 262.46 74.7424 263.561C76.7881 264.662 79.107 265.151 81.4229 264.971C83.7389 264.791 85.9544 263.949 87.8054 262.546C92.0953 252.896 93.4444 242.196 91.6838 231.785L82.7924 179.204Z" fill="#3A71C9"/>
<path d="M83.872 190.873C83.872 190.873 86.7116 186.717 85.2368 175.714C83.762 164.71 81.4285 156.208 80.6702 163.997L80.1906 169.943C80.1906 169.943 75.4246 162.396 72.9791 157.651C72.3504 156.383 71.3309 155.349 70.0707 154.704C68.8106 154.058 67.3764 153.834 65.9795 154.065C63.3709 154.555 62.1483 156.297 63.9003 162.293C66.5206 171.262 70.6689 185.033 71.964 187.058C72.4127 187.76 83.872 190.873 83.872 190.873Z" fill="#3A71C9"/>
<path d="M82.7026 174.729C82.118 174.033 81.6149 173.272 81.203 172.461C80.7853 171.656 80.4462 170.813 80.1904 169.943C80.8501 170.581 81.3966 171.327 81.8066 172.149C82.2314 172.96 82.5334 173.829 82.7026 174.729Z" fill="#060D17"/>
<path d="M182.076 528.191L188.26 388.346L188.789 305.366C192.659 312.067 189.757 295.424 182.972 280.23C180.003 273.325 176.025 266.899 171.168 261.163H133.157L122.682 279.917C115.441 292.88 110.584 307.037 108.341 321.716L81.8011 515.529L79.6281 528.191L58.2422 544C58.2422 544 83.3814 553.071 96.0805 539.595L93.4888 527.673L149.701 307.813H151.755L168.215 527.673L165.624 539.595C178.323 553.071 203.462 544 203.462 544L182.076 528.191Z" fill="#3A71C9"/>
<path d="M211.755 552.812C211.755 552.812 183.506 553.342 176.767 546.986V552.823H164.327C164.327 552.823 160.419 532.018 167.038 533.085C173.657 534.152 197.219 552.141 197.749 539.777L206.992 544.535C208.427 545.273 209.63 546.392 210.47 547.77C211.31 549.147 211.755 550.729 211.755 552.343V552.812Z" fill="#3F75CB"/>
<path d="M133.314 261.163L122.839 279.917C115.598 292.88 110.74 307.038 108.498 321.716L98.3086 388.314L190.027 388.346L192.208 328.697C192.922 312.06 189.816 295.48 183.128 280.23C180.16 273.325 176.182 266.899 171.325 261.163L133.314 261.163Z" fill="#628ED4"/>
<path d="M49.9482 552.812C49.9482 552.812 78.1974 553.342 84.9357 546.986V552.823H97.3757C97.3757 552.823 101.284 532.018 94.6648 533.085C88.0457 534.152 64.4838 552.141 63.9544 539.777L54.7109 544.535C53.2764 545.273 52.073 546.392 51.2329 547.77C50.3927 549.147 49.9482 550.729 49.9482 552.343V552.812Z" fill="#3F75CB"/>
<path d="M399.908 170.686C398.988 171.202 397.988 171.563 396.95 171.753C395.913 171.96 394.855 172.039 393.799 171.99C392.73 171.923 391.677 171.699 390.673 171.325C389.668 170.942 388.77 170.325 388.052 169.525C389.014 169.817 389.991 170.058 390.979 170.245C391.947 170.385 392.906 170.503 393.881 170.554C395.839 170.668 397.803 170.615 399.908 170.686ZM396.862 145.327C397.46 146.207 397.927 147.169 398.25 148.182C398.604 149.206 398.803 150.276 398.84 151.359C398.854 151.952 398.767 152.543 398.584 153.107C398.473 153.451 398.278 153.762 398.015 154.009C397.752 154.257 397.431 154.434 397.081 154.524C396.462 154.619 395.831 154.492 395.297 154.166C394.821 153.902 394.389 153.566 394.016 153.17C394.896 153.502 395.848 153.596 396.776 153.443C397.28 153.218 397.434 152.326 397.401 151.374C397.371 150.388 397.29 149.405 397.158 148.428C397.04 147.419 396.912 146.399 396.862 145.327ZM411.863 139.783C411.863 139.783 407.151 134.549 401.423 138.675L411.863 139.783ZM392.614 138.814C392.614 138.814 387.697 133.772 382.139 138.124L392.614 138.814Z" fill="#070E19"/>
<path d="M404.796 148.43C405.607 148.412 406.242 147.411 406.214 146.195C406.186 144.978 405.507 144.007 404.696 144.026C403.885 144.044 403.25 145.045 403.278 146.261C403.305 147.478 403.985 148.449 404.796 148.43Z" fill="#070E19"/>
<path d="M388.027 148.207C388.837 148.189 389.472 147.188 389.445 145.971C389.417 144.755 388.737 143.784 387.926 143.803C387.115 143.821 386.48 144.822 386.508 146.038C386.536 147.255 387.216 148.226 388.027 148.207Z" fill="#070E19"/>
<path d="M405.568 98.7212C405.282 98.721 404.998 98.6817 404.722 98.6046C404.068 98.3453 403.475 97.9554 402.977 97.4589C402.479 96.9623 402.088 96.3694 401.827 95.7165C401.757 95.5397 401.76 95.3423 401.835 95.1676C401.91 94.9928 402.051 94.8548 402.227 94.7837C402.404 94.7126 402.601 94.7141 402.776 94.788C402.952 94.8619 403.09 95.0021 403.163 95.178C403.17 95.1949 403.867 96.8752 405.114 97.2197C405.494 97.2873 405.884 97.266 406.254 97.1574C406.624 97.0488 406.964 96.856 407.247 96.594C407.4 96.4791 407.592 96.4296 407.781 96.4562C407.97 96.4828 408.141 96.5835 408.255 96.736C408.37 96.8885 408.42 97.0804 408.393 97.2695C408.367 97.4586 408.266 97.6293 408.113 97.7442C407.395 98.3399 406.501 98.6831 405.568 98.7212ZM428.098 111.113C426.931 111.038 425.816 110.602 424.906 109.867C424.759 109.745 424.666 109.57 424.648 109.38C424.63 109.19 424.689 109 424.811 108.853C424.932 108.706 425.107 108.614 425.298 108.596C425.488 108.578 425.677 108.636 425.824 108.758C426.575 109.383 427.538 109.695 428.513 109.628C428.879 109.508 429.213 109.303 429.487 109.032C429.762 108.76 429.969 108.429 430.093 108.063C430.133 107.977 430.189 107.9 430.258 107.836C430.327 107.772 430.409 107.722 430.497 107.689C430.586 107.656 430.68 107.641 430.775 107.645C430.869 107.648 430.962 107.671 431.048 107.71C431.134 107.75 431.211 107.806 431.275 107.875C431.339 107.945 431.389 108.026 431.422 108.115C431.455 108.203 431.47 108.297 431.466 108.392C431.463 108.486 431.44 108.579 431.401 108.665C431.191 109.236 430.848 109.749 430.4 110.161C429.952 110.572 429.413 110.871 428.826 111.033C428.587 111.087 428.343 111.114 428.098 111.113ZM414.401 118.169C413.235 118.093 412.12 117.658 411.211 116.923C411.064 116.801 410.972 116.626 410.955 116.436C410.937 116.246 410.995 116.057 411.117 115.91C411.239 115.764 411.414 115.671 411.603 115.653C411.793 115.635 411.982 115.693 412.129 115.815C412.882 116.436 413.843 116.746 414.816 116.684C415.183 116.563 415.516 116.359 415.791 116.087C416.065 115.816 416.272 115.484 416.397 115.119C416.476 114.945 416.622 114.811 416.801 114.745C416.98 114.678 417.178 114.686 417.351 114.766C417.525 114.846 417.659 114.991 417.726 115.17C417.792 115.349 417.784 115.547 417.704 115.721C417.495 116.292 417.152 116.805 416.704 117.217C416.256 117.628 415.716 117.927 415.13 118.088C414.891 118.143 414.646 118.169 414.401 118.169ZM394.823 124.565C393.657 124.49 392.542 124.054 391.633 123.319L392.551 122.211C393.302 122.835 394.264 123.146 395.238 123.079C395.605 122.958 395.939 122.754 396.213 122.483C396.487 122.211 396.695 121.879 396.818 121.514L398.126 122.116C397.916 122.687 397.573 123.2 397.126 123.612C396.678 124.024 396.138 124.323 395.552 124.485C395.312 124.538 395.068 124.565 394.823 124.565ZM422.437 132.277C422.122 132.277 421.809 132.23 421.508 132.136C420.861 131.859 420.278 131.453 419.794 130.943C419.309 130.433 418.934 129.83 418.691 129.17C418.658 129.081 418.643 128.987 418.647 128.892C418.65 128.798 418.672 128.705 418.712 128.619C418.751 128.533 418.807 128.456 418.876 128.391C418.945 128.327 419.027 128.277 419.115 128.244C419.204 128.211 419.298 128.196 419.393 128.199C419.487 128.203 419.58 128.225 419.666 128.264C419.752 128.303 419.829 128.359 419.894 128.429C419.958 128.498 420.008 128.579 420.041 128.668C420.047 128.685 420.699 130.383 421.937 130.761C422.314 130.842 422.706 130.833 423.08 130.735C423.454 130.636 423.799 130.451 424.088 130.195C424.165 130.14 424.252 130.1 424.345 130.079C424.437 130.058 424.533 130.055 424.626 130.071C424.72 130.086 424.809 130.12 424.889 130.171C424.97 130.221 425.039 130.287 425.094 130.365C425.149 130.442 425.188 130.529 425.209 130.622C425.23 130.714 425.232 130.81 425.216 130.903C425.2 130.997 425.165 131.086 425.115 131.166C425.064 131.246 424.998 131.316 424.92 131.37C424.208 131.924 423.339 132.241 422.437 132.277ZM386.79 94.5438C386.476 94.5434 386.163 94.496 385.862 94.4032C385.216 94.1262 384.633 93.7202 384.148 93.2101C383.664 92.7 383.289 92.0964 383.046 91.4364C382.979 91.2574 382.987 91.0593 383.066 90.8856C383.146 90.712 383.291 90.5771 383.47 90.5105C383.649 90.4439 383.847 90.4512 384.021 90.5307C384.194 90.6102 384.329 90.7554 384.396 90.9344C384.402 90.9513 385.054 92.6498 386.291 93.0281C386.669 93.1063 387.059 93.0958 387.432 92.9975C387.805 92.8992 388.15 92.7157 388.44 92.4614C388.517 92.4051 388.604 92.3646 388.697 92.3422C388.789 92.3199 388.886 92.3163 388.98 92.3314C389.074 92.3466 389.164 92.3803 389.245 92.4306C389.326 92.481 389.396 92.5469 389.452 92.6245C389.507 92.7022 389.546 92.7901 389.567 92.8831C389.588 92.9761 389.591 93.0723 389.574 93.1662C389.558 93.2601 389.523 93.3499 389.472 93.4302C389.42 93.5105 389.353 93.5798 389.275 93.6341C388.562 94.19 387.693 94.5082 386.79 94.5438ZM366.402 114.241C366.087 114.242 365.774 114.194 365.473 114.101C364.827 113.823 364.244 113.417 363.76 112.907C363.276 112.397 362.901 111.794 362.658 111.134C362.593 110.955 362.601 110.758 362.68 110.585C362.76 110.412 362.905 110.278 363.083 110.211C363.262 110.145 363.459 110.152 363.632 110.231C363.806 110.31 363.941 110.454 364.008 110.632C364.013 110.649 364.666 112.347 365.902 112.726C366.28 112.805 366.671 112.796 367.045 112.697C367.418 112.599 367.763 112.414 368.053 112.159C368.13 112.104 368.218 112.065 368.31 112.044C368.402 112.023 368.498 112.021 368.591 112.036C368.684 112.052 368.773 112.087 368.853 112.137C368.933 112.187 369.003 112.253 369.058 112.33C369.112 112.407 369.151 112.495 369.172 112.587C369.193 112.679 369.196 112.775 369.18 112.868C369.164 112.961 369.129 113.05 369.079 113.13C369.029 113.211 368.963 113.28 368.886 113.334C368.173 113.889 367.304 114.206 366.402 114.241ZM364.316 134.461C364.001 134.461 363.687 134.414 363.386 134.32C362.74 134.043 362.158 133.637 361.674 133.126C361.19 132.616 360.815 132.013 360.572 131.353C360.505 131.174 360.512 130.976 360.592 130.803C360.671 130.629 360.816 130.494 360.995 130.427C361.174 130.361 361.373 130.368 361.546 130.448C361.72 130.527 361.855 130.672 361.921 130.851C361.927 130.868 362.579 132.567 363.815 132.945C364.193 133.025 364.585 133.016 364.958 132.917C365.332 132.819 365.677 132.634 365.967 132.378C366.044 132.324 366.131 132.285 366.223 132.264C366.315 132.243 366.411 132.24 366.504 132.256C366.597 132.272 366.686 132.306 366.767 132.357C366.847 132.407 366.916 132.473 366.971 132.55C367.025 132.627 367.064 132.714 367.085 132.806C367.106 132.899 367.109 132.994 367.093 133.087C367.077 133.181 367.043 133.27 366.992 133.35C366.942 133.43 366.876 133.499 366.799 133.554C366.086 134.108 365.218 134.425 364.316 134.461ZM383.046 109.295C381.752 109.183 380.542 108.61 379.636 107.679C379.504 107.542 379.431 107.357 379.435 107.167C379.438 106.976 379.517 106.794 379.655 106.661C379.792 106.529 379.976 106.456 380.167 106.46C380.358 106.463 380.54 106.542 380.673 106.68C381.356 107.374 382.273 107.789 383.246 107.844C383.624 107.765 383.979 107.6 384.282 107.36C384.585 107.121 384.828 106.814 384.992 106.464C385.091 106.301 385.251 106.184 385.436 106.139C385.621 106.093 385.817 106.123 385.98 106.222C386.143 106.321 386.261 106.48 386.306 106.665C386.352 106.851 386.322 107.046 386.224 107.21C385.951 107.754 385.553 108.225 385.062 108.584C384.571 108.943 384.001 109.18 383.4 109.275C383.283 109.288 383.164 109.295 383.046 109.295Z" fill="#152B4E"/>
<path d="M370.663 150.936C370.607 150.325 370.743 149.712 371.054 149.183C371.369 148.605 371.862 148.144 372.459 147.866C372.774 147.724 373.116 147.648 373.461 147.646C373.807 147.643 374.15 147.712 374.467 147.85C375.05 148.086 375.526 148.527 375.805 149.09C375.178 149.039 374.675 148.927 374.215 148.944C373.808 148.928 373.404 149.01 373.037 149.185C372.174 149.665 371.377 150.254 370.663 150.936ZM414.562 134.564C414.562 134.564 407.638 132.854 405.653 121.558C405.653 121.558 405.048 135.442 376.01 134.04L375.742 146.283L369.016 136.782C369.016 136.782 375.734 111.238 398.614 113.834C402.28 114.353 405.758 115.782 408.73 117.991C412.379 120.627 415.437 123.997 417.707 127.885C419.978 131.773 421.41 136.093 421.912 140.567L422.214 143.022C422.214 143.022 417.259 135.084 413.716 149.298L414.562 134.564Z" fill="#070E19"/>
<path d="M376.959 123.985C375.792 123.91 374.677 123.475 373.768 122.739C373.622 122.618 373.529 122.443 373.512 122.253C373.494 122.063 373.553 121.874 373.674 121.727C373.796 121.58 373.971 121.488 374.161 121.47C374.35 121.452 374.539 121.51 374.686 121.631C375.434 122.261 376.399 122.573 377.373 122.5C377.74 122.38 378.074 122.176 378.349 121.905C378.623 121.633 378.831 121.301 378.955 120.935C379.035 120.762 379.181 120.627 379.36 120.561C379.539 120.495 379.737 120.503 379.91 120.583C380.083 120.662 380.218 120.808 380.284 120.987C380.35 121.166 380.343 121.364 380.263 121.537C380.053 122.109 379.71 122.621 379.262 123.033C378.814 123.445 378.274 123.744 377.687 123.905C377.448 123.959 377.204 123.986 376.959 123.985ZM396.95 123.531C395.783 123.456 394.669 123.021 393.76 122.285C393.614 122.163 393.522 121.988 393.505 121.799C393.487 121.609 393.546 121.421 393.667 121.274C393.788 121.127 393.963 121.035 394.153 121.017C394.342 120.999 394.531 121.056 394.678 121.177C395.431 121.798 396.391 122.108 397.365 122.046C397.732 121.926 398.065 121.722 398.339 121.45C398.614 121.178 398.821 120.847 398.945 120.481C399.025 120.308 399.171 120.173 399.35 120.107C399.529 120.041 399.727 120.049 399.9 120.128C400.073 120.208 400.208 120.354 400.274 120.533C400.34 120.712 400.333 120.91 400.253 121.083C400.043 121.654 399.7 122.167 399.253 122.579C398.805 122.991 398.265 123.29 397.678 123.451C397.44 123.505 397.195 123.532 396.95 123.531ZM428.899 146.302C427.732 146.227 426.617 145.792 425.707 145.057C425.561 144.935 425.469 144.76 425.451 144.57C425.434 144.38 425.492 144.191 425.613 144.044C425.735 143.898 425.91 143.805 426.099 143.787C426.289 143.769 426.478 143.826 426.625 143.947C427.377 144.571 428.339 144.882 429.314 144.818C429.68 144.697 430.014 144.493 430.288 144.221C430.562 143.95 430.77 143.618 430.894 143.253C430.974 143.079 431.119 142.945 431.298 142.878C431.477 142.812 431.675 142.82 431.849 142.9C432.022 142.98 432.157 143.125 432.223 143.304C432.289 143.483 432.282 143.681 432.202 143.854C431.992 144.425 431.649 144.938 431.201 145.35C430.753 145.762 430.214 146.061 429.627 146.222C429.388 146.276 429.144 146.303 428.899 146.302Z" fill="#152B4E"/>
<path d="M420.425 149.803C419.681 149.154 418.858 148.603 417.974 148.162C417.599 148.004 417.192 147.94 416.786 147.976C416.326 147.979 415.828 148.114 415.204 148.193C415.458 147.618 415.913 147.156 416.484 146.893C416.795 146.741 417.134 146.656 417.48 146.644C417.826 146.631 418.17 146.691 418.491 146.819C419.101 147.068 419.614 147.507 419.955 148.07C420.289 148.584 420.454 149.19 420.425 149.803Z" fill="#070E19"/>
<path d="M419.071 142.886C418.734 139.157 418.059 135.467 417.054 131.861C416.11 128.314 414.652 124.925 412.725 121.801C410.88 118.77 408.228 116.312 405.065 114.703C401.874 113.21 398.335 112.616 394.83 112.985C391.264 113.307 387.805 114.37 384.673 116.105C381.542 117.841 378.807 120.211 376.643 123.064C374.445 125.969 372.901 129.316 372.117 132.874C371.342 136.518 371.12 140.259 371.456 143.97C370.523 140.262 370.276 136.415 370.727 132.618C371.221 128.731 372.62 125.014 374.81 121.765C377.037 118.478 379.967 115.728 383.389 113.713C386.81 111.698 390.637 110.47 394.591 110.117C396.585 109.968 398.59 110.057 400.563 110.384C402.564 110.697 404.5 111.337 406.294 112.278C409.834 114.192 412.735 117.101 414.642 120.645C416.495 124.045 417.773 127.728 418.424 131.545C419.104 135.284 419.321 139.093 419.071 142.886Z" fill="#254B87"/>
<path d="M405.063 156.869C405.623 156.85 406.153 156.614 406.542 156.211C406.932 155.808 407.149 155.27 407.149 154.709C407.149 154.149 406.932 153.611 406.542 153.208C406.153 152.805 405.623 152.569 405.063 152.55C404.503 152.569 403.973 152.805 403.583 153.208C403.194 153.611 402.977 154.149 402.977 154.709C402.977 155.27 403.194 155.808 403.583 156.211C403.973 156.614 404.503 156.85 405.063 156.869ZM386.921 155.487C387.481 155.468 388.011 155.231 388.401 154.829C388.79 154.426 389.007 153.887 389.007 153.327C389.007 152.767 388.79 152.229 388.401 151.826C388.011 151.423 387.481 151.187 386.921 151.167C386.361 151.187 385.831 151.423 385.442 151.826C385.052 152.229 384.835 152.767 384.835 153.327C384.835 153.887 385.052 154.426 385.442 154.829C385.831 155.231 386.361 155.468 386.921 155.487Z" fill="#1C3866"/>
<path d="M440.105 553.104C440.105 553.104 411.856 553.634 405.118 547.278V553.115H392.678C392.678 553.115 388.769 532.31 395.388 533.377C402.008 534.444 425.569 552.433 426.099 540.069L435.342 544.827C436.777 545.565 437.98 546.684 438.82 548.062C439.661 549.439 440.105 551.021 440.105 552.635V553.104ZM298.456 553.104C298.456 553.104 326.705 553.634 333.444 547.278V553.115H345.884C345.884 553.115 349.792 532.31 343.173 533.377C336.554 534.444 312.992 552.433 312.462 540.069L303.219 544.827C301.784 545.565 300.581 546.684 299.741 548.062C298.901 549.439 298.456 551.021 298.456 552.635V553.104Z" fill="#376FC8"/>
<path d="M407.667 277.797C407.513 277.797 407.363 277.747 407.239 277.656C407.114 277.564 407.023 277.434 406.978 277.286L406.351 275.22C406.323 275.129 406.313 275.033 406.321 274.939C406.33 274.844 406.357 274.752 406.402 274.668C406.446 274.584 406.507 274.509 406.58 274.449C406.653 274.388 406.738 274.343 406.829 274.315C406.92 274.288 407.016 274.278 407.11 274.288C407.205 274.297 407.297 274.325 407.38 274.37C407.464 274.416 407.538 274.477 407.598 274.551C407.658 274.624 407.702 274.709 407.729 274.801L408.356 276.867C408.389 276.975 408.396 277.089 408.377 277.2C408.358 277.311 408.313 277.416 408.246 277.506C408.179 277.596 408.092 277.67 407.991 277.72C407.891 277.771 407.78 277.797 407.667 277.797L407.667 277.797ZM412.265 292.97C412.111 292.97 411.96 292.92 411.836 292.828C411.712 292.736 411.621 292.607 411.576 292.459L410.426 288.666C410.372 288.484 410.393 288.288 410.483 288.12C410.573 287.953 410.726 287.828 410.907 287.773C411.089 287.718 411.285 287.737 411.453 287.825C411.621 287.914 411.747 288.066 411.804 288.247L412.954 292.04C412.987 292.148 412.994 292.262 412.975 292.373C412.956 292.484 412.911 292.588 412.844 292.679C412.777 292.769 412.69 292.843 412.589 292.893C412.489 292.944 412.378 292.97 412.265 292.97H412.265ZM409.966 285.384C409.812 285.384 409.662 285.335 409.537 285.243C409.413 285.151 409.322 285.021 409.277 284.874L408.127 281.08C408.073 280.898 408.094 280.702 408.184 280.535C408.274 280.367 408.427 280.243 408.608 280.187C408.79 280.132 408.986 280.151 409.154 280.24C409.322 280.328 409.448 280.48 409.505 280.661L410.655 284.455C410.688 284.562 410.695 284.676 410.676 284.787C410.657 284.898 410.612 285.003 410.545 285.093C410.478 285.183 410.391 285.257 410.29 285.307C410.19 285.358 410.079 285.384 409.966 285.384L409.966 285.384ZM414.041 298.829C413.886 298.829 413.736 298.779 413.612 298.687C413.488 298.595 413.397 298.465 413.352 298.317L412.726 296.25C412.698 296.159 412.688 296.064 412.697 295.969C412.706 295.875 412.733 295.783 412.778 295.699C412.822 295.615 412.883 295.54 412.956 295.48C413.03 295.42 413.114 295.375 413.205 295.347C413.296 295.32 413.392 295.31 413.486 295.32C413.581 295.33 413.673 295.358 413.756 295.403C413.84 295.448 413.914 295.51 413.973 295.584C414.033 295.658 414.078 295.743 414.104 295.834L414.73 297.901C414.757 297.991 414.767 298.086 414.757 298.18C414.748 298.274 414.72 298.366 414.675 298.449C414.631 298.532 414.57 298.606 414.497 298.666C414.424 298.726 414.34 298.771 414.249 298.798C414.182 298.818 414.112 298.829 414.041 298.829Z" fill="#2E5CA6"/>
<path d="M425.414 214.689C424.584 217.508 423.495 220.244 422.162 222.862C420.886 225.509 419.366 228.031 417.621 230.395C418.448 227.576 419.537 224.839 420.873 222.222C422.152 219.577 423.672 217.055 425.414 214.689ZM358.619 229.722C357.118 226.523 355.866 223.214 354.872 219.823C353.816 216.45 353.023 213.001 352.502 209.506C354.006 212.704 355.258 216.014 356.249 219.406C357.302 222.779 358.094 226.228 358.619 229.722Z" fill="#254B87"/>
<path d="M402.495 160.329C402.495 160.329 398.491 169.399 390.457 161.884L402.495 160.329Z" fill="#070E19"/>
<path d="M535.423 279.143V516.885H503.632L499.485 309.552H491.192L475.296 516.885H443.505L457.327 279.143H535.423Z" fill="#376FC8"/>
<path d="M453.526 192.754C453.823 196.008 453.962 199.262 454.077 202.516C454.209 205.77 454.227 209.024 454.246 212.278C454.229 215.532 454.21 218.786 454.08 222.04L453.879 226.921C453.759 228.548 453.689 230.175 453.526 231.802C453.363 230.175 453.293 228.548 453.173 226.921L452.972 222.04C452.842 218.786 452.823 215.532 452.807 212.278C452.825 209.024 452.843 205.77 452.975 202.516C453.09 199.262 453.229 196.008 453.526 192.754ZM537.842 194.482C538.196 200.382 538.393 206.284 538.566 212.186C538.742 218.088 538.789 223.992 538.906 229.895C538.908 235.798 538.971 241.701 538.914 247.605L538.799 256.462C538.709 259.415 538.667 262.368 538.533 265.32C538.341 262.371 538.242 259.42 538.094 256.469L537.806 247.617C537.634 241.714 537.582 235.811 537.468 229.908C537.471 224.005 537.402 218.101 537.463 212.197C537.521 206.292 537.602 200.388 537.842 194.482Z" fill="#3366B8"/>
<path d="M468.384 525.179C468.384 525.179 477.023 549.368 469.767 552.823H462.51C462.51 552.823 459.054 543.148 454.217 552.823H409.985C409.985 552.823 407.221 545.221 417.933 541.765C428.645 538.31 446.614 525.179 446.614 525.179H468.384Z" fill="#2F5FAD"/>
<path d="M469.767 516.886L468.384 525.179H446.614V516.886H469.767Z" fill="#3A71C9"/>
<path d="M508.978 525.179C508.978 525.179 500.339 549.368 507.595 552.823H514.852C514.852 552.823 518.308 543.148 523.145 552.823H567.377C567.377 552.823 570.141 545.221 559.429 541.765C548.717 538.31 530.748 525.179 530.748 525.179H508.978Z" fill="#2F5FAD"/>
<path d="M507.595 516.886L508.977 525.179H530.747V516.886H507.595Z" fill="#3A71C9"/>
<path d="M489.19 308.96C491.502 308.452 493.865 308.211 496.231 308.24C498.598 308.207 500.961 308.449 503.272 308.96C500.961 309.471 498.598 309.712 496.231 309.679C493.865 309.709 491.502 309.468 489.19 308.96Z" fill="#3469BF"/>
<path d="M449.287 228.283L453.526 232.492L453.756 247.579C453.756 247.579 441.058 254.508 436.972 243.37L449.287 228.283Z" fill="#2B589F"/>
<path d="M373.904 166.294H367.94V153.506H373.904V166.294ZM369.02 165.214H372.824V154.585H369.02V165.214ZM422.755 165.575H416.79V152.787H422.755V165.575ZM417.87 164.495H421.675V153.867H417.87V164.495Z" fill="#376FC8"/>
<path d="M417.866 153.85V152.343H421.492C420.674 153.746 419.391 154.82 417.866 155.378V153.85ZM372.857 156.29V153.477H369.438C370.212 154.787 371.423 155.783 372.857 156.29Z" fill="#2B589F"/>
<path d="M130.38 186.029L132.213 190.482C132.648 191.533 132.802 192.679 132.66 193.808C132.518 194.936 132.086 196.008 131.405 196.919C131.123 197.306 130.794 197.656 130.426 197.962C129.893 198.427 129.288 198.801 128.634 199.07L122.161 201.734C121.934 201.83 121.699 201.908 121.46 201.966C121.03 202.104 120.584 202.183 120.133 202.199C118.752 202.307 117.373 201.973 116.194 201.247C115.015 200.52 114.097 199.437 113.574 198.155L111.741 193.702C111.343 192.734 111.346 191.647 111.748 190.681C112.151 189.715 112.921 188.948 113.888 188.549L125.227 183.882C126.195 183.484 127.282 183.487 128.248 183.889C129.214 184.292 129.981 185.062 130.38 186.029Z" fill="#CDDBF1"/>
<path d="M131.405 196.919C131.123 197.306 130.794 197.656 130.426 197.962L126.811 189.49C126.745 189.33 126.745 189.15 126.811 188.99C126.877 188.83 127.003 188.702 127.163 188.635C127.323 188.567 127.502 188.565 127.663 188.629C127.824 188.694 127.953 188.819 128.022 188.978L131.405 196.919ZM128.245 199.23L127.028 199.731L123.305 191.033C123.239 190.872 123.24 190.691 123.307 190.53C123.374 190.369 123.502 190.241 123.663 190.174C123.742 190.141 123.827 190.123 123.912 190.122C123.998 190.121 124.083 190.137 124.162 190.169C124.241 190.201 124.314 190.249 124.375 190.309C124.435 190.369 124.484 190.441 124.517 190.52L128.245 199.23ZM124.668 200.702L123.451 201.203L119.826 192.707C119.791 192.629 119.772 192.544 119.771 192.458C119.769 192.372 119.785 192.287 119.817 192.207C119.85 192.127 119.898 192.055 119.958 191.994C120.019 191.934 120.092 191.886 120.171 191.854L120.184 191.849C120.343 191.785 120.521 191.786 120.68 191.85C120.839 191.914 120.967 192.038 121.037 192.194L124.668 200.702ZM121.46 201.966C121.03 202.104 120.584 202.183 120.133 202.199L116.408 193.46C116.338 193.3 116.335 193.119 116.399 192.957C116.463 192.794 116.589 192.664 116.748 192.594C116.828 192.557 116.915 192.537 117.003 192.535C117.091 192.533 117.178 192.549 117.26 192.582C117.341 192.615 117.415 192.665 117.477 192.727C117.539 192.79 117.587 192.865 117.619 192.947L121.46 201.966Z" fill="#070E19"/>
<path d="M426.831 192.054L424.967 196.495C424.529 197.544 423.825 198.462 422.926 199.157C422.026 199.853 420.961 200.302 419.835 200.462C419.361 200.534 418.881 200.548 418.404 200.503C417.699 200.454 417.007 200.289 416.355 200.014L409.901 197.305C409.673 197.212 409.452 197.1 409.242 196.972C408.841 196.765 408.471 196.504 408.141 196.195C407.091 195.293 406.354 194.08 406.038 192.731C405.722 191.383 405.842 189.969 406.382 188.693L408.246 184.253C408.651 183.288 409.423 182.524 410.392 182.128C411.361 181.732 412.447 181.737 413.413 182.141L424.719 186.887C425.684 187.293 426.448 188.065 426.844 189.034C427.24 190.003 427.235 191.089 426.831 192.054Z" fill="#CDDBF1"/>
<path d="M419.835 200.462C419.362 200.535 418.881 200.548 418.405 200.503L421.86 191.965C421.928 191.806 422.055 191.679 422.215 191.613C422.375 191.547 422.555 191.547 422.715 191.612C422.876 191.678 423.004 191.804 423.072 191.963C423.14 192.122 423.142 192.302 423.079 192.463L419.835 200.462ZM415.967 199.852L414.754 199.342L418.294 190.569C418.362 190.408 418.491 190.281 418.652 190.215C418.814 190.149 418.995 190.15 419.156 190.217C419.235 190.249 419.307 190.296 419.368 190.356C419.429 190.416 419.478 190.488 419.511 190.567C419.544 190.646 419.561 190.73 419.562 190.816C419.562 190.902 419.545 190.986 419.513 191.066L415.967 199.852ZM412.401 198.354L411.188 197.845L414.653 189.283C414.684 189.203 414.731 189.13 414.791 189.068C414.851 189.006 414.923 188.957 415.002 188.924C415.081 188.891 415.166 188.874 415.252 188.874C415.338 188.874 415.423 188.892 415.502 188.926L415.514 188.931C415.672 188.999 415.797 189.125 415.863 189.284C415.93 189.442 415.933 189.619 415.872 189.78L412.401 198.354ZM409.243 196.972C408.842 196.765 408.471 196.504 408.142 196.195L411.709 187.391C411.774 187.229 411.9 187.099 412.06 187.03C412.22 186.961 412.401 186.958 412.563 187.021C412.646 187.052 412.721 187.099 412.784 187.16C412.848 187.221 412.898 187.295 412.932 187.376C412.966 187.457 412.983 187.544 412.983 187.632C412.982 187.72 412.963 187.807 412.927 187.888L409.243 196.972Z" fill="#070E19"/>
<path d="M535.893 160.773L534.029 165.213C533.59 166.263 532.887 167.18 531.987 167.875C531.087 168.571 530.022 169.021 528.896 169.18C528.423 169.253 527.943 169.267 527.466 169.222C526.761 169.172 526.068 169.007 525.417 168.733L518.963 166.024C518.734 165.93 518.514 165.819 518.304 165.69C517.903 165.483 517.532 165.222 517.203 164.913C516.152 164.011 515.416 162.798 515.099 161.449C514.783 160.101 514.904 158.687 515.443 157.412L517.307 152.971C517.713 152.006 518.485 151.242 519.454 150.846C520.423 150.45 521.509 150.455 522.474 150.859L533.781 155.606C534.746 156.011 535.51 156.783 535.906 157.752C536.302 158.721 536.297 159.807 535.893 160.773Z" fill="#2B589F"/>
<path d="M528.896 169.18C528.423 169.253 527.943 169.267 527.466 169.222L530.922 160.684C530.989 160.524 531.117 160.398 531.277 160.332C531.437 160.265 531.616 160.265 531.777 160.331C531.937 160.396 532.065 160.522 532.133 160.681C532.201 160.84 532.204 161.02 532.14 161.181L528.896 169.18ZM525.029 168.57L523.816 168.061L527.356 159.287C527.424 159.127 527.552 158.999 527.714 158.933C527.875 158.868 528.056 158.868 528.217 158.935C528.296 158.967 528.369 159.014 528.43 159.075C528.491 159.135 528.539 159.206 528.572 159.285C528.606 159.364 528.623 159.449 528.623 159.534C528.623 159.62 528.607 159.705 528.574 159.784L525.029 168.57ZM521.462 167.073L520.249 166.563L523.715 158.001C523.746 157.921 523.793 157.848 523.853 157.786C523.912 157.725 523.984 157.676 524.063 157.642C524.143 157.609 524.228 157.592 524.314 157.592C524.4 157.593 524.485 157.61 524.564 157.644L524.576 157.649C524.733 157.717 524.858 157.844 524.925 158.002C524.991 158.16 524.994 158.338 524.933 158.498L521.462 167.073ZM518.304 165.69C517.903 165.483 517.532 165.222 517.203 164.913L520.77 156.109C520.835 155.947 520.961 155.817 521.121 155.748C521.281 155.679 521.462 155.676 521.625 155.739C521.707 155.77 521.782 155.818 521.846 155.879C521.909 155.94 521.96 156.013 521.994 156.094C522.028 156.175 522.045 156.262 522.044 156.35C522.043 156.438 522.024 156.525 521.989 156.606L518.304 165.69Z" fill="#070E19"/>
<path d="M372.802 180.71L374.534 185.204C374.945 186.264 375.074 187.413 374.907 188.538C374.74 189.663 374.283 190.725 373.582 191.62C373.291 192 372.954 192.343 372.579 192.641C372.036 193.094 371.423 193.455 370.763 193.708L364.232 196.226C364.002 196.317 363.766 196.389 363.525 196.442C363.093 196.571 362.645 196.639 362.193 196.645C360.81 196.722 359.439 196.358 358.277 195.604C357.114 194.851 356.222 193.748 355.727 192.454L353.995 187.961C353.619 186.984 353.646 185.898 354.071 184.942C354.495 183.985 355.282 183.236 356.258 182.858L367.699 178.447C368.676 178.072 369.762 178.099 370.719 178.523C371.676 178.948 372.425 179.734 372.802 180.71Z" fill="#3A71C9"/>
<path d="M373.581 191.621C373.29 192.001 372.954 192.344 372.579 192.641L369.155 184.09C369.093 183.929 369.097 183.749 369.167 183.59C369.236 183.431 369.366 183.307 369.527 183.243C369.688 183.179 369.868 183.181 370.027 183.249C370.187 183.317 370.313 183.445 370.378 183.605L373.581 191.621ZM370.37 193.86L369.142 194.333L365.616 185.554C365.554 185.391 365.559 185.21 365.629 185.051C365.7 184.892 365.831 184.767 365.993 184.703C366.073 184.672 366.158 184.656 366.243 184.657C366.329 184.658 366.414 184.676 366.492 184.71C366.571 184.743 366.642 184.793 366.701 184.854C366.761 184.916 366.808 184.988 366.839 185.068L370.37 193.86ZM366.76 195.251L365.533 195.725L362.1 187.149C362.067 187.07 362.05 186.985 362.05 186.899C362.051 186.813 362.069 186.728 362.103 186.649C362.137 186.57 362.186 186.499 362.248 186.439C362.311 186.38 362.384 186.334 362.465 186.304L362.477 186.299C362.638 186.239 362.815 186.243 362.973 186.311C363.13 186.379 363.256 186.505 363.322 186.663L366.76 195.251ZM363.525 196.442C363.093 196.571 362.644 196.639 362.193 196.645L358.666 187.825C358.6 187.663 358.601 187.482 358.669 187.321C358.736 187.16 358.864 187.033 359.026 186.966C359.106 186.931 359.193 186.914 359.281 186.914C359.369 186.914 359.456 186.932 359.537 186.966C359.618 187.001 359.691 187.052 359.751 187.116C359.812 187.18 359.858 187.256 359.888 187.339L363.525 196.442Z" fill="#070E19"/>
<path d="M0 552.823H622" stroke="#010203" stroke-width="0.833333" stroke-miterlimit="10"/>
</g>
<defs>
<clipPath id="clip0_238_561">
<rect width="622" height="622" fill="white"/>
</clipPath>
</defs>
</svg>
