<svg width="42" height="42" viewBox="0 0 42 42" fill="none" xmlns="http://www.w3.org/2000/svg">
<path d="M21 3.5C17.5388 3.5 14.1554 4.52636 11.2775 6.44928C8.39967 8.37221 6.15665 11.1053 4.83212 14.303C3.50758 17.5007 3.16102 21.0194 3.83627 24.4141C4.51151 27.8088 6.17822 30.927 8.62564 33.3744C11.0731 35.8218 14.1913 37.4885 17.5859 38.1637C20.9806 38.839 24.4993 38.4924 27.697 37.1679C30.8947 35.8434 33.6278 33.6003 35.5507 30.7225C37.4736 27.8446 38.5 24.4612 38.5 21C38.5 18.7019 38.0474 16.4262 37.1679 14.303C36.2884 12.1798 34.9994 10.2507 33.3744 8.62563C31.7493 7.00061 29.8202 5.71157 27.697 4.83211C25.5738 3.95265 23.2981 3.5 21 3.5ZM21 35C18.2311 35 15.5243 34.1789 13.222 32.6406C10.9197 31.1022 9.12532 28.9157 8.06569 26.3576C7.00607 23.7994 6.72882 20.9845 7.26901 18.2687C7.80921 15.553 9.14258 13.0584 11.1005 11.1005C13.0584 9.14257 15.553 7.8092 18.2687 7.26901C20.9845 6.72881 23.7994 7.00606 26.3576 8.06569C28.9157 9.12531 31.1022 10.9197 32.6406 13.222C34.1789 15.5243 35 18.2311 35 21C35 24.713 33.525 28.274 30.8995 30.8995C28.274 33.525 24.713 35 21 35ZM28 19.25H22.75V14C22.75 13.5359 22.5656 13.0908 22.2374 12.7626C21.9093 12.4344 21.4641 12.25 21 12.25C20.5359 12.25 20.0908 12.4344 19.7626 12.7626C19.4344 13.0908 19.25 13.5359 19.25 14V19.25H14C13.5359 19.25 13.0908 19.4344 12.7626 19.7626C12.4344 20.0908 12.25 20.5359 12.25 21C12.25 21.4641 12.4344 21.9092 12.7626 22.2374C13.0908 22.5656 13.5359 22.75 14 22.75H19.25V28C19.25 28.4641 19.4344 28.9093 19.7626 29.2374C20.0908 29.5656 20.5359 29.75 21 29.75C21.4641 29.75 21.9093 29.5656 22.2374 29.2374C22.5656 28.9093 22.75 28.4641 22.75 28V22.75H28C28.4641 22.75 28.9093 22.5656 29.2374 22.2374C29.5656 21.9092 29.75 21.4641 29.75 21C29.75 20.5359 29.5656 20.0908 29.2374 19.7626C28.9093 19.4344 28.4641 19.25 28 19.25Z" fill="#76809D"/>
</svg>
