<svg width="18" height="18" viewBox="0 0 18 18" fill="none" xmlns="http://www.w3.org/2000/svg">
<path d="M15.845 14.1546C15.436 14.3182 14.9996 14.4001 14.5632 14.4273L14.9178 17.1546C14.9723 17.4819 15.245 17.7546 15.6541 17.7273C16.0087 17.6728 16.2541 17.3455 16.2269 16.991L15.845 14.1546ZM12.545 16.991C12.4905 17.3455 12.7632 17.6728 13.1178 17.7273C13.5269 17.7546 13.8269 17.4819 13.8541 17.1546L14.2087 14.4001C13.7723 14.3728 13.336 14.2637 12.9269 14.0728L12.545 16.991ZM7.17232 16.7455C7.17232 17.1001 7.47232 17.4001 7.82686 17.4001C8.18141 17.4001 8.48141 17.1001 8.48141 16.7455V13.1728C8.04505 13.1182 7.60868 13.0364 7.17232 12.8728V16.7455ZM9.38141 16.7455C9.38141 17.1001 9.68141 17.4001 10.036 17.4001C10.3905 17.4001 10.6905 17.1001 10.6905 16.7455V12.9819C10.2541 13.1182 9.81777 13.1728 9.38141 13.2001V16.7455ZM11.0996 6.08189C11.536 6.70916 12.6814 8.01825 13.3087 7.60916C13.0905 7.30916 13.0087 6.92734 13.0632 6.60007C12.6541 6.38189 11.9723 5.61825 11.4814 4.69098C11.3178 4.33643 11.2632 4.03643 10.9087 3.92734C9.68141 3.30007 8.45414 3.30007 7.17232 3.95461C6.95414 4.0637 6.92686 4.22734 6.81777 4.44552C5.80868 6.54552 4.90868 6.60007 4.71777 6.81825C4.88141 7.09098 4.93596 7.41825 4.90868 7.63643C5.5905 7.93643 6.68141 6.62734 7.0905 6.00007V7.03643L5.97232 11.9455C7.88141 13.1455 10.036 13.1455 11.8905 12.1092L11.045 7.14552L11.0996 6.08189ZM9.1905 3.24552C9.98141 3.27279 10.6905 2.64552 10.7178 1.80007C10.745 0.981886 10.0905 0.300068 9.27232 0.272795C8.45414 0.245522 7.77232 0.900068 7.74505 1.71825C7.71777 2.53643 8.34505 3.21825 9.1905 3.24552ZM14.3996 7.93643C15.0269 7.9637 15.545 7.47279 15.5723 6.84552C15.5996 6.21825 15.1087 5.70007 14.4814 5.67279C13.8814 5.64552 13.3632 6.10916 13.336 6.70916C13.336 6.73643 13.336 6.73643 13.336 6.7637C13.2814 7.3637 13.745 7.93643 14.3996 7.93643Z" fill="#76809D"/>
<path d="M17.4004 8.72737C17.2913 8.53646 17.0459 8.48191 16.855 8.591L16.255 8.94555C16.2277 8.94555 15.6277 8.64555 15.655 8.64555C15.655 8.64555 15.6277 8.61828 15.6004 8.61828C14.1004 7.80009 13.0095 8.78191 12.9822 8.80918L12.6004 9.08191L12.0004 9.00009C11.7822 8.97282 11.5913 9.13646 11.564 9.32737C11.5368 9.51828 11.6459 9.70918 11.8368 9.76373C12.8186 10.1183 13.1186 9.70918 13.2277 9.62737L13.2004 10.5546L12.5186 13.6365C13.7186 14.4001 15.0822 14.3728 16.2277 13.7455L15.7095 10.6365L15.7368 9.60009C15.764 9.60009 16.1459 9.791 16.1186 9.791C16.2277 9.84555 16.364 9.84555 16.5004 9.791L17.2913 9.32737C17.455 9.13646 17.5095 8.891 17.4004 8.72737ZM3.57314 8.61828C4.22768 8.64555 4.74586 8.07282 4.66404 7.391C4.58223 6.87282 4.17314 6.491 3.62768 6.46373C3.02768 6.43646 2.53677 6.92737 2.5095 7.50009C2.5095 8.12737 2.97314 8.61828 3.57314 8.61828ZM6.08223 10.3637L6.43677 9.51828C6.51859 9.32737 6.43677 9.13646 6.30041 9.02737C6.27314 9.02737 6.27313 9.00009 6.24586 9.00009C6.05495 8.91828 5.8095 9.00009 5.72768 9.21828L5.5095 9.70918L5.26404 9.60009C4.14586 8.80919 3.02768 8.72737 2.01859 9.54555C1.77314 9.65464 1.41859 10.6365 0.654954 11.4001C0.491317 11.5637 0.491317 11.8092 0.654954 11.9455C0.81859 12.1092 1.06404 12.1092 1.20041 11.9455C1.50041 11.6455 1.77314 11.2637 2.01859 10.9092C2.26404 13.8546 2.2095 13.691 2.26404 13.7728L1.99132 16.9637C1.96404 17.3183 2.23677 17.6455 2.59132 17.6728C2.94586 17.7001 3.27314 17.4274 3.30041 17.0728L3.60041 13.8274H3.62768L3.92768 17.0728C3.95495 17.4274 4.28223 17.7001 4.63677 17.6728C4.99132 17.6455 5.26404 17.3183 5.23677 16.9637L4.9095 13.7455C4.96404 13.6637 4.9095 13.8546 5.18223 10.4183L5.53677 10.5546C5.78223 10.6637 6.00041 10.5274 6.08223 10.3637Z" fill="#76809D"/>
</svg>
