<svg width="32" height="32" viewBox="0 0 32 32" fill="none" xmlns="http://www.w3.org/2000/svg">
<path d="M15.9997 6C9.33301 6 3.63967 10.1467 1.33301 16C3.63967 21.8533 9.33301 26 15.9997 26C22.673 26 28.3597 21.8533 30.6663 16C28.3597 10.1467 22.673 6 15.9997 6ZM15.9997 22.6667C12.3197 22.6667 9.33301 19.68 9.33301 16C9.33301 12.32 12.3197 9.33333 15.9997 9.33333C19.6797 9.33333 22.6663 12.32 22.6663 16C22.6663 19.68 19.6797 22.6667 15.9997 22.6667ZM15.9997 12C13.793 12 11.9997 13.7933 11.9997 16C11.9997 18.2067 13.793 20 15.9997 20C18.2063 20 19.9997 18.2067 19.9997 16C19.9997 13.7933 18.2063 12 15.9997 12Z" fill="#76809D"/>
</svg>
