<svg width="29" height="29" viewBox="0 0 29 29" fill="none" xmlns="http://www.w3.org/2000/svg">
<path fill-rule="evenodd" clip-rule="evenodd" d="M11.7169 14.5935V24.9774C11.7169 25.1177 11.8339 25.2581 11.9976 25.2581H15.8565C15.9968 25.2581 16.1371 25.1411 16.1371 24.9774V14.4065H18.9202C19.0605 14.4065 19.1774 14.2895 19.2008 14.1492L19.4347 10.9919C19.4581 10.8282 19.3177 10.6879 19.154 10.6879H16.1137V8.44274C16.1137 7.90484 16.5347 7.48387 17.0726 7.48387H19.2242C19.3645 7.48387 19.5048 7.36693 19.5048 7.20322V4.04596C19.5048 3.90564 19.3879 3.76532 19.2242 3.76532H15.5758C13.4476 3.76532 11.7169 5.49596 11.7169 7.62419V10.6879H9.7992C9.65888 10.6879 9.51855 10.8048 9.51855 10.9685V14.1492C9.51855 14.2895 9.63549 14.4298 9.7992 14.4298H11.7169V14.5935Z" fill="#76809D"/>
</svg>
