<svg width="18" height="18" viewBox="0 0 18 18" fill="none" xmlns="http://www.w3.org/2000/svg">
<path d="M16.2752 7.49999L9.52516 1.49999C9.22516 1.27499 8.85016 1.27499 8.55016 1.49999L1.80016 7.49999C1.50016 7.79999 1.42516 8.24999 1.72516 8.54999C1.87516 8.69999 2.10016 8.77499 2.25016 8.77499H3.00016V15.525C3.00016 15.975 3.30016 16.275 3.75016 16.275H14.2502C14.7002 16.275 15.0002 15.975 15.0002 15.525V8.77499H15.7502C16.2002 8.77499 16.5002 8.47499 16.5002 8.02499C16.5002 7.79999 16.4252 7.64999 16.2752 7.49999ZM11.2502 14.775H6.75016V12.525C6.75016 11.25 7.72516 10.275 9.00016 10.275C10.2752 10.275 11.2502 11.25 11.2502 12.525V14.775Z" fill="#76809D"/>
</svg>
