<svg width="34" height="36" viewBox="0 0 34 36" fill="none" xmlns="http://www.w3.org/2000/svg">
<path d="M28.422 6.47998H5.57822C5.06664 6.47998 4.5601 6.58685 4.0876 6.79448C3.6151 7.00211 3.18594 7.30641 2.82469 7.68994C2.46345 8.07348 2.17723 8.52872 1.98243 9.02958C1.78762 9.53043 1.68807 10.0671 1.68947 10.6087V25.3912C1.68807 25.9329 1.78762 26.4695 1.98243 26.9704C2.17723 27.4712 2.46345 27.9265 2.82469 28.31C3.18594 28.6936 3.6151 28.9979 4.0876 29.2055C4.5601 29.4131 5.06664 29.52 5.57822 29.52H28.422C28.9335 29.52 29.4401 29.4131 29.9126 29.2055C30.3851 28.9979 30.8142 28.6936 31.1755 28.31C31.5367 27.9265 31.823 27.4712 32.0178 26.9704C32.2126 26.4695 32.3121 25.9329 32.3107 25.3912V10.6087C32.3121 10.0671 32.2126 9.53043 32.0178 9.02958C31.823 8.52872 31.5367 8.07348 31.1755 7.68994C30.8142 7.30641 30.3851 7.00211 29.9126 6.79448C29.4401 6.58685 28.9335 6.47998 28.422 6.47998ZM11.8682 11.5762C12.4802 11.5762 13.0784 11.7685 13.5871 12.1287C14.0958 12.489 14.492 13.0009 14.7257 13.5998C14.9594 14.1986 15.02 14.8575 14.8999 15.4928C14.7797 16.1282 14.4842 16.7115 14.0507 17.1689C13.6172 17.6262 13.0653 17.9371 12.4649 18.0622C11.8644 18.1872 11.2424 18.1208 10.6776 17.8713C10.1128 17.6218 9.6307 17.2004 9.29224 16.6606C8.95379 16.1207 8.77424 15.4867 8.77634 14.8387C8.77634 14.4093 8.85639 13.9842 9.0119 13.5876C9.16741 13.1911 9.39533 12.8309 9.68257 12.5278C9.96982 12.2247 10.3107 11.9846 10.6858 11.8213C11.0609 11.658 11.4627 11.5747 11.8682 11.5762ZM5.58884 24.4237C5.59166 23.1815 6.05969 21.9911 6.89029 21.1138C7.72089 20.2364 8.84623 19.7437 10.0195 19.7437H13.717C14.8892 19.7437 16.0135 20.2368 16.8424 21.1145C17.6713 21.9921 18.137 23.1825 18.137 24.4237H5.58884ZM26.8388 21.375H21.4201C21.0322 21.3409 20.6706 21.1537 20.407 20.8505C20.1434 20.5473 19.9971 20.1502 19.9971 19.7381C19.9971 19.326 20.1434 18.929 20.407 18.6257C20.6706 18.3225 21.0322 18.1353 21.4201 18.1012H26.8601C27.0739 18.0824 27.289 18.1108 27.4919 18.1846C27.6948 18.2583 27.8811 18.3758 28.0389 18.5296C28.1968 18.6834 28.3228 18.8703 28.4089 19.0783C28.4951 19.2863 28.5396 19.511 28.5396 19.7381C28.5396 19.9653 28.4951 20.1899 28.4089 20.3979C28.3228 20.6059 28.1968 20.7928 28.0389 20.9466C27.8811 21.1004 27.6948 21.2179 27.4919 21.2917C27.289 21.3654 27.0739 21.3938 26.8601 21.375H26.8388ZM26.8388 16.38H21.4201C21.0322 16.3459 20.6706 16.1587 20.407 15.8555C20.1434 15.5523 19.9971 15.1552 19.9971 14.7431C19.9971 14.331 20.1434 13.9339 20.407 13.6307C20.6706 13.3275 21.0322 13.1403 21.4201 13.1062H26.8601C27.0739 13.0874 27.289 13.1158 27.4919 13.1896C27.6948 13.2633 27.8811 13.3808 28.0389 13.5346C28.1968 13.6884 28.3228 13.8753 28.4089 14.0833C28.4951 14.2913 28.5396 14.516 28.5396 14.7431C28.5396 14.9702 28.4951 15.1949 28.4089 15.4029C28.3228 15.6109 28.1968 15.7978 28.0389 15.9516C27.8811 16.1054 27.6948 16.2229 27.4919 16.2967C27.289 16.3704 27.0739 16.3988 26.8601 16.38H26.8388Z" fill="#76809D"/>
</svg>
