<svg width="20" height="20" viewBox="0 0 20 20" fill="none" xmlns="http://www.w3.org/2000/svg">
<path d="M12.6516 7.34822C14.1161 8.81269 14.1161 11.1871 12.6516 12.6515C11.1872 14.116 8.81281 14.116 7.34835 12.6515C5.88388 11.1871 5.88388 8.81269 7.34835 7.34822C8.81281 5.88376 11.1872 5.88376 12.6516 7.34822Z" fill="#76809D"/>
<path d="M14.375 0H5.625C2.52319 0 0 2.52319 0 5.625V14.375C0 17.4768 2.52319 20 5.625 20H14.375C17.4768 20 20 17.4768 20 14.375V5.625C20 2.52319 17.4768 0 14.375 0ZM10 15C7.24304 15 5 12.7576 5 10C5 7.24244 7.24304 5 10 5C12.757 5 15 7.24244 15 10C15 12.7576 12.757 15 10 15ZM15.625 5C15.2798 5 15 4.72015 15 4.375C15 4.02977 15.2798 3.75 15.625 3.75C15.9702 3.75 16.25 4.02977 16.25 4.375C16.25 4.72015 15.9702 5 15.625 5Z" fill="#76809D"/>
</svg>
