<svg width="29" height="29" viewBox="0 0 29 29" fill="none" xmlns="http://www.w3.org/2000/svg">
<g clip-path="url(#clip0_147_42)">
<path d="M25.375 3.625H3.625C2.66359 3.625 1.74156 4.00692 1.06174 4.68674C0.381919 5.36656 0 6.28859 0 7.25L0 21.75C0 22.7114 0.381919 23.6334 1.06174 24.3133C1.74156 24.9931 2.66359 25.375 3.625 25.375H25.375C26.3364 25.375 27.2584 24.9931 27.9383 24.3133C28.6181 23.6334 29 22.7114 29 21.75V7.25C29 6.28859 28.6181 5.36656 27.9383 4.68674C27.2584 4.00692 26.3364 3.625 25.375 3.625ZM23.5625 10.7155L15.1042 15.5488C14.9208 15.6505 14.7145 15.7038 14.5048 15.7038C14.2951 15.7038 14.0889 15.6505 13.9055 15.5488L5.44717 10.7155C5.30545 10.6389 5.18048 10.5348 5.0796 10.4092C4.97873 10.2836 4.90398 10.1391 4.85976 9.98419C4.81554 9.82929 4.80274 9.66711 4.82211 9.50719C4.84148 9.34727 4.89262 9.19284 4.97255 9.05298C5.05247 8.91312 5.15955 8.79065 5.28749 8.69277C5.41543 8.59489 5.56165 8.52359 5.71756 8.48304C5.87346 8.4425 6.03589 8.43354 6.19531 8.45669C6.35472 8.47984 6.5079 8.53462 6.64583 8.61783L14.5 13.108L22.3542 8.61783C22.6323 8.4576 22.9628 8.41443 23.2728 8.49782C23.5828 8.58121 23.8469 8.78433 24.0072 9.0625C24.1674 9.34067 24.2106 9.6711 24.1272 9.98109C24.0438 10.2911 23.8407 10.5553 23.5625 10.7155Z" fill="#76809D"/>
</g>
<defs>
<clipPath id="clip0_147_42">
<rect width="29" height="29" fill="white"/>
</clipPath>
</defs>
</svg>
