<svg width="19" height="19" viewBox="0 0 19 19" fill="none" xmlns="http://www.w3.org/2000/svg">
<g clip-path="url(#clip0_238_686)">
<path d="M9.5 0C7.61033 0 5.79806 0.750668 4.46186 2.08686C3.12567 3.42306 2.375 5.23533 2.375 7.125C2.375 12.3817 8.94583 18.6279 9.23083 18.8892C9.30445 18.9593 9.40225 18.9985 9.50396 18.9985C9.60566 18.9985 9.70347 18.9593 9.77708 18.8892C10.0542 18.6279 16.625 12.3817 16.625 7.125C16.625 5.23533 15.8743 3.42306 14.5381 2.08686C13.2019 0.750668 11.3897 0 9.5 0V0ZM9.5 11.0833C8.71712 11.0833 7.95181 10.8512 7.30087 10.4162C6.64992 9.98129 6.14257 9.36308 5.84298 8.63979C5.54338 7.9165 5.46499 7.12061 5.61773 6.35277C5.77046 5.58493 6.14745 4.87962 6.70104 4.32604C7.25462 3.77245 7.95993 3.39546 8.72777 3.24272C9.49561 3.08999 10.2915 3.16838 11.0148 3.46798C11.7381 3.76757 12.3563 4.27492 12.7912 4.92587C13.2262 5.57681 13.4583 6.34212 13.4583 7.125C13.4583 7.64482 13.3559 8.15954 13.157 8.63979C12.9581 9.12004 12.6665 9.5564 12.299 9.92396C11.9314 10.2915 11.495 10.5831 11.0148 10.782C10.5345 10.9809 10.0198 11.0833 9.5 11.0833Z" fill="#76809D"/>
</g>
<defs>
<clipPath id="clip0_238_686">
<rect width="19" height="19" fill="white"/>
</clipPath>
</defs>
</svg>
