<svg width="30" height="30" viewBox="0 0 30 30" fill="none" xmlns="http://www.w3.org/2000/svg">
<path d="M16.4548 23.8563C17.0765 23.8746 17.6869 24.0262 18.2441 24.3007H18.2776C18.7432 24.6806 18.8223 25.3585 18.4566 25.8341C17.7906 26.7871 16.7251 27.388 15.5602 27.4675C14.3634 27.6102 13.1581 27.2789 12.2053 26.5453C11.7153 26.2092 11.3969 25.6778 11.333 25.0897C11.333 24.4674 11.9146 24.1785 12.4513 24.0563C13.08 23.9239 13.7209 23.8568 14.3636 23.8563H16.4548ZM15.0458 2.5C18.9151 2.5 22.9074 5.3001 23.3211 9.35579C23.3882 10.1892 23.3211 11.0558 23.3882 11.9003C23.6078 12.9893 24.1132 14.0013 24.8532 14.8338C25.3133 15.5179 25.5798 16.3123 25.6249 17.1338V17.3894C25.6317 18.498 25.2345 19.5716 24.5065 20.4117C23.5839 21.3982 22.3321 22.0181 20.9839 22.1562C17.0007 22.6673 12.9678 22.6673 8.98462 22.1562C7.62056 22.0286 6.35112 21.4079 5.41727 20.4117C4.71216 19.5635 4.34241 18.489 4.37726 17.3894V17.1338C4.4209 16.3153 4.67919 15.5224 5.12651 14.8338C5.86981 14.0006 6.38235 12.9897 6.61384 11.9003C6.68094 11.0558 6.61384 10.2003 6.68094 9.35579C7.10589 5.3001 11.0199 2.5 14.9339 2.5H15.0458Z" fill="#76809D"/>
</svg>
