<svg width="18" height="18" viewBox="0 0 18 18" fill="none" xmlns="http://www.w3.org/2000/svg">
<path d="M17.25 14.25C17.25 14.4489 17.171 14.6397 17.0303 14.7803C16.8897 14.921 16.6989 15 16.5 15H7.5C7.30109 15 7.11032 14.921 6.96967 14.7803C6.82902 14.6397 6.75 14.4489 6.75 14.25C6.75 13.0565 7.22411 11.9119 8.06802 11.068C8.91193 10.2241 10.0565 9.75 11.25 9.75H12.75C13.9435 9.75 15.0881 10.2241 15.932 11.068C16.7759 11.9119 17.25 13.0565 17.25 14.25ZM12 3C11.4067 3 10.8266 3.17595 10.3333 3.50559C9.83994 3.83524 9.45542 4.30377 9.22836 4.85195C9.0013 5.40013 8.94189 6.00333 9.05764 6.58527C9.1734 7.16721 9.45912 7.70176 9.87868 8.12132C10.2982 8.54088 10.8328 8.8266 11.4147 8.94236C11.9967 9.05811 12.5999 8.9987 13.1481 8.77164C13.6962 8.54458 14.1648 8.16006 14.4944 7.66671C14.8241 7.17336 15 6.59334 15 6C15 5.20435 14.6839 4.44129 14.1213 3.87868C13.5587 3.31607 12.7956 3 12 3ZM5.25 3C4.65666 3 4.07664 3.17595 3.58329 3.50559C3.08994 3.83524 2.70542 4.30377 2.47836 4.85195C2.2513 5.40013 2.19189 6.00333 2.30764 6.58527C2.4234 7.16721 2.70912 7.70176 3.12868 8.12132C3.54824 8.54088 4.08279 8.8266 4.66473 8.94236C5.24667 9.05811 5.84987 8.9987 6.39805 8.77164C6.94623 8.54458 7.41476 8.16006 7.74441 7.66671C8.07405 7.17336 8.25 6.59334 8.25 6C8.25 5.20435 7.93393 4.44129 7.37132 3.87868C6.80871 3.31607 6.04565 3 5.25 3ZM5.25 14.25C5.24888 13.4622 5.40409 12.682 5.70663 11.9546C6.00917 11.2273 6.45303 10.5671 7.0125 10.0125C6.55465 9.83964 6.06939 9.75072 5.58 9.75H4.92C3.81466 9.75198 2.75515 10.192 1.97355 10.9736C1.19196 11.7552 0.751983 12.8147 0.75 13.92V14.25C0.75 14.4489 0.829018 14.6397 0.96967 14.7803C1.11032 14.921 1.30109 15 1.5 15H5.385C5.29768 14.7595 5.25203 14.5059 5.25 14.25Z" fill="#76809D"/>
</svg>
