<svg width="18" height="17" viewBox="0 0 18 17" fill="none" xmlns="http://www.w3.org/2000/svg">
<g clip-path="url(#clip0_194_38)">
<path d="M7.44851 2.42858C8.35942 2.42723 9.25311 2.67137 10.0315 3.13422C10.8099 3.59706 11.4428 4.26071 11.861 5.05234C12.2791 5.84396 12.4661 6.73295 12.4017 7.62175C12.3372 8.51055 12.0236 9.36479 11.4954 10.0907L11.0051 10.7646L10.3161 11.2443C9.67902 11.6859 8.94441 11.9742 8.17197 12.0859C7.39953 12.1975 6.61107 12.1293 5.87065 11.8868C5.13024 11.6442 4.45877 11.2343 3.91082 10.6901C3.36287 10.146 2.95391 9.48308 2.71716 8.75526C2.48041 8.02743 2.42256 7.25523 2.54832 6.50142C2.67407 5.74761 2.97988 5.03346 3.44088 4.41701C3.90189 3.80056 4.50508 3.29921 5.20145 2.9537C5.89781 2.60819 6.66769 2.42828 7.44851 2.42858ZM7.44851 6.56641e-06C6.27594 -0.00153321 5.11957 0.267746 4.07349 0.785931C3.02742 1.30412 2.12119 2.05657 1.42856 2.98205C0.735922 3.90754 0.276453 4.9799 0.0875387 6.1119C-0.101376 7.24389 -0.014399 8.40351 0.341392 9.49641C0.697183 10.5893 1.31174 11.5846 2.13504 12.4013C2.95834 13.218 3.96714 13.833 5.07933 14.1963C6.19152 14.5596 7.37569 14.6609 8.53547 14.492C9.69525 14.3231 10.7979 13.8887 11.7536 13.2242L15.2512 16.646C15.7341 17.1178 16.5174 17.1178 16.9997 16.646L17.0177 16.6284C17.1403 16.5206 17.2384 16.3887 17.3055 16.2414C17.3726 16.0941 17.4073 15.9346 17.4073 15.7733C17.4073 15.612 17.3726 15.4525 17.3055 15.3051C17.2384 15.1578 17.1403 15.0259 17.0177 14.9181L13.5195 11.4969C14.3115 10.4076 14.7815 9.12602 14.8781 7.79269C14.9746 6.45937 14.6939 5.12578 14.0668 3.93819C13.4397 2.75059 12.4904 1.75485 11.3229 1.06017C10.1555 0.365488 8.815 -0.00130862 7.44851 6.56641e-06Z" fill="#76809D"/>
</g>
<defs>
<clipPath id="clip0_194_38">
<rect width="18" height="17" fill="white"/>
</clipPath>
</defs>
</svg>
