<svg width="20" height="20" viewBox="0 0 20 20" fill="none" xmlns="http://www.w3.org/2000/svg">
<path d="M20 4.42377C19.2477 4.75189 18.452 4.96997 17.6375 5.07127C18.4958 4.56205 19.1376 3.75572 19.4412 2.80502C18.6375 3.28169 17.7582 3.61736 16.8412 3.79752C16.2791 3.19724 15.5493 2.77992 14.7469 2.59976C13.9444 2.4196 13.1063 2.48495 12.3415 2.7873C11.5766 3.08965 10.9204 3.61503 10.458 4.29519C9.99566 4.97534 9.74853 5.77883 9.74875 6.60127C9.74875 6.92627 9.77625 7.23877 9.84375 7.53627C8.2126 7.4563 6.6167 7.03295 5.16038 6.29391C3.70406 5.55488 2.42012 4.51679 1.3925 3.24752C0.866024 4.14984 0.703261 5.2189 0.937354 6.23702C1.17145 7.25514 1.78479 8.14575 2.6525 8.72752C2.00345 8.71011 1.36809 8.53691 0.8 8.22252V8.26752C0.801087 9.21431 1.12833 10.1318 1.72665 10.8656C2.32496 11.5994 3.15781 12.1046 4.085 12.2963C3.73423 12.3887 3.37273 12.4341 3.01 12.4313C2.74949 12.4359 2.48923 12.4124 2.23375 12.3613C2.49868 13.175 3.00936 13.8867 3.69549 14.3982C4.38162 14.9097 5.20945 15.196 6.065 15.2175C4.61367 16.3526 2.82372 16.9683 0.98125 16.9663C0.645 16.9663 0.3225 16.9513 0 16.91C1.87485 18.1182 4.05959 18.7573 6.29 18.75C13.835 18.75 17.96 12.5 17.96 7.08252C17.96 6.90127 17.9538 6.72627 17.945 6.55252C18.7537 5.97375 19.4501 5.25237 20 4.42377Z" fill="#76809D"/>
</svg>
