<svg width="217" height="54" viewBox="0 0 217 54" fill="none" xmlns="http://www.w3.org/2000/svg">
<path d="M7.45 34.45H18.95V40H0.45V5.1H7.45V34.45ZM26.9492 9C25.7159 9 24.6826 8.61667 23.8492 7.85C23.0492 7.05 22.6492 6.06666 22.6492 4.9C22.6492 3.73333 23.0492 2.76666 23.8492 2C24.6826 1.2 25.7159 0.799998 26.9492 0.799998C28.1826 0.799998 29.1992 1.2 29.9992 2C30.8326 2.76666 31.2492 3.73333 31.2492 4.9C31.2492 6.06666 30.8326 7.05 29.9992 7.85C29.1992 8.61667 28.1826 9 26.9492 9ZM30.3992 12.3V40H23.3992V12.3H30.3992ZM52.6652 11.9C55.9652 11.9 58.6319 12.95 60.6652 15.05C62.6986 17.1167 63.7152 20.0167 63.7152 23.75V40H56.7152V24.7C56.7152 22.5 56.1652 20.8167 55.0652 19.65C53.9652 18.45 52.4652 17.85 50.5652 17.85C48.6319 17.85 47.0986 18.45 45.9652 19.65C44.8652 20.8167 44.3152 22.5 44.3152 24.7V40H37.3152V12.3H44.3152V15.75C45.2486 14.55 46.4319 13.6167 47.8652 12.95C49.3319 12.25 50.9319 11.9 52.6652 11.9ZM86.7719 40L77.3719 28.2V40H70.3719V3H77.3719V24.05L86.6719 12.3H95.7719L83.5719 26.2L95.8719 40H86.7719Z" fill="black"/>
<path d="M106.471 5.1V26.7C106.471 29.0667 107.088 30.8833 108.321 32.15C109.554 33.3833 111.288 34 113.521 34C115.788 34 117.538 33.3833 118.771 32.15C120.004 30.8833 120.621 29.0667 120.621 26.7V5.1H127.671V26.65C127.671 29.6167 127.021 32.1333 125.721 34.2C124.454 36.2333 122.738 37.7667 120.571 38.8C118.438 39.8333 116.054 40.35 113.421 40.35C110.821 40.35 108.454 39.8333 106.321 38.8C104.221 37.7667 102.554 36.2333 101.321 34.2C100.088 32.1333 99.4711 29.6167 99.4711 26.65V5.1H106.471ZM141.434 16.3C142.334 15.0333 143.568 13.9833 145.134 13.15C146.734 12.2833 148.551 11.85 150.584 11.85C152.951 11.85 155.084 12.4333 156.984 13.6C158.918 14.7667 160.434 16.4333 161.534 18.6C162.668 20.7333 163.234 23.2167 163.234 26.05C163.234 28.8833 162.668 31.4 161.534 33.6C160.434 35.7667 158.918 37.45 156.984 38.65C155.084 39.85 152.951 40.45 150.584 40.45C148.551 40.45 146.751 40.0333 145.184 39.2C143.651 38.3667 142.401 37.3167 141.434 36.05V53.2H134.434V12.3H141.434V16.3ZM156.084 26.05C156.084 24.3833 155.734 22.95 155.034 21.75C154.368 20.5167 153.468 19.5833 152.334 18.95C151.234 18.3167 150.034 18 148.734 18C147.468 18 146.268 18.3333 145.134 19C144.034 19.6333 143.134 20.5667 142.434 21.8C141.768 23.0333 141.434 24.4833 141.434 26.15C141.434 27.8167 141.768 29.2667 142.434 30.5C143.134 31.7333 144.034 32.6833 145.134 33.35C146.268 33.9833 147.468 34.3 148.734 34.3C150.034 34.3 151.234 33.9667 152.334 33.3C153.468 32.6333 154.368 31.6833 155.034 30.45C155.734 29.2167 156.084 27.75 156.084 26.05ZM169.321 11H178.171L189.071 22.2L178.171 33.4H169.321L180.271 22.2L169.321 11ZM208.09 33.4L197.19 22.2L208.09 11H216.89L205.99 22.2L216.89 33.4H208.09Z" fill="#007EF2"/>
</svg>
